<svg width="586" height="186" viewBox="0 0 586 186" fill="none" xmlns="http://www.w3.org/2000/svg">
<rect width="586" height="186" fill="#FBEAEA"/>
<circle cx="18.5" cy="18.5" r="11.5" transform="rotate(-90 18.5 18.5)" fill="#FF869C" stroke="#FF869C" stroke-width="14"/>
<circle cx="18.5" cy="67.5" r="11.5" transform="rotate(-90 18.5 67.5)" fill="#FF869C" stroke="#FF869C" stroke-width="14"/>
<circle cx="18.5" cy="118.5" r="11.5" transform="rotate(-90 18.5 118.5)" fill="#FF869C" stroke="#FF869C" stroke-width="14"/>
<circle cx="18.5" cy="167.5" r="11.5" transform="rotate(-90 18.5 167.5)" fill="#FF869C" stroke="#FF869C" stroke-width="14"/>
<circle cx="67.5" cy="18.5" r="11.5" transform="rotate(-90 67.5 18.5)" fill="#FF869C" stroke="#FF869C" stroke-width="14"/>
<circle cx="118.5" cy="18.5" r="11.5" transform="rotate(-90 118.5 18.5)" fill="#FF869C" stroke="#FF869C" stroke-width="14"/>
<circle cx="167.5" cy="18.5" r="11.5" transform="rotate(-90 167.5 18.5)" fill="#FF869C" stroke="#FF869C" stroke-width="14"/>
<circle cx="218.5" cy="18.5" r="11.5" transform="rotate(-90 218.5 18.5)" fill="#FF869C" stroke="#FF869C" stroke-width="14"/>
<circle cx="267.5" cy="18.5" r="11.5" transform="rotate(-90 267.5 18.5)" fill="#FF869C" stroke="#FF869C" stroke-width="14"/>
<circle cx="318.5" cy="18.5" r="11.5" transform="rotate(-90 318.5 18.5)" fill="#FF869C" stroke="#FF869C" stroke-width="14"/>
<circle cx="367.5" cy="18.5" r="11.5" transform="rotate(-90 367.5 18.5)" fill="#FF869C" stroke="#FF869C" stroke-width="14"/>
<circle cx="418.5" cy="18.5" r="11.5" transform="rotate(-90 418.5 18.5)" fill="#FF869C" stroke="#FF869C" stroke-width="14"/>
<circle cx="467.5" cy="18.5" r="11.5" transform="rotate(-90 467.5 18.5)" fill="#FF869C" stroke="#FF869C" stroke-width="14"/>
<circle cx="518.5" cy="18.5" r="11.5" transform="rotate(-90 518.5 18.5)" fill="#FF869C" stroke="#FF869C" stroke-width="14"/>
<circle cx="567.5" cy="18.5" r="11.5" transform="rotate(-90 567.5 18.5)" fill="#FF869C" stroke="#FF869C" stroke-width="14"/>
<circle cx="118.5" cy="67.5" r="11.5" transform="rotate(-90 118.5 67.5)" fill="#FF869C" stroke="#FF869C" stroke-width="14"/>
<circle cx="67.5" cy="67.5" r="11.5" transform="rotate(-90 67.5 67.5)" fill="#FF869C" stroke="#FF869C" stroke-width="14"/>
<circle cx="118.5" cy="118.5" r="11.5" transform="rotate(-90 118.5 118.5)" fill="#FF869C" stroke="#FF869C" stroke-width="14"/>
<circle cx="218.5" cy="67.5" r="11.5" transform="rotate(-90 218.5 67.5)" fill="#FF869C" stroke="#FF869C" stroke-width="14"/>
<circle cx="267.5" cy="67.5" r="11.5" transform="rotate(-90 267.5 67.5)" fill="#FF869C" stroke="#FF869C" stroke-width="14"/>
<circle cx="167.5" cy="67.5" r="11.5" transform="rotate(-90 167.5 67.5)" fill="#FF869C" stroke="#FF869C" stroke-width="14"/>
<circle cx="367.5" cy="67.5" r="11.5" transform="rotate(-90 367.5 67.5)" fill="#FF869C" stroke="#FF869C" stroke-width="14"/>
<circle cx="318.5" cy="67.5" r="11.5" transform="rotate(-90 318.5 67.5)" fill="#FF869C" stroke="#FF869C" stroke-width="14"/>
<circle cx="467.5" cy="67.5" r="11.5" transform="rotate(-90 467.5 67.5)" fill="#FF869C" stroke="#FF869C" stroke-width="14"/>
<circle cx="418.5" cy="67.5" r="11.5" transform="rotate(-90 418.5 67.5)" fill="#FF869C" stroke="#FF869C" stroke-width="14"/>
<circle cx="518.5" cy="67.5" r="11.5" transform="rotate(-90 518.5 67.5)" fill="#FF869C" stroke="#FF869C" stroke-width="14"/>
<circle cx="567.5" cy="67.5" r="11.5" transform="rotate(-90 567.5 67.5)" fill="#FF869C" stroke="#FF869C" stroke-width="14"/>
<circle cx="118.5" cy="167.5" r="11.5" transform="rotate(-90 118.5 167.5)" fill="#FF869C" stroke="#FF869C" stroke-width="14"/>
<circle cx="67.5" cy="118.5" r="11.5" transform="rotate(-90 67.5 118.5)" fill="#FF869C" stroke="#FF869C" stroke-width="14"/>
<circle cx="218.5" cy="118.5" r="11.5" transform="rotate(-90 218.5 118.5)" fill="#FF869C" stroke="#FF869C" stroke-width="14"/>
<circle cx="267.5" cy="118.5" r="11.5" transform="rotate(-90 267.5 118.5)" fill="#FF869C" stroke="#FF869C" stroke-width="14"/>
<circle cx="367.5" cy="118.5" r="11.5" transform="rotate(-90 367.5 118.5)" fill="#FF869C" stroke="#FF869C" stroke-width="14"/>
<circle cx="167.5" cy="118.5" r="11.5" transform="rotate(-90 167.5 118.5)" fill="#FF869C" stroke="#FF869C" stroke-width="14"/>
<circle cx="467.5" cy="118.5" r="11.5" transform="rotate(-90 467.5 118.5)" fill="#FF869C" stroke="#FF869C" stroke-width="14"/>
<circle cx="318.5" cy="118.5" r="11.5" transform="rotate(-90 318.5 118.5)" fill="#FF869C" stroke="#FF869C" stroke-width="14"/>
<circle cx="418.5" cy="118.5" r="11.5" transform="rotate(-90 418.5 118.5)" fill="#FF869C" stroke="#FF869C" stroke-width="14"/>
<circle cx="518.5" cy="118.5" r="11.5" transform="rotate(-90 518.5 118.5)" fill="#FF869C" stroke="#FF869C" stroke-width="14"/>
<circle cx="567.5" cy="118.5" r="11.5" transform="rotate(-90 567.5 118.5)" fill="#FF869C" stroke="#FF869C" stroke-width="14"/>
<circle cx="218.5" cy="167.5" r="11.5" transform="rotate(-90 218.5 167.5)" fill="#FF869C" stroke="#FF869C" stroke-width="14"/>
<circle cx="67.5" cy="167.5" r="11.5" transform="rotate(-90 67.5 167.5)" fill="#FF869C" stroke="#FF869C" stroke-width="14"/>
<circle cx="267.5" cy="167.5" r="11.5" transform="rotate(-90 267.5 167.5)" fill="#FF869C" stroke="#FF869C" stroke-width="14"/>
<circle cx="367.5" cy="167.5" r="11.5" transform="rotate(-90 367.5 167.5)" fill="#FF869C" stroke="#FF869C" stroke-width="14"/>
<circle cx="467.5" cy="167.5" r="11.5" transform="rotate(-90 467.5 167.5)" fill="#FF869C" stroke="#FF869C" stroke-width="14"/>
<circle cx="167.5" cy="167.5" r="11.5" transform="rotate(-90 167.5 167.5)" fill="#FF869C" stroke="#FF869C" stroke-width="14"/>
<circle cx="318.5" cy="167.5" r="11.5" transform="rotate(-90 318.5 167.5)" fill="#FF869C" stroke="#FF869C" stroke-width="14"/>
<circle cx="418.5" cy="167.5" r="11.5" transform="rotate(-90 418.5 167.5)" fill="#FF869C" stroke="#FF869C" stroke-width="14"/>
<circle cx="518.5" cy="167.5" r="11.5" transform="rotate(-90 518.5 167.5)" fill="#FF869C" stroke="#FF869C" stroke-width="14"/>
<circle cx="567.5" cy="167.5" r="11.5" transform="rotate(-90 567.5 167.5)" fill="#FF869C" stroke="#FF869C" stroke-width="14"/>
</svg>
