<svg width="416" height="188" viewBox="0 0 416 188" fill="none" xmlns="http://www.w3.org/2000/svg">
<rect x="-1.52588e-05" width="416" height="188" fill="#FFF3D6"/>
<circle cx="118.424" cy="157.007" r="11.9931" transform="rotate(180 118.424 157.007)" stroke="#FFD260" stroke-width="6"/>
<circle cx="118.424" cy="113.792" r="11.9931" transform="rotate(180 118.424 113.792)" stroke="#FFD260" stroke-width="6"/>
<circle cx="75.2083" cy="157.007" r="11.9931" transform="rotate(180 75.2083 157.007)" stroke="#FFD260" stroke-width="6"/>
<circle cx="75.2083" cy="113.792" r="11.9931" transform="rotate(180 75.2083 113.792)" stroke="#FFD260" stroke-width="6"/>
<circle cx="31.993" cy="157.007" r="11.9931" transform="rotate(180 31.993 157.007)" stroke="#FFD260" stroke-width="6"/>
<circle cx="31.993" cy="113.792" r="11.9931" transform="rotate(180 31.993 113.792)" stroke="#FFD260" stroke-width="6"/>
<circle cx="161.639" cy="157.007" r="11.9931" transform="rotate(180 161.639 157.007)" stroke="#FFD260" stroke-width="6"/>
<circle cx="161.639" cy="113.792" r="11.9931" transform="rotate(180 161.639 113.792)" stroke="#FFD260" stroke-width="6"/>
<circle cx="206.618" cy="157.007" r="11.9931" transform="rotate(180 206.618 157.007)" stroke="#FFD260" stroke-width="6"/>
<circle cx="206.618" cy="113.792" r="11.9931" transform="rotate(180 206.618 113.792)" stroke="#FFD260" stroke-width="6"/>
<circle cx="249.833" cy="157.007" r="11.9931" transform="rotate(180 249.833 157.007)" stroke="#FFD260" stroke-width="6"/>
<circle cx="249.833" cy="113.792" r="11.9931" transform="rotate(180 249.833 113.792)" stroke="#FFD260" stroke-width="6"/>
<circle cx="294.812" cy="157.007" r="11.9931" transform="rotate(180 294.812 157.007)" stroke="#FFD260" stroke-width="6"/>
<circle cx="294.812" cy="113.792" r="11.9931" transform="rotate(180 294.812 113.792)" stroke="#FFD260" stroke-width="6"/>
<circle cx="338.028" cy="157.007" r="11.9931" transform="rotate(180 338.028 157.007)" stroke="#FFD260" stroke-width="6"/>
<circle cx="338.028" cy="113.792" r="11.9931" transform="rotate(180 338.028 113.792)" stroke="#FFD260" stroke-width="6"/>
<circle cx="383.007" cy="157.007" r="11.9931" transform="rotate(180 383.007 157.007)" stroke="#FFD260" stroke-width="6"/>
<circle cx="383.007" cy="113.792" r="11.9931" transform="rotate(180 383.007 113.792)" stroke="#FFD260" stroke-width="6"/>
<circle cx="118.424" cy="73.8058" r="11.9931" transform="rotate(180 118.424 73.8058)" stroke="#FFD260" stroke-width="6"/>
<circle cx="118.424" cy="30.5909" r="11.9931" transform="rotate(180 118.424 30.5909)" stroke="#FFD260" stroke-width="6"/>
<circle cx="75.2083" cy="73.8058" r="11.9931" transform="rotate(180 75.2083 73.8058)" stroke="#FFD260" stroke-width="6"/>
<circle cx="75.2083" cy="30.5909" r="11.9931" transform="rotate(180 75.2083 30.5909)" stroke="#FFD260" stroke-width="6"/>
<circle cx="31.993" cy="73.8058" r="11.9931" transform="rotate(180 31.993 73.8058)" stroke="#FFD260" stroke-width="6"/>
<circle cx="31.9929" cy="30.5909" r="11.9931" transform="rotate(180 31.9929 30.5909)" stroke="#FFD260" stroke-width="6"/>
<circle cx="161.639" cy="73.8058" r="11.9931" transform="rotate(180 161.639 73.8058)" stroke="#FFD260" stroke-width="6"/>
<circle cx="161.639" cy="30.5909" r="11.9931" transform="rotate(180 161.639 30.5909)" stroke="#FFD260" stroke-width="6"/>
<circle cx="206.618" cy="73.8058" r="11.9931" transform="rotate(180 206.618 73.8058)" stroke="#FFD260" stroke-width="6"/>
<circle cx="206.618" cy="30.5909" r="11.9931" transform="rotate(180 206.618 30.5909)" stroke="#FFD260" stroke-width="6"/>
<circle cx="249.833" cy="73.8058" r="11.9931" transform="rotate(180 249.833 73.8058)" stroke="#FFD260" stroke-width="6"/>
<circle cx="249.833" cy="30.5909" r="11.9931" transform="rotate(180 249.833 30.5909)" stroke="#FFD260" stroke-width="6"/>
<circle cx="294.812" cy="73.8058" r="11.9931" transform="rotate(180 294.812 73.8058)" stroke="#FFD260" stroke-width="6"/>
<circle cx="294.812" cy="30.5909" r="11.9931" transform="rotate(180 294.812 30.5909)" stroke="#FFD260" stroke-width="6"/>
<circle cx="338.028" cy="73.8058" r="11.9931" transform="rotate(180 338.028 73.8058)" stroke="#FFD260" stroke-width="6"/>
<circle cx="338.028" cy="30.5909" r="11.9931" transform="rotate(180 338.028 30.5909)" stroke="#FFD260" stroke-width="6"/>
<circle cx="383.007" cy="73.8058" r="11.9931" transform="rotate(180 383.007 73.8058)" stroke="#FFD260" stroke-width="6"/>
<circle cx="383.007" cy="30.5909" r="11.9931" transform="rotate(180 383.007 30.5909)" stroke="#FFD260" stroke-width="6"/>
</svg>
