<svg width="390" height="6094" viewBox="0 0 390 6094" fill="none" xmlns="http://www.w3.org/2000/svg">
<g clip-path="url(#clip0_380_767)" filter="url(#filter0_b_380_767)">
<rect width="390" height="6094" fill="white"/>
<rect width="398" height="6094" fill="#F1FDFB"/>
<circle cx="296" cy="53" r="3.5" stroke="#ACD4DD"/>
<circle cx="345" cy="53" r="3.5" stroke="#ACD4DD"/>
<circle cx="247" cy="53" r="3.5" stroke="#ACD4DD"/>
<circle cx="196" cy="53" r="3.5" stroke="#ACD4DD"/>
<circle cx="147" cy="53" r="3.5" stroke="#ACD4DD"/>
<circle cx="96" cy="53" r="3.5" stroke="#ACD4DD"/>
<circle cx="47" cy="53" r="3.5" stroke="#ACD4DD"/>
<circle cx="296" cy="4" r="3.5" stroke="#ACD4DD"/>
<circle cx="345" cy="4" r="3.5" stroke="#ACD4DD"/>
<circle cx="247" cy="4" r="3.5" stroke="#ACD4DD"/>
<circle cx="196" cy="4" r="3.5" stroke="#ACD4DD"/>
<circle cx="147" cy="4" r="3.5" stroke="#ACD4DD"/>
<circle cx="96" cy="4" r="3.5" stroke="#ACD4DD"/>
<circle cx="47" cy="4" r="3.5" stroke="#ACD4DD"/>
<circle cx="296" cy="102" r="3.5" stroke="#ACD4DD"/>
<circle cx="296" cy="153" r="3.5" stroke="#ACD4DD"/>
<circle cx="296" cy="202" r="3.5" stroke="#ACD4DD"/>
<circle cx="296" cy="253" r="3.5" stroke="#ACD4DD"/>
<circle cx="296" cy="302" r="3.5" stroke="#ACD4DD"/>
<circle cx="296" cy="353" r="3.5" stroke="#ACD4DD"/>
<circle cx="296" cy="402" r="3.5" stroke="#ACD4DD"/>
<circle cx="296" cy="453" r="3.5" stroke="#ACD4DD"/>
<circle cx="296" cy="502" r="3.5" stroke="#ACD4DD"/>
<circle cx="296" cy="553" r="3.5" stroke="#ACD4DD"/>
<circle cx="296" cy="602" r="3.5" stroke="#ACD4DD"/>
<circle cx="296" cy="651" r="3.5" stroke="#ACD4DD"/>
<circle cx="296" cy="700" r="3.5" stroke="#ACD4DD"/>
<circle cx="296" cy="749" r="3.5" stroke="#ACD4DD"/>
<circle cx="296" cy="798" r="3.5" stroke="#ACD4DD"/>
<circle cx="296" cy="847" r="3.5" stroke="#ACD4DD"/>
<circle cx="296" cy="896" r="3.5" stroke="#ACD4DD"/>
<circle cx="296" cy="945" r="3.5" stroke="#ACD4DD"/>
<circle cx="296" cy="994" r="3.5" stroke="#ACD4DD"/>
<circle cx="296" cy="1043" r="3.5" stroke="#ACD4DD"/>
<circle cx="296" cy="1092" r="3.5" stroke="#ACD4DD"/>
<circle cx="296" cy="1141" r="3.5" stroke="#ACD4DD"/>
<circle cx="296" cy="1190" r="3.5" stroke="#ACD4DD"/>
<circle cx="296" cy="1239" r="3.5" stroke="#ACD4DD"/>
<circle cx="296" cy="1288" r="3.5" stroke="#ACD4DD"/>
<circle cx="296" cy="1337" r="3.5" stroke="#ACD4DD"/>
<circle cx="296" cy="1386" r="3.5" stroke="#ACD4DD"/>
<circle cx="296" cy="1435" r="3.5" stroke="#ACD4DD"/>
<circle cx="296" cy="1484" r="3.5" stroke="#ACD4DD"/>
<circle cx="296" cy="1533" r="3.5" stroke="#ACD4DD"/>
<circle cx="296" cy="1582" r="3.5" stroke="#ACD4DD"/>
<circle cx="296" cy="1631" r="3.5" stroke="#ACD4DD"/>
<circle cx="296" cy="1680" r="3.5" stroke="#ACD4DD"/>
<circle cx="296" cy="1729" r="3.5" stroke="#ACD4DD"/>
<circle cx="296" cy="1778" r="3.5" stroke="#ACD4DD"/>
<circle cx="296" cy="1827" r="3.5" stroke="#ACD4DD"/>
<circle cx="296" cy="1876" r="3.5" stroke="#ACD4DD"/>
<circle cx="296" cy="1925" r="3.5" stroke="#ACD4DD"/>
<circle cx="296" cy="1974" r="3.5" stroke="#ACD4DD"/>
<circle cx="296" cy="2023" r="3.5" stroke="#ACD4DD"/>
<circle cx="296" cy="2072" r="3.5" stroke="#ACD4DD"/>
<circle cx="296" cy="2121" r="3.5" stroke="#ACD4DD"/>
<circle cx="296" cy="2170" r="3.5" stroke="#ACD4DD"/>
<circle cx="296" cy="2219" r="3.5" stroke="#ACD4DD"/>
<circle cx="296" cy="2268" r="3.5" stroke="#ACD4DD"/>
<circle cx="296" cy="2317" r="3.5" stroke="#ACD4DD"/>
<circle cx="296" cy="2366" r="3.5" stroke="#ACD4DD"/>
<circle cx="296" cy="2415" r="3.5" stroke="#ACD4DD"/>
<circle cx="296" cy="2464" r="3.5" stroke="#ACD4DD"/>
<circle cx="296" cy="2513" r="3.5" stroke="#ACD4DD"/>
<circle cx="296" cy="2562" r="3.5" stroke="#ACD4DD"/>
<circle cx="296" cy="2611" r="3.5" stroke="#ACD4DD"/>
<circle cx="296" cy="2660" r="3.5" stroke="#ACD4DD"/>
<circle cx="296" cy="2709" r="3.5" stroke="#ACD4DD"/>
<circle cx="296" cy="3052" r="3.5" stroke="#ACD4DD"/>
<circle cx="296" cy="3101" r="3.5" stroke="#ACD4DD"/>
<circle cx="296" cy="3150" r="3.5" stroke="#ACD4DD"/>
<circle cx="296" cy="3199" r="3.5" stroke="#ACD4DD"/>
<circle cx="296" cy="3248" r="3.5" stroke="#ACD4DD"/>
<circle cx="296" cy="3297" r="3.5" stroke="#ACD4DD"/>
<circle cx="296" cy="3346" r="3.5" stroke="#ACD4DD"/>
<circle cx="296" cy="3395" r="3.5" stroke="#ACD4DD"/>
<circle cx="296" cy="3444" r="3.5" stroke="#ACD4DD"/>
<circle cx="296" cy="3493" r="3.5" stroke="#ACD4DD"/>
<circle cx="296" cy="3542" r="3.5" stroke="#ACD4DD"/>
<circle cx="296" cy="3591" r="3.5" stroke="#ACD4DD"/>
<circle cx="296" cy="3640" r="3.5" stroke="#ACD4DD"/>
<circle cx="296" cy="3689" r="3.5" stroke="#ACD4DD"/>
<circle cx="296" cy="3738" r="3.5" stroke="#ACD4DD"/>
<circle cx="296" cy="3787" r="3.5" stroke="#ACD4DD"/>
<circle cx="345" cy="896" r="3.5" stroke="#ACD4DD"/>
<circle cx="345" cy="945" r="3.5" stroke="#ACD4DD"/>
<circle cx="345" cy="994" r="3.5" stroke="#ACD4DD"/>
<circle cx="345" cy="1043" r="3.5" stroke="#ACD4DD"/>
<circle cx="345" cy="1092" r="3.5" stroke="#ACD4DD"/>
<circle cx="296" cy="2758" r="3.5" stroke="#ACD4DD"/>
<circle cx="345" cy="1141" r="3.5" stroke="#ACD4DD"/>
<circle cx="296" cy="2807" r="3.5" stroke="#ACD4DD"/>
<circle cx="296" cy="2856" r="3.5" stroke="#ACD4DD"/>
<circle cx="296" cy="2905" r="3.5" stroke="#ACD4DD"/>
<circle cx="296" cy="2954" r="3.5" stroke="#ACD4DD"/>
<circle cx="296" cy="3003" r="3.5" stroke="#ACD4DD"/>
<circle cx="345" cy="1190" r="3.5" stroke="#ACD4DD"/>
<circle cx="345" cy="1239" r="3.5" stroke="#ACD4DD"/>
<circle cx="345" cy="1288" r="3.5" stroke="#ACD4DD"/>
<circle cx="345" cy="1337" r="3.5" stroke="#ACD4DD"/>
<circle cx="345" cy="1386" r="3.5" stroke="#ACD4DD"/>
<circle cx="345" cy="1435" r="3.5" stroke="#ACD4DD"/>
<circle cx="345" cy="1484" r="3.5" stroke="#ACD4DD"/>
<circle cx="345" cy="1533" r="3.5" stroke="#ACD4DD"/>
<circle cx="345" cy="1582" r="3.5" stroke="#ACD4DD"/>
<circle cx="345" cy="1631" r="3.5" stroke="#ACD4DD"/>
<circle cx="345" cy="1680" r="3.5" stroke="#ACD4DD"/>
<circle cx="345" cy="1729" r="3.5" stroke="#ACD4DD"/>
<circle cx="345" cy="1778" r="3.5" stroke="#ACD4DD"/>
<circle cx="345" cy="1827" r="3.5" stroke="#ACD4DD"/>
<circle cx="345" cy="1876" r="3.5" stroke="#ACD4DD"/>
<circle cx="296" cy="3836" r="3.5" stroke="#ACD4DD"/>
<circle cx="345" cy="1925" r="3.5" stroke="#ACD4DD"/>
<circle cx="296" cy="3885" r="3.5" stroke="#ACD4DD"/>
<circle cx="296" cy="3934" r="3.5" stroke="#ACD4DD"/>
<circle cx="296" cy="3983" r="3.5" stroke="#ACD4DD"/>
<circle cx="296" cy="4032" r="3.5" stroke="#ACD4DD"/>
<circle cx="296" cy="4081" r="3.5" stroke="#ACD4DD"/>
<circle cx="345" cy="102" r="3.5" stroke="#ACD4DD"/>
<circle cx="345" cy="153" r="3.5" stroke="#ACD4DD"/>
<circle cx="345" cy="202" r="3.5" stroke="#ACD4DD"/>
<circle cx="345" cy="253" r="3.5" stroke="#ACD4DD"/>
<circle cx="345" cy="302" r="3.5" stroke="#ACD4DD"/>
<circle cx="345" cy="353" r="3.5" stroke="#ACD4DD"/>
<circle cx="345" cy="402" r="3.5" stroke="#ACD4DD"/>
<circle cx="345" cy="453" r="3.5" stroke="#ACD4DD"/>
<circle cx="345" cy="502" r="3.5" stroke="#ACD4DD"/>
<circle cx="345" cy="1974" r="3.5" stroke="#ACD4DD"/>
<circle cx="345" cy="2023" r="3.5" stroke="#ACD4DD"/>
<circle cx="345" cy="2072" r="3.5" stroke="#ACD4DD"/>
<circle cx="345" cy="2121" r="3.5" stroke="#ACD4DD"/>
<circle cx="345" cy="2170" r="3.5" stroke="#ACD4DD"/>
<circle cx="345" cy="2219" r="3.5" stroke="#ACD4DD"/>
<circle cx="345" cy="2268" r="3.5" stroke="#ACD4DD"/>
<circle cx="345" cy="2317" r="3.5" stroke="#ACD4DD"/>
<circle cx="345" cy="2366" r="3.5" stroke="#ACD4DD"/>
<circle cx="345" cy="2415" r="3.5" stroke="#ACD4DD"/>
<circle cx="345" cy="602" r="3.5" stroke="#ACD4DD"/>
<circle cx="345" cy="651" r="3.5" stroke="#ACD4DD"/>
<circle cx="345" cy="700" r="3.5" stroke="#ACD4DD"/>
<circle cx="345" cy="749" r="3.5" stroke="#ACD4DD"/>
<circle cx="345" cy="798" r="3.5" stroke="#ACD4DD"/>
<circle cx="345" cy="2464" r="3.5" stroke="#ACD4DD"/>
<circle cx="345" cy="2513" r="3.5" stroke="#ACD4DD"/>
<circle cx="345" cy="2562" r="3.5" stroke="#ACD4DD"/>
<circle cx="345" cy="847" r="3.5" stroke="#ACD4DD"/>
<circle cx="345" cy="2611" r="3.5" stroke="#ACD4DD"/>
<circle cx="345" cy="2660" r="3.5" stroke="#ACD4DD"/>
<circle cx="345" cy="2709" r="3.5" stroke="#ACD4DD"/>
<circle cx="345" cy="2758" r="3.5" stroke="#ACD4DD"/>
<circle cx="345" cy="2807" r="3.5" stroke="#ACD4DD"/>
<circle cx="345" cy="2856" r="3.5" stroke="#ACD4DD"/>
<circle cx="345" cy="2905" r="3.5" stroke="#ACD4DD"/>
<circle cx="345" cy="2954" r="3.5" stroke="#ACD4DD"/>
<circle cx="345" cy="3052" r="3.5" stroke="#ACD4DD"/>
<circle cx="345" cy="3003" r="3.5" stroke="#ACD4DD"/>
<circle cx="345" cy="3101" r="3.5" stroke="#ACD4DD"/>
<circle cx="345" cy="3150" r="3.5" stroke="#ACD4DD"/>
<circle cx="345" cy="3199" r="3.5" stroke="#ACD4DD"/>
<circle cx="345" cy="3248" r="3.5" stroke="#ACD4DD"/>
<circle cx="345" cy="3297" r="3.5" stroke="#ACD4DD"/>
<circle cx="345" cy="3346" r="3.5" stroke="#ACD4DD"/>
<circle cx="345" cy="3395" r="3.5" stroke="#ACD4DD"/>
<circle cx="345" cy="3444" r="3.5" stroke="#ACD4DD"/>
<circle cx="345" cy="3493" r="3.5" stroke="#ACD4DD"/>
<circle cx="247" cy="896" r="3.5" stroke="#ACD4DD"/>
<circle cx="247" cy="945" r="3.5" stroke="#ACD4DD"/>
<circle cx="247" cy="994" r="3.5" stroke="#ACD4DD"/>
<circle cx="247" cy="1043" r="3.5" stroke="#ACD4DD"/>
<circle cx="247" cy="1092" r="3.5" stroke="#ACD4DD"/>
<circle cx="247" cy="1141" r="3.5" stroke="#ACD4DD"/>
<circle cx="247" cy="1190" r="3.5" stroke="#ACD4DD"/>
<circle cx="247" cy="1239" r="3.5" stroke="#ACD4DD"/>
<circle cx="247" cy="1288" r="3.5" stroke="#ACD4DD"/>
<circle cx="247" cy="1337" r="3.5" stroke="#ACD4DD"/>
<circle cx="247" cy="1386" r="3.5" stroke="#ACD4DD"/>
<circle cx="247" cy="1435" r="3.5" stroke="#ACD4DD"/>
<circle cx="247" cy="1484" r="3.5" stroke="#ACD4DD"/>
<circle cx="247" cy="1533" r="3.5" stroke="#ACD4DD"/>
<circle cx="247" cy="1582" r="3.5" stroke="#ACD4DD"/>
<circle cx="247" cy="1631" r="3.5" stroke="#ACD4DD"/>
<circle cx="247" cy="1680" r="3.5" stroke="#ACD4DD"/>
<circle cx="247" cy="1729" r="3.5" stroke="#ACD4DD"/>
<circle cx="247" cy="1778" r="3.5" stroke="#ACD4DD"/>
<circle cx="247" cy="1827" r="3.5" stroke="#ACD4DD"/>
<circle cx="247" cy="1876" r="3.5" stroke="#ACD4DD"/>
<circle cx="345" cy="3542" r="3.5" stroke="#ACD4DD"/>
<circle cx="345" cy="3591" r="3.5" stroke="#ACD4DD"/>
<circle cx="345" cy="3640" r="3.5" stroke="#ACD4DD"/>
<circle cx="247" cy="1925" r="3.5" stroke="#ACD4DD"/>
<circle cx="345" cy="3689" r="3.5" stroke="#ACD4DD"/>
<circle cx="345" cy="3738" r="3.5" stroke="#ACD4DD"/>
<circle cx="345" cy="3787" r="3.5" stroke="#ACD4DD"/>
<circle cx="345" cy="3836" r="3.5" stroke="#ACD4DD"/>
<circle cx="345" cy="3885" r="3.5" stroke="#ACD4DD"/>
<circle cx="345" cy="3934" r="3.5" stroke="#ACD4DD"/>
<circle cx="345" cy="3983" r="3.5" stroke="#ACD4DD"/>
<circle cx="345" cy="4032" r="3.5" stroke="#ACD4DD"/>
<circle cx="345" cy="553" r="3.5" stroke="#ACD4DD"/>
<circle cx="345" cy="4081" r="3.5" stroke="#ACD4DD"/>
<circle cx="196" cy="896" r="3.5" stroke="#ACD4DD"/>
<circle cx="196" cy="945" r="3.5" stroke="#ACD4DD"/>
<circle cx="196" cy="994" r="3.5" stroke="#ACD4DD"/>
<circle cx="196" cy="1043" r="3.5" stroke="#ACD4DD"/>
<circle cx="196" cy="1092" r="3.5" stroke="#ACD4DD"/>
<circle cx="196" cy="1141" r="3.5" stroke="#ACD4DD"/>
<circle cx="196" cy="1190" r="3.5" stroke="#ACD4DD"/>
<circle cx="196" cy="1239" r="3.5" stroke="#ACD4DD"/>
<circle cx="196" cy="1288" r="3.5" stroke="#ACD4DD"/>
<circle cx="196" cy="1337" r="3.5" stroke="#ACD4DD"/>
<circle cx="196" cy="1386" r="3.5" stroke="#ACD4DD"/>
<circle cx="196" cy="1435" r="3.5" stroke="#ACD4DD"/>
<circle cx="196" cy="1484" r="3.5" stroke="#ACD4DD"/>
<circle cx="196" cy="1533" r="3.5" stroke="#ACD4DD"/>
<circle cx="196" cy="1582" r="3.5" stroke="#ACD4DD"/>
<circle cx="196" cy="1631" r="3.5" stroke="#ACD4DD"/>
<circle cx="196" cy="1680" r="3.5" stroke="#ACD4DD"/>
<circle cx="196" cy="1729" r="3.5" stroke="#ACD4DD"/>
<circle cx="196" cy="1778" r="3.5" stroke="#ACD4DD"/>
<circle cx="196" cy="1827" r="3.5" stroke="#ACD4DD"/>
<circle cx="196" cy="1876" r="3.5" stroke="#ACD4DD"/>
<circle cx="196" cy="1925" r="3.5" stroke="#ACD4DD"/>
<circle cx="147" cy="896" r="3.5" stroke="#ACD4DD"/>
<circle cx="147" cy="945" r="3.5" stroke="#ACD4DD"/>
<circle cx="147" cy="994" r="3.5" stroke="#ACD4DD"/>
<circle cx="147" cy="1043" r="3.5" stroke="#ACD4DD"/>
<circle cx="147" cy="1092" r="3.5" stroke="#ACD4DD"/>
<circle cx="147" cy="1141" r="3.5" stroke="#ACD4DD"/>
<circle cx="147" cy="1190" r="3.5" stroke="#ACD4DD"/>
<circle cx="147" cy="1239" r="3.5" stroke="#ACD4DD"/>
<circle cx="147" cy="1288" r="3.5" stroke="#ACD4DD"/>
<circle cx="147" cy="1337" r="3.5" stroke="#ACD4DD"/>
<circle cx="147" cy="1386" r="3.5" stroke="#ACD4DD"/>
<circle cx="247" cy="1974" r="3.5" stroke="#ACD4DD"/>
<circle cx="247" cy="2023" r="3.5" stroke="#ACD4DD"/>
<circle cx="247" cy="2072" r="3.5" stroke="#ACD4DD"/>
<circle cx="247" cy="2121" r="3.5" stroke="#ACD4DD"/>
<circle cx="147" cy="1435" r="3.5" stroke="#ACD4DD"/>
<circle cx="247" cy="2170" r="3.5" stroke="#ACD4DD"/>
<circle cx="147" cy="1484" r="3.5" stroke="#ACD4DD"/>
<circle cx="247" cy="2219" r="3.5" stroke="#ACD4DD"/>
<circle cx="147" cy="1533" r="3.5" stroke="#ACD4DD"/>
<circle cx="247" cy="2268" r="3.5" stroke="#ACD4DD"/>
<circle cx="147" cy="1582" r="3.5" stroke="#ACD4DD"/>
<circle cx="247" cy="2317" r="3.5" stroke="#ACD4DD"/>
<circle cx="147" cy="1631" r="3.5" stroke="#ACD4DD"/>
<circle cx="247" cy="2366" r="3.5" stroke="#ACD4DD"/>
<circle cx="147" cy="1680" r="3.5" stroke="#ACD4DD"/>
<circle cx="147" cy="1729" r="3.5" stroke="#ACD4DD"/>
<circle cx="147" cy="1778" r="3.5" stroke="#ACD4DD"/>
<circle cx="147" cy="1827" r="3.5" stroke="#ACD4DD"/>
<circle cx="147" cy="1876" r="3.5" stroke="#ACD4DD"/>
<circle cx="147" cy="1925" r="3.5" stroke="#ACD4DD"/>
<circle cx="96" cy="896" r="3.5" stroke="#ACD4DD"/>
<circle cx="96" cy="945" r="3.5" stroke="#ACD4DD"/>
<circle cx="96" cy="994" r="3.5" stroke="#ACD4DD"/>
<circle cx="96" cy="1043" r="3.5" stroke="#ACD4DD"/>
<circle cx="96" cy="1092" r="3.5" stroke="#ACD4DD"/>
<circle cx="96" cy="1141" r="3.5" stroke="#ACD4DD"/>
<circle cx="96" cy="1190" r="3.5" stroke="#ACD4DD"/>
<circle cx="96" cy="1239" r="3.5" stroke="#ACD4DD"/>
<circle cx="96" cy="1288" r="3.5" stroke="#ACD4DD"/>
<circle cx="96" cy="1337" r="3.5" stroke="#ACD4DD"/>
<circle cx="96" cy="1386" r="3.5" stroke="#ACD4DD"/>
<circle cx="96" cy="1435" r="3.5" stroke="#ACD4DD"/>
<circle cx="96" cy="1484" r="3.5" stroke="#ACD4DD"/>
<circle cx="247" cy="2415" r="3.5" stroke="#ACD4DD"/>
<circle cx="247" cy="2464" r="3.5" stroke="#ACD4DD"/>
<circle cx="96" cy="1533" r="3.5" stroke="#ACD4DD"/>
<circle cx="247" cy="2513" r="3.5" stroke="#ACD4DD"/>
<circle cx="247" cy="2562" r="3.5" stroke="#ACD4DD"/>
<circle cx="247" cy="2611" r="3.5" stroke="#ACD4DD"/>
<circle cx="247" cy="2660" r="3.5" stroke="#ACD4DD"/>
<circle cx="247" cy="2709" r="3.5" stroke="#ACD4DD"/>
<circle cx="96" cy="1582" r="3.5" stroke="#ACD4DD"/>
<circle cx="247" cy="2758" r="3.5" stroke="#ACD4DD"/>
<circle cx="247" cy="2807" r="3.5" stroke="#ACD4DD"/>
<circle cx="247" cy="2856" r="3.5" stroke="#ACD4DD"/>
<circle cx="247" cy="2905" r="3.5" stroke="#ACD4DD"/>
<circle cx="247" cy="2954" r="3.5" stroke="#ACD4DD"/>
<circle cx="96" cy="1631" r="3.5" stroke="#ACD4DD"/>
<circle cx="96" cy="1680" r="3.5" stroke="#ACD4DD"/>
<circle cx="96" cy="1729" r="3.5" stroke="#ACD4DD"/>
<circle cx="247" cy="3003" r="3.5" stroke="#ACD4DD"/>
<circle cx="96" cy="1778" r="3.5" stroke="#ACD4DD"/>
<circle cx="96" cy="1827" r="3.5" stroke="#ACD4DD"/>
<circle cx="96" cy="1876" r="3.5" stroke="#ACD4DD"/>
<circle cx="247" cy="153" r="3.5" stroke="#ACD4DD"/>
<circle cx="247" cy="102" r="3.5" stroke="#ACD4DD"/>
<circle cx="196" cy="153" r="3.5" stroke="#ACD4DD"/>
<circle cx="247" cy="253" r="3.5" stroke="#ACD4DD"/>
<circle cx="247" cy="302" r="3.5" stroke="#ACD4DD"/>
<circle cx="96" cy="1925" r="3.5" stroke="#ACD4DD"/>
<circle cx="247" cy="202" r="3.5" stroke="#ACD4DD"/>
<circle cx="247" cy="402" r="3.5" stroke="#ACD4DD"/>
<circle cx="247" cy="353" r="3.5" stroke="#ACD4DD"/>
<circle cx="196" cy="1974" r="3.5" stroke="#ACD4DD"/>
<circle cx="196" cy="2023" r="3.5" stroke="#ACD4DD"/>
<circle cx="196" cy="2072" r="3.5" stroke="#ACD4DD"/>
<circle cx="196" cy="2121" r="3.5" stroke="#ACD4DD"/>
<circle cx="196" cy="2170" r="3.5" stroke="#ACD4DD"/>
<circle cx="196" cy="2219" r="3.5" stroke="#ACD4DD"/>
<circle cx="196" cy="2268" r="3.5" stroke="#ACD4DD"/>
<circle cx="196" cy="2317" r="3.5" stroke="#ACD4DD"/>
<circle cx="196" cy="2366" r="3.5" stroke="#ACD4DD"/>
<circle cx="196" cy="2415" r="3.5" stroke="#ACD4DD"/>
<circle cx="196" cy="2464" r="3.5" stroke="#ACD4DD"/>
<circle cx="196" cy="2513" r="3.5" stroke="#ACD4DD"/>
<circle cx="196" cy="2562" r="3.5" stroke="#ACD4DD"/>
<circle cx="196" cy="2611" r="3.5" stroke="#ACD4DD"/>
<circle cx="196" cy="2660" r="3.5" stroke="#ACD4DD"/>
<circle cx="196" cy="2709" r="3.5" stroke="#ACD4DD"/>
<circle cx="196" cy="2758" r="3.5" stroke="#ACD4DD"/>
<circle cx="196" cy="2807" r="3.5" stroke="#ACD4DD"/>
<circle cx="196" cy="2856" r="3.5" stroke="#ACD4DD"/>
<circle cx="196" cy="2905" r="3.5" stroke="#ACD4DD"/>
<circle cx="196" cy="2954" r="3.5" stroke="#ACD4DD"/>
<circle cx="247" cy="602" r="3.5" stroke="#ACD4DD"/>
<circle cx="247" cy="651" r="3.5" stroke="#ACD4DD"/>
<circle cx="247" cy="700" r="3.5" stroke="#ACD4DD"/>
<circle cx="247" cy="749" r="3.5" stroke="#ACD4DD"/>
<circle cx="196" cy="3003" r="3.5" stroke="#ACD4DD"/>
<circle cx="247" cy="798" r="3.5" stroke="#ACD4DD"/>
<circle cx="247" cy="847" r="3.5" stroke="#ACD4DD"/>
<circle cx="247" cy="3052" r="3.5" stroke="#ACD4DD"/>
<circle cx="247" cy="3101" r="3.5" stroke="#ACD4DD"/>
<circle cx="247" cy="3150" r="3.5" stroke="#ACD4DD"/>
<circle cx="247" cy="3199" r="3.5" stroke="#ACD4DD"/>
<circle cx="47" cy="896" r="3.5" stroke="#ACD4DD"/>
<circle cx="247" cy="3248" r="3.5" stroke="#ACD4DD"/>
<circle cx="47" cy="945" r="3.5" stroke="#ACD4DD"/>
<circle cx="247" cy="3297" r="3.5" stroke="#ACD4DD"/>
<circle cx="47" cy="994" r="3.5" stroke="#ACD4DD"/>
<circle cx="247" cy="3346" r="3.5" stroke="#ACD4DD"/>
<circle cx="47" cy="1043" r="3.5" stroke="#ACD4DD"/>
<circle cx="147" cy="1974" r="3.5" stroke="#ACD4DD"/>
<circle cx="147" cy="2023" r="3.5" stroke="#ACD4DD"/>
<circle cx="147" cy="2072" r="3.5" stroke="#ACD4DD"/>
<circle cx="147" cy="2121" r="3.5" stroke="#ACD4DD"/>
<circle cx="147" cy="2170" r="3.5" stroke="#ACD4DD"/>
<circle cx="147" cy="2219" r="3.5" stroke="#ACD4DD"/>
<circle cx="147" cy="2268" r="3.5" stroke="#ACD4DD"/>
<circle cx="147" cy="2317" r="3.5" stroke="#ACD4DD"/>
<circle cx="147" cy="2366" r="3.5" stroke="#ACD4DD"/>
<circle cx="147" cy="2415" r="3.5" stroke="#ACD4DD"/>
<circle cx="147" cy="2464" r="3.5" stroke="#ACD4DD"/>
<circle cx="147" cy="2513" r="3.5" stroke="#ACD4DD"/>
<circle cx="147" cy="2562" r="3.5" stroke="#ACD4DD"/>
<circle cx="147" cy="2611" r="3.5" stroke="#ACD4DD"/>
<circle cx="147" cy="2660" r="3.5" stroke="#ACD4DD"/>
<circle cx="147" cy="2709" r="3.5" stroke="#ACD4DD"/>
<circle cx="147" cy="2758" r="3.5" stroke="#ACD4DD"/>
<circle cx="147" cy="2807" r="3.5" stroke="#ACD4DD"/>
<circle cx="147" cy="2856" r="3.5" stroke="#ACD4DD"/>
<circle cx="147" cy="2905" r="3.5" stroke="#ACD4DD"/>
<circle cx="147" cy="2954" r="3.5" stroke="#ACD4DD"/>
<circle cx="247" cy="3395" r="3.5" stroke="#ACD4DD"/>
<circle cx="47" cy="1092" r="3.5" stroke="#ACD4DD"/>
<circle cx="247" cy="3444" r="3.5" stroke="#ACD4DD"/>
<circle cx="47" cy="1141" r="3.5" stroke="#ACD4DD"/>
<circle cx="147" cy="3003" r="3.5" stroke="#ACD4DD"/>
<circle cx="47" cy="1190" r="3.5" stroke="#ACD4DD"/>
<circle cx="47" cy="1239" r="3.5" stroke="#ACD4DD"/>
<circle cx="47" cy="1288" r="3.5" stroke="#ACD4DD"/>
<circle cx="47" cy="1337" r="3.5" stroke="#ACD4DD"/>
<circle cx="47" cy="1386" r="3.5" stroke="#ACD4DD"/>
<circle cx="47" cy="1435" r="3.5" stroke="#ACD4DD"/>
<circle cx="47" cy="1484" r="3.5" stroke="#ACD4DD"/>
<circle cx="96" cy="1974" r="3.5" stroke="#ACD4DD"/>
<circle cx="96" cy="2023" r="3.5" stroke="#ACD4DD"/>
<circle cx="96" cy="2072" r="3.5" stroke="#ACD4DD"/>
<circle cx="96" cy="2121" r="3.5" stroke="#ACD4DD"/>
<circle cx="96" cy="2170" r="3.5" stroke="#ACD4DD"/>
<circle cx="96" cy="2219" r="3.5" stroke="#ACD4DD"/>
<circle cx="96" cy="2268" r="3.5" stroke="#ACD4DD"/>
<circle cx="96" cy="2317" r="3.5" stroke="#ACD4DD"/>
<circle cx="96" cy="2366" r="3.5" stroke="#ACD4DD"/>
<circle cx="96" cy="2415" r="3.5" stroke="#ACD4DD"/>
<circle cx="96" cy="2464" r="3.5" stroke="#ACD4DD"/>
<circle cx="96" cy="2513" r="3.5" stroke="#ACD4DD"/>
<circle cx="96" cy="2562" r="3.5" stroke="#ACD4DD"/>
<circle cx="96" cy="2611" r="3.5" stroke="#ACD4DD"/>
<circle cx="96" cy="2660" r="3.5" stroke="#ACD4DD"/>
<circle cx="96" cy="2709" r="3.5" stroke="#ACD4DD"/>
<circle cx="96" cy="2758" r="3.5" stroke="#ACD4DD"/>
<circle cx="96" cy="2807" r="3.5" stroke="#ACD4DD"/>
<circle cx="96" cy="2856" r="3.5" stroke="#ACD4DD"/>
<circle cx="96" cy="2905" r="3.5" stroke="#ACD4DD"/>
<circle cx="96" cy="2954" r="3.5" stroke="#ACD4DD"/>
<circle cx="47" cy="1533" r="3.5" stroke="#ACD4DD"/>
<circle cx="47" cy="1582" r="3.5" stroke="#ACD4DD"/>
<circle cx="47" cy="1631" r="3.5" stroke="#ACD4DD"/>
<circle cx="96" cy="3003" r="3.5" stroke="#ACD4DD"/>
<circle cx="47" cy="1680" r="3.5" stroke="#ACD4DD"/>
<circle cx="47" cy="1729" r="3.5" stroke="#ACD4DD"/>
<circle cx="47" cy="1778" r="3.5" stroke="#ACD4DD"/>
<circle cx="47" cy="1827" r="3.5" stroke="#ACD4DD"/>
<circle cx="47" cy="1876" r="3.5" stroke="#ACD4DD"/>
<circle cx="47" cy="1974" r="3.5" stroke="#ACD4DD"/>
<circle cx="47" cy="2023" r="3.5" stroke="#ACD4DD"/>
<circle cx="47" cy="2072" r="3.5" stroke="#ACD4DD"/>
<circle cx="47" cy="2121" r="3.5" stroke="#ACD4DD"/>
<circle cx="247" cy="3493" r="3.5" stroke="#ACD4DD"/>
<circle cx="47" cy="2170" r="3.5" stroke="#ACD4DD"/>
<circle cx="247" cy="3542" r="3.5" stroke="#ACD4DD"/>
<circle cx="47" cy="2219" r="3.5" stroke="#ACD4DD"/>
<circle cx="47" cy="2268" r="3.5" stroke="#ACD4DD"/>
<circle cx="47" cy="2317" r="3.5" stroke="#ACD4DD"/>
<circle cx="47" cy="2366" r="3.5" stroke="#ACD4DD"/>
<circle cx="47" cy="2415" r="3.5" stroke="#ACD4DD"/>
<circle cx="47" cy="2464" r="3.5" stroke="#ACD4DD"/>
<circle cx="47" cy="2513" r="3.5" stroke="#ACD4DD"/>
<circle cx="47" cy="2562" r="3.5" stroke="#ACD4DD"/>
<circle cx="47" cy="2611" r="3.5" stroke="#ACD4DD"/>
<circle cx="47" cy="2660" r="3.5" stroke="#ACD4DD"/>
<circle cx="47" cy="2709" r="3.5" stroke="#ACD4DD"/>
<circle cx="47" cy="2758" r="3.5" stroke="#ACD4DD"/>
<circle cx="47" cy="2807" r="3.5" stroke="#ACD4DD"/>
<circle cx="47" cy="2856" r="3.5" stroke="#ACD4DD"/>
<circle cx="47" cy="2905" r="3.5" stroke="#ACD4DD"/>
<circle cx="47" cy="2954" r="3.5" stroke="#ACD4DD"/>
<circle cx="47" cy="1925" r="3.5" stroke="#ACD4DD"/>
<circle cx="247" cy="3591" r="3.5" stroke="#ACD4DD"/>
<circle cx="47" cy="3003" r="3.5" stroke="#ACD4DD"/>
<circle cx="247" cy="3640" r="3.5" stroke="#ACD4DD"/>
<circle cx="247" cy="3689" r="3.5" stroke="#ACD4DD"/>
<circle cx="247" cy="3738" r="3.5" stroke="#ACD4DD"/>
<circle cx="247" cy="3787" r="3.5" stroke="#ACD4DD"/>
<circle cx="247" cy="3836" r="3.5" stroke="#ACD4DD"/>
<circle cx="247" cy="3885" r="3.5" stroke="#ACD4DD"/>
<circle cx="247" cy="3934" r="3.5" stroke="#ACD4DD"/>
<circle cx="247" cy="3983" r="3.5" stroke="#ACD4DD"/>
<circle cx="247" cy="4032" r="3.5" stroke="#ACD4DD"/>
<circle cx="247" cy="502" r="3.5" stroke="#ACD4DD"/>
<circle cx="247" cy="453" r="3.5" stroke="#ACD4DD"/>
<circle cx="247" cy="553" r="3.5" stroke="#ACD4DD"/>
<circle cx="247" cy="4081" r="3.5" stroke="#ACD4DD"/>
<circle cx="147" cy="153" r="3.5" stroke="#ACD4DD"/>
<circle cx="196" cy="102" r="3.5" stroke="#ACD4DD"/>
<circle cx="196" cy="253" r="3.5" stroke="#ACD4DD"/>
<circle cx="196" cy="302" r="3.5" stroke="#ACD4DD"/>
<circle cx="96" cy="153" r="3.5" stroke="#ACD4DD"/>
<circle cx="196" cy="402" r="3.5" stroke="#ACD4DD"/>
<circle cx="196" cy="202" r="3.5" stroke="#ACD4DD"/>
<circle cx="196" cy="602" r="3.5" stroke="#ACD4DD"/>
<circle cx="196" cy="651" r="3.5" stroke="#ACD4DD"/>
<circle cx="196" cy="700" r="3.5" stroke="#ACD4DD"/>
<circle cx="196" cy="749" r="3.5" stroke="#ACD4DD"/>
<circle cx="196" cy="798" r="3.5" stroke="#ACD4DD"/>
<circle cx="196" cy="847" r="3.5" stroke="#ACD4DD"/>
<circle cx="196" cy="3052" r="3.5" stroke="#ACD4DD"/>
<circle cx="196" cy="3101" r="3.5" stroke="#ACD4DD"/>
<circle cx="196" cy="3150" r="3.5" stroke="#ACD4DD"/>
<circle cx="196" cy="3199" r="3.5" stroke="#ACD4DD"/>
<circle cx="196" cy="3248" r="3.5" stroke="#ACD4DD"/>
<circle cx="196" cy="3297" r="3.5" stroke="#ACD4DD"/>
<circle cx="196" cy="3346" r="3.5" stroke="#ACD4DD"/>
<circle cx="196" cy="3395" r="3.5" stroke="#ACD4DD"/>
<circle cx="196" cy="3444" r="3.5" stroke="#ACD4DD"/>
<circle cx="196" cy="3493" r="3.5" stroke="#ACD4DD"/>
<circle cx="196" cy="3542" r="3.5" stroke="#ACD4DD"/>
<circle cx="196" cy="3591" r="3.5" stroke="#ACD4DD"/>
<circle cx="196" cy="3640" r="3.5" stroke="#ACD4DD"/>
<circle cx="196" cy="3689" r="3.5" stroke="#ACD4DD"/>
<circle cx="196" cy="3738" r="3.5" stroke="#ACD4DD"/>
<circle cx="196" cy="3787" r="3.5" stroke="#ACD4DD"/>
<circle cx="196" cy="3836" r="3.5" stroke="#ACD4DD"/>
<circle cx="196" cy="3885" r="3.5" stroke="#ACD4DD"/>
<circle cx="196" cy="3934" r="3.5" stroke="#ACD4DD"/>
<circle cx="196" cy="3983" r="3.5" stroke="#ACD4DD"/>
<circle cx="196" cy="4032" r="3.5" stroke="#ACD4DD"/>
<circle cx="196" cy="502" r="3.5" stroke="#ACD4DD"/>
<circle cx="196" cy="353" r="3.5" stroke="#ACD4DD"/>
<circle cx="196" cy="453" r="3.5" stroke="#ACD4DD"/>
<circle cx="196" cy="553" r="3.5" stroke="#ACD4DD"/>
<circle cx="196" cy="4081" r="3.5" stroke="#ACD4DD"/>
<circle cx="47" cy="153" r="3.5" stroke="#ACD4DD"/>
<circle cx="147" cy="253" r="3.5" stroke="#ACD4DD"/>
<circle cx="147" cy="102" r="3.5" stroke="#ACD4DD"/>
<circle cx="147" cy="302" r="3.5" stroke="#ACD4DD"/>
<circle cx="147" cy="402" r="3.5" stroke="#ACD4DD"/>
<circle cx="96" cy="253" r="3.5" stroke="#ACD4DD"/>
<circle cx="147" cy="602" r="3.5" stroke="#ACD4DD"/>
<circle cx="147" cy="651" r="3.5" stroke="#ACD4DD"/>
<circle cx="147" cy="700" r="3.5" stroke="#ACD4DD"/>
<circle cx="147" cy="749" r="3.5" stroke="#ACD4DD"/>
<circle cx="147" cy="798" r="3.5" stroke="#ACD4DD"/>
<circle cx="147" cy="847" r="3.5" stroke="#ACD4DD"/>
<circle cx="147" cy="3052" r="3.5" stroke="#ACD4DD"/>
<circle cx="147" cy="3101" r="3.5" stroke="#ACD4DD"/>
<circle cx="147" cy="3150" r="3.5" stroke="#ACD4DD"/>
<circle cx="147" cy="3199" r="3.5" stroke="#ACD4DD"/>
<circle cx="147" cy="3248" r="3.5" stroke="#ACD4DD"/>
<circle cx="147" cy="3297" r="3.5" stroke="#ACD4DD"/>
<circle cx="147" cy="3346" r="3.5" stroke="#ACD4DD"/>
<circle cx="147" cy="3395" r="3.5" stroke="#ACD4DD"/>
<circle cx="147" cy="3444" r="3.5" stroke="#ACD4DD"/>
<circle cx="147" cy="3493" r="3.5" stroke="#ACD4DD"/>
<circle cx="147" cy="3542" r="3.5" stroke="#ACD4DD"/>
<circle cx="147" cy="3591" r="3.5" stroke="#ACD4DD"/>
<circle cx="147" cy="3640" r="3.5" stroke="#ACD4DD"/>
<circle cx="147" cy="3689" r="3.5" stroke="#ACD4DD"/>
<circle cx="147" cy="3738" r="3.5" stroke="#ACD4DD"/>
<circle cx="147" cy="3787" r="3.5" stroke="#ACD4DD"/>
<circle cx="147" cy="3836" r="3.5" stroke="#ACD4DD"/>
<circle cx="147" cy="3885" r="3.5" stroke="#ACD4DD"/>
<circle cx="147" cy="3934" r="3.5" stroke="#ACD4DD"/>
<circle cx="147" cy="3983" r="3.5" stroke="#ACD4DD"/>
<circle cx="147" cy="4032" r="3.5" stroke="#ACD4DD"/>
<circle cx="147" cy="502" r="3.5" stroke="#ACD4DD"/>
<circle cx="147" cy="202" r="3.5" stroke="#ACD4DD"/>
<circle cx="147" cy="353" r="3.5" stroke="#ACD4DD"/>
<circle cx="147" cy="453" r="3.5" stroke="#ACD4DD"/>
<circle cx="147" cy="553" r="3.5" stroke="#ACD4DD"/>
<circle cx="147" cy="4081" r="3.5" stroke="#ACD4DD"/>
<circle cx="96" cy="302" r="3.5" stroke="#ACD4DD"/>
<circle cx="47" cy="253" r="3.5" stroke="#ACD4DD"/>
<circle cx="96" cy="102" r="3.5" stroke="#ACD4DD"/>
<circle cx="47" cy="302" r="3.5" stroke="#ACD4DD"/>
<circle cx="96" cy="402" r="3.5" stroke="#ACD4DD"/>
<circle cx="96" cy="202" r="3.5" stroke="#ACD4DD"/>
<circle cx="96" cy="602" r="3.5" stroke="#ACD4DD"/>
<circle cx="96" cy="651" r="3.5" stroke="#ACD4DD"/>
<circle cx="96" cy="700" r="3.5" stroke="#ACD4DD"/>
<circle cx="96" cy="749" r="3.5" stroke="#ACD4DD"/>
<circle cx="96" cy="798" r="3.5" stroke="#ACD4DD"/>
<circle cx="96" cy="847" r="3.5" stroke="#ACD4DD"/>
<circle cx="96" cy="3052" r="3.5" stroke="#ACD4DD"/>
<circle cx="96" cy="3101" r="3.5" stroke="#ACD4DD"/>
<circle cx="96" cy="3150" r="3.5" stroke="#ACD4DD"/>
<circle cx="96" cy="3199" r="3.5" stroke="#ACD4DD"/>
<circle cx="96" cy="3248" r="3.5" stroke="#ACD4DD"/>
<circle cx="96" cy="3297" r="3.5" stroke="#ACD4DD"/>
<circle cx="96" cy="3346" r="3.5" stroke="#ACD4DD"/>
<circle cx="96" cy="3395" r="3.5" stroke="#ACD4DD"/>
<circle cx="96" cy="3444" r="3.5" stroke="#ACD4DD"/>
<circle cx="96" cy="3493" r="3.5" stroke="#ACD4DD"/>
<circle cx="96" cy="3542" r="3.5" stroke="#ACD4DD"/>
<circle cx="96" cy="3591" r="3.5" stroke="#ACD4DD"/>
<circle cx="96" cy="3640" r="3.5" stroke="#ACD4DD"/>
<circle cx="96" cy="3689" r="3.5" stroke="#ACD4DD"/>
<circle cx="96" cy="3738" r="3.5" stroke="#ACD4DD"/>
<circle cx="96" cy="3787" r="3.5" stroke="#ACD4DD"/>
<circle cx="96" cy="3836" r="3.5" stroke="#ACD4DD"/>
<circle cx="96" cy="3885" r="3.5" stroke="#ACD4DD"/>
<circle cx="96" cy="3934" r="3.5" stroke="#ACD4DD"/>
<circle cx="96" cy="3983" r="3.5" stroke="#ACD4DD"/>
<circle cx="96" cy="4032" r="3.5" stroke="#ACD4DD"/>
<circle cx="96" cy="502" r="3.5" stroke="#ACD4DD"/>
<circle cx="47" cy="402" r="3.5" stroke="#ACD4DD"/>
<circle cx="96" cy="353" r="3.5" stroke="#ACD4DD"/>
<circle cx="96" cy="453" r="3.5" stroke="#ACD4DD"/>
<circle cx="96" cy="553" r="3.5" stroke="#ACD4DD"/>
<circle cx="96" cy="4081" r="3.5" stroke="#ACD4DD"/>
<circle cx="47" cy="502" r="3.5" stroke="#ACD4DD"/>
<circle cx="47" cy="602" r="3.5" stroke="#ACD4DD"/>
<circle cx="47" cy="102" r="3.5" stroke="#ACD4DD"/>
<circle cx="47" cy="651" r="3.5" stroke="#ACD4DD"/>
<circle cx="47" cy="700" r="3.5" stroke="#ACD4DD"/>
<circle cx="47" cy="202" r="3.5" stroke="#ACD4DD"/>
<circle cx="47" cy="749" r="3.5" stroke="#ACD4DD"/>
<circle cx="47" cy="353" r="3.5" stroke="#ACD4DD"/>
<circle cx="47" cy="798" r="3.5" stroke="#ACD4DD"/>
<circle cx="47" cy="847" r="3.5" stroke="#ACD4DD"/>
<circle cx="47" cy="3052" r="3.5" stroke="#ACD4DD"/>
<circle cx="47" cy="3101" r="3.5" stroke="#ACD4DD"/>
<circle cx="47" cy="3150" r="3.5" stroke="#ACD4DD"/>
<circle cx="47" cy="3199" r="3.5" stroke="#ACD4DD"/>
<circle cx="47" cy="3248" r="3.5" stroke="#ACD4DD"/>
<circle cx="47" cy="3297" r="3.5" stroke="#ACD4DD"/>
<circle cx="47" cy="3346" r="3.5" stroke="#ACD4DD"/>
<circle cx="47" cy="3395" r="3.5" stroke="#ACD4DD"/>
<circle cx="47" cy="3444" r="3.5" stroke="#ACD4DD"/>
<circle cx="47" cy="3493" r="3.5" stroke="#ACD4DD"/>
<circle cx="47" cy="3542" r="3.5" stroke="#ACD4DD"/>
<circle cx="47" cy="3591" r="3.5" stroke="#ACD4DD"/>
<circle cx="47" cy="3640" r="3.5" stroke="#ACD4DD"/>
<circle cx="47" cy="3689" r="3.5" stroke="#ACD4DD"/>
<circle cx="47" cy="3738" r="3.5" stroke="#ACD4DD"/>
<circle cx="47" cy="3787" r="3.5" stroke="#ACD4DD"/>
<circle cx="47" cy="3836" r="3.5" stroke="#ACD4DD"/>
<circle cx="47" cy="3885" r="3.5" stroke="#ACD4DD"/>
<circle cx="47" cy="3934" r="3.5" stroke="#ACD4DD"/>
<circle cx="47" cy="3983" r="3.5" stroke="#ACD4DD"/>
<circle cx="47" cy="4032" r="3.5" stroke="#ACD4DD"/>
<circle cx="47" cy="453" r="3.5" stroke="#ACD4DD"/>
<circle cx="47" cy="553" r="3.5" stroke="#ACD4DD"/>
<circle cx="47" cy="4081" r="3.5" stroke="#ACD4DD"/>
</g>
<defs>
<filter id="filter0_b_380_767" x="-4" y="-4" width="398" height="6102" filterUnits="userSpaceOnUse" color-interpolation-filters="sRGB">
<feFlood flood-opacity="0" result="BackgroundImageFix"/>
<feGaussianBlur in="BackgroundImageFix" stdDeviation="2"/>
<feComposite in2="SourceAlpha" operator="in" result="effect1_backgroundBlur_380_767"/>
<feBlend mode="normal" in="SourceGraphic" in2="effect1_backgroundBlur_380_767" result="shape"/>
</filter>
<clipPath id="clip0_380_767">
<rect width="390" height="6094" fill="white"/>
</clipPath>
</defs>
</svg>
