<svg width="420" height="226" viewBox="0 0 420 226" fill="none" xmlns="http://www.w3.org/2000/svg">
<rect width="420" height="226" fill="#F1FDFB"/>
<circle cx="321.416" cy="126.537" r="2.22621" transform="rotate(90 321.416 126.537)" fill="#59D7FF"/>
<circle cx="321.416" cy="154.143" r="2.22621" transform="rotate(90 321.416 154.143)" fill="#59D7FF"/>
<circle cx="321.416" cy="182.226" r="2.22621" transform="rotate(90 321.416 182.226)" fill="#59D7FF"/>
<circle cx="321.416" cy="209.833" r="2.22621" transform="rotate(90 321.416 209.833)" fill="#59D7FF"/>
<circle cx="321.416" cy="99.2663" r="2.22621" transform="rotate(90 321.416 99.2663)" fill="#59D7FF"/>
<circle cx="348.869" cy="126.537" r="2.22621" transform="rotate(90 348.869 126.537)" fill="#59D7FF"/>
<circle cx="376.321" cy="126.537" r="2.22621" transform="rotate(90 376.321 126.537)" fill="#59D7FF"/>
<circle cx="403.774" cy="126.537" r="2.22621" transform="rotate(90 403.774 126.537)" fill="#59D7FF"/>
<circle cx="321.416" cy="70.8815" r="2.22621" transform="rotate(90 321.416 70.8815)" fill="#59D7FF"/>
<circle cx="348.869" cy="154.143" r="2.22621" transform="rotate(90 348.869 154.143)" fill="#59D7FF"/>
<circle cx="376.321" cy="154.143" r="2.22621" transform="rotate(90 376.321 154.143)" fill="#59D7FF"/>
<circle cx="403.774" cy="154.143" r="2.22621" transform="rotate(90 403.774 154.143)" fill="#59D7FF"/>
<circle cx="321.416" cy="43.611" r="2.22621" transform="rotate(90 321.416 43.611)" fill="#59D7FF"/>
<circle cx="348.869" cy="182.226" r="2.22621" transform="rotate(90 348.869 182.226)" fill="#59D7FF"/>
<circle cx="376.321" cy="182.226" r="2.22621" transform="rotate(90 376.321 182.226)" fill="#59D7FF"/>
<circle cx="403.774" cy="182.226" r="2.22621" transform="rotate(90 403.774 182.226)" fill="#59D7FF"/>
<circle cx="321.416" cy="15.2262" r="2.22621" transform="rotate(90 321.416 15.2262)" fill="#59D7FF"/>
<circle cx="348.869" cy="209.833" r="2.22621" transform="rotate(90 348.869 209.833)" fill="#59D7FF"/>
<circle cx="376.321" cy="209.833" r="2.22621" transform="rotate(90 376.321 209.833)" fill="#59D7FF"/>
<circle cx="403.774" cy="209.833" r="2.22621" transform="rotate(90 403.774 209.833)" fill="#59D7FF"/>
<circle cx="265.761" cy="126.537" r="2.22621" transform="rotate(90 265.761 126.537)" fill="#59D7FF"/>
<circle cx="348.869" cy="99.2663" r="2.22621" transform="rotate(90 348.869 99.2663)" fill="#59D7FF"/>
<circle cx="294.145" cy="126.537" r="2.22621" transform="rotate(90 294.145 126.537)" fill="#59D7FF"/>
<circle cx="210.106" cy="126.537" r="2.22621" transform="rotate(90 210.106 126.537)" fill="#59D7FF"/>
<circle cx="182.835" cy="126.537" r="2.22621" transform="rotate(90 182.835 126.537)" fill="#59D7FF"/>
<circle cx="376.321" cy="99.2663" r="2.22621" transform="rotate(90 376.321 99.2663)" fill="#59D7FF"/>
<circle cx="127.18" cy="126.537" r="2.22621" transform="rotate(90 127.18 126.537)" fill="#59D7FF"/>
<circle cx="238.49" cy="126.537" r="2.22621" transform="rotate(90 238.49 126.537)" fill="#59D7FF"/>
<circle cx="71.5244" cy="126.537" r="2.22621" transform="rotate(90 71.5244 126.537)" fill="#59D7FF"/>
<circle cx="154.451" cy="126.537" r="2.22621" transform="rotate(90 154.451 126.537)" fill="#59D7FF"/>
<circle cx="98.7955" cy="126.537" r="2.22621" transform="rotate(90 98.7955 126.537)" fill="#59D7FF"/>
<circle cx="43.1401" cy="126.537" r="2.22621" transform="rotate(90 43.1401 126.537)" fill="#59D7FF"/>
<circle cx="15.8691" cy="126.537" r="2.22621" transform="rotate(90 15.8691 126.537)" fill="#59D7FF"/>
<circle cx="403.774" cy="99.2663" r="2.22621" transform="rotate(90 403.774 99.2663)" fill="#59D7FF"/>
<circle cx="348.869" cy="70.8815" r="2.22621" transform="rotate(90 348.869 70.8815)" fill="#59D7FF"/>
<circle cx="265.761" cy="154.143" r="2.22621" transform="rotate(90 265.761 154.143)" fill="#59D7FF"/>
<circle cx="376.321" cy="70.8815" r="2.22621" transform="rotate(90 376.321 70.8815)" fill="#59D7FF"/>
<circle cx="294.145" cy="154.143" r="2.22621" transform="rotate(90 294.145 154.143)" fill="#59D7FF"/>
<circle cx="210.106" cy="154.143" r="2.22621" transform="rotate(90 210.106 154.143)" fill="#59D7FF"/>
<circle cx="182.835" cy="154.143" r="2.22621" transform="rotate(90 182.835 154.143)" fill="#59D7FF"/>
<circle cx="403.774" cy="70.8815" r="2.22621" transform="rotate(90 403.774 70.8815)" fill="#59D7FF"/>
<circle cx="127.18" cy="154.143" r="2.22621" transform="rotate(90 127.18 154.143)" fill="#59D7FF"/>
<circle cx="238.49" cy="154.143" r="2.22621" transform="rotate(90 238.49 154.143)" fill="#59D7FF"/>
<circle cx="71.5244" cy="154.143" r="2.22621" transform="rotate(90 71.5244 154.143)" fill="#59D7FF"/>
<circle cx="154.451" cy="154.143" r="2.22621" transform="rotate(90 154.451 154.143)" fill="#59D7FF"/>
<circle cx="98.7955" cy="154.143" r="2.22621" transform="rotate(90 98.7955 154.143)" fill="#59D7FF"/>
<circle cx="43.1401" cy="154.143" r="2.22621" transform="rotate(90 43.1401 154.143)" fill="#59D7FF"/>
<circle cx="15.8691" cy="154.143" r="2.22621" transform="rotate(90 15.8691 154.143)" fill="#59D7FF"/>
<circle cx="348.869" cy="43.611" r="2.22621" transform="rotate(90 348.869 43.611)" fill="#59D7FF"/>
<circle cx="376.321" cy="43.611" r="2.22621" transform="rotate(90 376.321 43.611)" fill="#59D7FF"/>
<circle cx="265.761" cy="182.226" r="2.22621" transform="rotate(90 265.761 182.226)" fill="#59D7FF"/>
<circle cx="403.774" cy="43.611" r="2.22621" transform="rotate(90 403.774 43.611)" fill="#59D7FF"/>
<circle cx="294.145" cy="182.226" r="2.22621" transform="rotate(90 294.145 182.226)" fill="#59D7FF"/>
<circle cx="210.106" cy="182.226" r="2.22621" transform="rotate(90 210.106 182.226)" fill="#59D7FF"/>
<circle cx="182.835" cy="182.226" r="2.22621" transform="rotate(90 182.835 182.226)" fill="#59D7FF"/>
<circle cx="348.869" cy="15.2262" r="2.22621" transform="rotate(90 348.869 15.2262)" fill="#59D7FF"/>
<circle cx="127.18" cy="182.226" r="2.22621" transform="rotate(90 127.18 182.226)" fill="#59D7FF"/>
<circle cx="238.49" cy="182.226" r="2.22621" transform="rotate(90 238.49 182.226)" fill="#59D7FF"/>
<circle cx="71.5244" cy="182.226" r="2.22621" transform="rotate(90 71.5244 182.226)" fill="#59D7FF"/>
<circle cx="154.451" cy="182.226" r="2.22621" transform="rotate(90 154.451 182.226)" fill="#59D7FF"/>
<circle cx="98.7955" cy="182.226" r="2.22621" transform="rotate(90 98.7955 182.226)" fill="#59D7FF"/>
<circle cx="43.1401" cy="182.226" r="2.22621" transform="rotate(90 43.1401 182.226)" fill="#59D7FF"/>
<circle cx="15.8691" cy="182.226" r="2.22621" transform="rotate(90 15.8691 182.226)" fill="#59D7FF"/>
<circle cx="376.321" cy="15.2262" r="2.22621" transform="rotate(90 376.321 15.2262)" fill="#59D7FF"/>
<circle cx="403.774" cy="15.2262" r="2.22621" transform="rotate(90 403.774 15.2262)" fill="#59D7FF"/>
<circle cx="265.761" cy="209.833" r="2.22621" transform="rotate(90 265.761 209.833)" fill="#59D7FF"/>
<circle cx="265.761" cy="99.2663" r="2.22621" transform="rotate(90 265.761 99.2663)" fill="#59D7FF"/>
<circle cx="294.145" cy="209.833" r="2.22621" transform="rotate(90 294.145 209.833)" fill="#59D7FF"/>
<circle cx="210.106" cy="209.833" r="2.22621" transform="rotate(90 210.106 209.833)" fill="#59D7FF"/>
<circle cx="182.835" cy="209.833" r="2.22621" transform="rotate(90 182.835 209.833)" fill="#59D7FF"/>
<circle cx="265.761" cy="70.8815" r="2.22621" transform="rotate(90 265.761 70.8815)" fill="#59D7FF"/>
<circle cx="127.18" cy="209.833" r="2.22621" transform="rotate(90 127.18 209.833)" fill="#59D7FF"/>
<circle cx="238.49" cy="209.833" r="2.22621" transform="rotate(90 238.49 209.833)" fill="#59D7FF"/>
<circle cx="71.5244" cy="209.833" r="2.22621" transform="rotate(90 71.5244 209.833)" fill="#59D7FF"/>
<circle cx="154.451" cy="209.833" r="2.22621" transform="rotate(90 154.451 209.833)" fill="#59D7FF"/>
<circle cx="98.7955" cy="209.833" r="2.22621" transform="rotate(90 98.7955 209.833)" fill="#59D7FF"/>
<circle cx="43.1401" cy="209.833" r="2.22621" transform="rotate(90 43.1401 209.833)" fill="#59D7FF"/>
<circle cx="15.8691" cy="209.833" r="2.22621" transform="rotate(90 15.8691 209.833)" fill="#59D7FF"/>
<circle cx="265.761" cy="43.611" r="2.22621" transform="rotate(90 265.761 43.611)" fill="#59D7FF"/>
<circle cx="210.106" cy="99.2653" r="2.22621" transform="rotate(90 210.106 99.2653)" fill="#59D7FF"/>
<circle cx="294.145" cy="99.2653" r="2.22621" transform="rotate(90 294.145 99.2653)" fill="#59D7FF"/>
<circle cx="182.835" cy="99.2653" r="2.22621" transform="rotate(90 182.835 99.2653)" fill="#59D7FF"/>
<circle cx="265.761" cy="15.2262" r="2.22621" transform="rotate(90 265.761 15.2262)" fill="#59D7FF"/>
<circle cx="127.18" cy="99.2653" r="2.22621" transform="rotate(90 127.18 99.2653)" fill="#59D7FF"/>
<circle cx="210.106" cy="70.8815" r="2.22621" transform="rotate(90 210.106 70.8815)" fill="#59D7FF"/>
<circle cx="71.5244" cy="99.2663" r="2.22621" transform="rotate(90 71.5244 99.2663)" fill="#59D7FF"/>
<circle cx="238.49" cy="99.2663" r="2.22621" transform="rotate(90 238.49 99.2663)" fill="#59D7FF"/>
<circle cx="154.451" cy="99.2653" r="2.22621" transform="rotate(90 154.451 99.2653)" fill="#59D7FF"/>
<circle cx="98.7955" cy="99.2663" r="2.22621" transform="rotate(90 98.7955 99.2663)" fill="#59D7FF"/>
<circle cx="43.1401" cy="99.2653" r="2.22621" transform="rotate(90 43.1401 99.2653)" fill="#59D7FF"/>
<circle cx="15.8691" cy="99.2653" r="2.22621" transform="rotate(90 15.8691 99.2653)" fill="#59D7FF"/>
<circle cx="182.835" cy="70.8815" r="2.22621" transform="rotate(90 182.835 70.8815)" fill="#59D7FF"/>
<circle cx="210.106" cy="43.611" r="2.22621" transform="rotate(90 210.106 43.611)" fill="#59D7FF"/>
<circle cx="294.145" cy="70.8815" r="2.22621" transform="rotate(90 294.145 70.8815)" fill="#59D7FF"/>
<circle cx="182.835" cy="43.611" r="2.22621" transform="rotate(90 182.835 43.611)" fill="#59D7FF"/>
<circle cx="127.18" cy="70.8815" r="2.22621" transform="rotate(90 127.18 70.8815)" fill="#59D7FF"/>
<circle cx="238.49" cy="70.8815" r="2.22621" transform="rotate(90 238.49 70.8815)" fill="#59D7FF"/>
<circle cx="210.106" cy="15.2262" r="2.22621" transform="rotate(90 210.106 15.2262)" fill="#59D7FF"/>
<circle cx="71.5244" cy="70.8815" r="2.22621" transform="rotate(90 71.5244 70.8815)" fill="#59D7FF"/>
<circle cx="182.835" cy="15.2262" r="2.22621" transform="rotate(90 182.835 15.2262)" fill="#59D7FF"/>
<circle cx="127.18" cy="43.611" r="2.22621" transform="rotate(90 127.18 43.611)" fill="#59D7FF"/>
<circle cx="154.451" cy="70.8815" r="2.22621" transform="rotate(90 154.451 70.8815)" fill="#59D7FF"/>
<circle cx="98.7955" cy="70.8815" r="2.22621" transform="rotate(90 98.7955 70.8815)" fill="#59D7FF"/>
<circle cx="43.1401" cy="70.8815" r="2.22621" transform="rotate(90 43.1401 70.8815)" fill="#59D7FF"/>
<circle cx="15.8691" cy="70.8815" r="2.22621" transform="rotate(90 15.8691 70.8815)" fill="#59D7FF"/>
<circle cx="71.5244" cy="43.611" r="2.22621" transform="rotate(90 71.5244 43.611)" fill="#59D7FF"/>
<circle cx="294.145" cy="43.611" r="2.22621" transform="rotate(90 294.145 43.611)" fill="#59D7FF"/>
<circle cx="127.18" cy="15.2262" r="2.22621" transform="rotate(90 127.18 15.2262)" fill="#59D7FF"/>
<circle cx="238.49" cy="43.611" r="2.22621" transform="rotate(90 238.49 43.611)" fill="#59D7FF"/>
<circle cx="154.451" cy="43.611" r="2.22621" transform="rotate(90 154.451 43.611)" fill="#59D7FF"/>
<circle cx="71.5242" cy="15.2262" r="2.22621" transform="rotate(90 71.5242 15.2262)" fill="#59D7FF"/>
<circle cx="98.7955" cy="43.611" r="2.22621" transform="rotate(90 98.7955 43.611)" fill="#59D7FF"/>
<circle cx="43.1401" cy="43.611" r="2.22621" transform="rotate(90 43.1401 43.611)" fill="#59D7FF"/>
<circle cx="15.8691" cy="43.611" r="2.22621" transform="rotate(90 15.8691 43.611)" fill="#59D7FF"/>
<circle cx="294.145" cy="15.2262" r="2.22621" transform="rotate(90 294.145 15.2262)" fill="#59D7FF"/>
<circle cx="238.49" cy="15.2262" r="2.22621" transform="rotate(90 238.49 15.2262)" fill="#59D7FF"/>
<circle cx="154.451" cy="15.2262" r="2.22621" transform="rotate(90 154.451 15.2262)" fill="#59D7FF"/>
<circle cx="98.7955" cy="15.2262" r="2.22621" transform="rotate(90 98.7955 15.2262)" fill="#59D7FF"/>
<circle cx="43.1401" cy="15.2262" r="2.22621" transform="rotate(90 43.1401 15.2262)" fill="#59D7FF"/>
<circle cx="15.8691" cy="15.2262" r="2.22621" transform="rotate(90 15.8691 15.2262)" fill="#59D7FF"/>
</svg>
