<svg width="398" height="171" viewBox="0 0 398 171" fill="none" xmlns="http://www.w3.org/2000/svg">
<rect width="398" height="171" fill="#F1FDFB"/>
<circle cx="378.386" cy="151.314" r="2.614" transform="rotate(90 378.386 151.314)" fill="#59D7FF"/>
<circle cx="378.386" cy="119.293" r="2.614" transform="rotate(90 378.386 119.293)" fill="#59D7FF"/>
<circle cx="378.386" cy="85.9646" r="2.614" transform="rotate(90 378.386 85.9646)" fill="#59D7FF"/>
<circle cx="378.386" cy="53.9431" r="2.614" transform="rotate(90 378.386 53.9431)" fill="#59D7FF"/>
<circle cx="378.386" cy="20.614" r="2.614" transform="rotate(90 378.386 20.614)" fill="#59D7FF"/>
<circle cx="313.036" cy="151.314" r="2.614" transform="rotate(90 313.036 151.314)" fill="#59D7FF"/>
<circle cx="313.036" cy="119.293" r="2.614" transform="rotate(90 313.036 119.293)" fill="#59D7FF"/>
<circle cx="346.365" cy="151.314" r="2.614" transform="rotate(90 346.365 151.314)" fill="#59D7FF"/>
<circle cx="247.686" cy="151.314" r="2.614" transform="rotate(90 247.686 151.314)" fill="#59D7FF"/>
<circle cx="215.664" cy="151.314" r="2.614" transform="rotate(90 215.664 151.314)" fill="#59D7FF"/>
<circle cx="313.036" cy="85.9646" r="2.614" transform="rotate(90 313.036 85.9646)" fill="#59D7FF"/>
<circle cx="150.314" cy="151.314" r="2.614" transform="rotate(90 150.314 151.314)" fill="#59D7FF"/>
<circle cx="281.014" cy="151.314" r="2.614" transform="rotate(90 281.014 151.314)" fill="#59D7FF"/>
<circle cx="84.9643" cy="151.314" r="2.614" transform="rotate(90 84.9643 151.314)" fill="#59D7FF"/>
<circle cx="182.336" cy="151.314" r="2.614" transform="rotate(90 182.336 151.314)" fill="#59D7FF"/>
<circle cx="116.986" cy="151.314" r="2.614" transform="rotate(90 116.986 151.314)" fill="#59D7FF"/>
<circle cx="51.6356" cy="151.314" r="2.614" transform="rotate(90 51.6356 151.314)" fill="#59D7FF"/>
<circle cx="19.6141" cy="151.314" r="2.614" transform="rotate(90 19.6141 151.314)" fill="#59D7FF"/>
<circle cx="313.036" cy="53.9431" r="2.614" transform="rotate(90 313.036 53.9431)" fill="#59D7FF"/>
<circle cx="247.686" cy="119.293" r="2.614" transform="rotate(90 247.686 119.293)" fill="#59D7FF"/>
<circle cx="346.365" cy="119.293" r="2.614" transform="rotate(90 346.365 119.293)" fill="#59D7FF"/>
<circle cx="215.664" cy="119.293" r="2.614" transform="rotate(90 215.664 119.293)" fill="#59D7FF"/>
<circle cx="313.036" cy="20.614" r="2.614" transform="rotate(90 313.036 20.614)" fill="#59D7FF"/>
<circle cx="150.314" cy="119.293" r="2.614" transform="rotate(90 150.314 119.293)" fill="#59D7FF"/>
<circle cx="247.686" cy="85.9646" r="2.614" transform="rotate(90 247.686 85.9646)" fill="#59D7FF"/>
<circle cx="84.9643" cy="119.293" r="2.614" transform="rotate(90 84.9643 119.293)" fill="#59D7FF"/>
<circle cx="281.014" cy="119.293" r="2.614" transform="rotate(90 281.014 119.293)" fill="#59D7FF"/>
<circle cx="182.336" cy="119.293" r="2.614" transform="rotate(90 182.336 119.293)" fill="#59D7FF"/>
<circle cx="116.986" cy="119.293" r="2.614" transform="rotate(90 116.986 119.293)" fill="#59D7FF"/>
<circle cx="51.6356" cy="119.293" r="2.614" transform="rotate(90 51.6356 119.293)" fill="#59D7FF"/>
<circle cx="19.6141" cy="119.293" r="2.614" transform="rotate(90 19.6141 119.293)" fill="#59D7FF"/>
<circle cx="215.664" cy="85.9646" r="2.614" transform="rotate(90 215.664 85.9646)" fill="#59D7FF"/>
<circle cx="247.686" cy="53.9431" r="2.614" transform="rotate(90 247.686 53.9431)" fill="#59D7FF"/>
<circle cx="346.365" cy="85.9646" r="2.614" transform="rotate(90 346.365 85.9646)" fill="#59D7FF"/>
<circle cx="215.664" cy="53.9431" r="2.614" transform="rotate(90 215.664 53.9431)" fill="#59D7FF"/>
<circle cx="150.314" cy="85.9646" r="2.614" transform="rotate(90 150.314 85.9646)" fill="#59D7FF"/>
<circle cx="281.014" cy="85.9646" r="2.614" transform="rotate(90 281.014 85.9646)" fill="#59D7FF"/>
<circle cx="247.686" cy="20.614" r="2.614" transform="rotate(90 247.686 20.614)" fill="#59D7FF"/>
<circle cx="84.9643" cy="85.9646" r="2.614" transform="rotate(90 84.9643 85.9646)" fill="#59D7FF"/>
<circle cx="215.664" cy="20.614" r="2.614" transform="rotate(90 215.664 20.614)" fill="#59D7FF"/>
<circle cx="150.314" cy="53.9431" r="2.614" transform="rotate(90 150.314 53.9431)" fill="#59D7FF"/>
<circle cx="182.336" cy="85.9646" r="2.614" transform="rotate(90 182.336 85.9646)" fill="#59D7FF"/>
<circle cx="116.986" cy="85.9646" r="2.614" transform="rotate(90 116.986 85.9646)" fill="#59D7FF"/>
<circle cx="51.6356" cy="85.9646" r="2.614" transform="rotate(90 51.6356 85.9646)" fill="#59D7FF"/>
<circle cx="19.6141" cy="85.9646" r="2.614" transform="rotate(90 19.6141 85.9646)" fill="#59D7FF"/>
<circle cx="84.9643" cy="53.9431" r="2.614" transform="rotate(90 84.9643 53.9431)" fill="#59D7FF"/>
<circle cx="346.365" cy="53.9431" r="2.614" transform="rotate(90 346.365 53.9431)" fill="#59D7FF"/>
<circle cx="150.314" cy="20.614" r="2.614" transform="rotate(90 150.314 20.614)" fill="#59D7FF"/>
<circle cx="281.014" cy="53.9431" r="2.614" transform="rotate(90 281.014 53.9431)" fill="#59D7FF"/>
<circle cx="182.336" cy="53.9431" r="2.614" transform="rotate(90 182.336 53.9431)" fill="#59D7FF"/>
<circle cx="84.9641" cy="20.614" r="2.614" transform="rotate(90 84.9641 20.614)" fill="#59D7FF"/>
<circle cx="116.986" cy="53.9431" r="2.614" transform="rotate(90 116.986 53.9431)" fill="#59D7FF"/>
<circle cx="51.6356" cy="53.9431" r="2.614" transform="rotate(90 51.6356 53.9431)" fill="#59D7FF"/>
<circle cx="19.6141" cy="53.9431" r="2.614" transform="rotate(90 19.6141 53.9431)" fill="#59D7FF"/>
<circle cx="346.365" cy="20.614" r="2.614" transform="rotate(90 346.365 20.614)" fill="#59D7FF"/>
<circle cx="281.014" cy="20.614" r="2.614" transform="rotate(90 281.014 20.614)" fill="#59D7FF"/>
<circle cx="182.336" cy="20.614" r="2.614" transform="rotate(90 182.336 20.614)" fill="#59D7FF"/>
<circle cx="116.986" cy="20.614" r="2.614" transform="rotate(90 116.986 20.614)" fill="#59D7FF"/>
<circle cx="51.6356" cy="20.614" r="2.614" transform="rotate(90 51.6356 20.614)" fill="#59D7FF"/>
<circle cx="19.6141" cy="20.614" r="2.614" transform="rotate(90 19.6141 20.614)" fill="#59D7FF"/>
</svg>
