<svg width="407" height="277" viewBox="0 0 407 277" fill="none" xmlns="http://www.w3.org/2000/svg">
<rect y="277" width="277" height="407" transform="rotate(-90 0 277)" fill="white"/>
<line y1="-2" x2="23.8021" y2="-2" transform="matrix(0.704529 -0.709675 0.704529 0.709675 11 268)" stroke="#DBD8CE" stroke-width="4"/>
<line y1="-2" x2="23.8021" y2="-2" transform="matrix(0.704529 -0.709675 0.704529 0.709675 11 234.893)" stroke="#DBD8CE" stroke-width="4"/>
<line y1="-2" x2="23.8021" y2="-2" transform="matrix(0.704529 -0.709675 0.704529 0.709675 43.8682 268)" stroke="#DBD8CE" stroke-width="4"/>
<line y1="-2" x2="23.8021" y2="-2" transform="matrix(0.704529 -0.709675 0.704529 0.709675 43.8682 234.892)" stroke="#DBD8CE" stroke-width="4"/>
<line y1="-2" x2="23.8021" y2="-2" transform="matrix(0.704529 -0.709675 0.704529 0.709675 110.944 268)" stroke="#DBD8CE" stroke-width="4"/>
<line y1="-2" x2="23.8021" y2="-2" transform="matrix(0.704529 -0.709675 0.704529 0.709675 110.944 234.892)" stroke="#DBD8CE" stroke-width="4"/>
<line y1="-2" x2="23.8021" y2="-2" transform="matrix(0.704529 -0.709675 0.704529 0.709675 178.021 268)" stroke="#DBD8CE" stroke-width="4"/>
<line y1="-2" x2="23.8021" y2="-2" transform="matrix(0.704529 -0.709675 0.704529 0.709675 212.23 268)" stroke="#DBD8CE" stroke-width="4"/>
<line y1="-2" x2="23.8021" y2="-2" transform="matrix(0.704529 -0.709675 0.704529 0.709675 245.099 268)" stroke="#DBD8CE" stroke-width="4"/>
<line y1="-2" x2="23.8021" y2="-2" transform="matrix(0.704529 -0.709675 0.704529 0.709675 178.021 234.892)" stroke="#DBD8CE" stroke-width="4"/>
<line y1="-2" x2="23.8021" y2="-2" transform="matrix(0.704529 -0.709675 0.704529 0.709675 212.23 234.892)" stroke="#DBD8CE" stroke-width="4"/>
<line y1="-2" x2="23.8021" y2="-2" transform="matrix(0.704529 -0.709675 0.704529 0.709675 245.099 234.892)" stroke="#DBD8CE" stroke-width="4"/>
<line y1="-2" x2="23.8021" y2="-2" transform="matrix(0.704529 -0.709675 0.704529 0.709675 312.846 268)" stroke="#DBD8CE" stroke-width="4"/>
<line y1="-2" x2="23.8021" y2="-2" transform="matrix(0.704529 -0.709675 0.704529 0.709675 345.714 268)" stroke="#DBD8CE" stroke-width="4"/>
<line y1="-2" x2="23.8021" y2="-2" transform="matrix(0.704529 -0.709675 0.704529 0.709675 78.0771 268)" stroke="#DBD8CE" stroke-width="4"/>
<line y1="-2" x2="23.8021" y2="-2" transform="matrix(0.704529 -0.709675 0.704529 0.709675 312.846 234.892)" stroke="#DBD8CE" stroke-width="4"/>
<line y1="-2" x2="23.8021" y2="-2" transform="matrix(0.704529 -0.709675 0.704529 0.709675 345.714 234.892)" stroke="#DBD8CE" stroke-width="4"/>
<line y1="-2" x2="23.8021" y2="-2" transform="matrix(0.704529 -0.709675 0.704529 0.709675 145.154 268)" stroke="#DBD8CE" stroke-width="4"/>
<line y1="-2" x2="23.8021" y2="-2" transform="matrix(0.704529 -0.709675 0.704529 0.709675 278.637 268)" stroke="#DBD8CE" stroke-width="4"/>
<line y1="-2" x2="23.8021" y2="-2" transform="matrix(0.704529 -0.709675 0.704529 0.709675 379.252 268)" stroke="#DBD8CE" stroke-width="4"/>
<line y1="-2" x2="23.8021" y2="-2" transform="matrix(0.704529 -0.709675 0.704529 0.709675 78.0771 234.892)" stroke="#DBD8CE" stroke-width="4"/>
<line y1="-2" x2="23.8021" y2="-2" transform="matrix(0.704529 -0.709675 0.704529 0.709675 145.154 234.892)" stroke="#DBD8CE" stroke-width="4"/>
<line y1="-2" x2="23.8021" y2="-2" transform="matrix(0.704529 -0.709675 0.704529 0.709675 278.637 234.892)" stroke="#DBD8CE" stroke-width="4"/>
<line y1="-2" x2="23.8021" y2="-2" transform="matrix(0.704529 -0.709675 0.704529 0.709675 379.252 234.892)" stroke="#DBD8CE" stroke-width="4"/>
<line x1="227.586" y1="266.414" x2="210.817" y2="249.645" stroke="#DBD8CE" stroke-width="4"/>
<line x1="227.586" y1="233.546" x2="210.817" y2="216.777" stroke="#DBD8CE" stroke-width="4"/>
<line x1="193.377" y1="266.414" x2="176.608" y2="249.645" stroke="#DBD8CE" stroke-width="4"/>
<line x1="193.377" y1="233.546" x2="176.608" y2="216.777" stroke="#DBD8CE" stroke-width="4"/>
<line x1="160.509" y1="266.414" x2="143.739" y2="249.645" stroke="#DBD8CE" stroke-width="4"/>
<line x1="160.509" y1="233.546" x2="143.739" y2="216.777" stroke="#DBD8CE" stroke-width="4"/>
<line x1="126.3" y1="266.414" x2="109.53" y2="249.645" stroke="#DBD8CE" stroke-width="4"/>
<line x1="126.3" y1="233.546" x2="109.53" y2="216.777" stroke="#DBD8CE" stroke-width="4"/>
<line x1="93.4315" y1="266.414" x2="76.6623" y2="249.645" stroke="#DBD8CE" stroke-width="4"/>
<line x1="93.4315" y1="233.546" x2="76.6623" y2="216.777" stroke="#DBD8CE" stroke-width="4"/>
<line x1="59.2225" y1="266.414" x2="42.4533" y2="249.645" stroke="#DBD8CE" stroke-width="4"/>
<line x1="59.2225" y1="233.546" x2="42.4533" y2="216.777" stroke="#DBD8CE" stroke-width="4"/>
<line x1="26.3553" y1="266.414" x2="9.58609" y2="249.645" stroke="#DBD8CE" stroke-width="4"/>
<line x1="26.3553" y1="233.546" x2="9.58609" y2="216.777" stroke="#DBD8CE" stroke-width="4"/>
<line x1="394.607" y1="266.414" x2="377.838" y2="249.645" stroke="#DBD8CE" stroke-width="4"/>
<line x1="394.607" y1="233.546" x2="377.838" y2="216.777" stroke="#DBD8CE" stroke-width="4"/>
<line x1="361.069" y1="266.414" x2="344.3" y2="249.645" stroke="#DBD8CE" stroke-width="4"/>
<line x1="361.069" y1="233.546" x2="344.3" y2="216.777" stroke="#DBD8CE" stroke-width="4"/>
<line x1="328.201" y1="266.414" x2="311.432" y2="249.645" stroke="#DBD8CE" stroke-width="4"/>
<line x1="328.201" y1="233.546" x2="311.432" y2="216.777" stroke="#DBD8CE" stroke-width="4"/>
<line x1="293.992" y1="266.414" x2="277.223" y2="249.645" stroke="#DBD8CE" stroke-width="4"/>
<line x1="293.992" y1="233.546" x2="277.223" y2="216.777" stroke="#DBD8CE" stroke-width="4"/>
<line x1="261.124" y1="266.414" x2="244.355" y2="249.645" stroke="#DBD8CE" stroke-width="4"/>
<line x1="261.124" y1="233.546" x2="244.355" y2="216.777" stroke="#DBD8CE" stroke-width="4"/>
<line y1="-2" x2="23.8021" y2="-2" transform="matrix(0.704529 -0.709675 0.704529 0.709675 11 199.638)" stroke="#DBD8CE" stroke-width="4"/>
<line y1="-2" x2="23.8021" y2="-2" transform="matrix(0.704529 -0.709675 0.704529 0.709675 11 131.275)" stroke="#DBD8CE" stroke-width="4"/>
<line y1="-2" x2="23.8021" y2="-2" transform="matrix(0.704529 -0.709675 0.704529 0.709675 11 62.9131)" stroke="#DBD8CE" stroke-width="4"/>
<line y1="-2" x2="23.8021" y2="-2" transform="matrix(0.704529 -0.709675 0.704529 0.709675 11 166.53)" stroke="#DBD8CE" stroke-width="4"/>
<line y1="-2" x2="23.8021" y2="-2" transform="matrix(0.704529 -0.709675 0.704529 0.709675 11 98.168)" stroke="#DBD8CE" stroke-width="4"/>
<line y1="-2" x2="23.8021" y2="-2" transform="matrix(0.704529 -0.709675 0.704529 0.709675 11 29.8057)" stroke="#DBD8CE" stroke-width="4"/>
<line y1="-2" x2="23.8021" y2="-2" transform="matrix(0.704529 -0.709675 0.704529 0.709675 43.8682 199.638)" stroke="#DBD8CE" stroke-width="4"/>
<line y1="-2" x2="23.8021" y2="-2" transform="matrix(0.704529 -0.709675 0.704529 0.709675 43.8682 131.275)" stroke="#DBD8CE" stroke-width="4"/>
<line y1="-2" x2="23.8021" y2="-2" transform="matrix(0.704529 -0.709675 0.704529 0.709675 43.8682 62.9131)" stroke="#DBD8CE" stroke-width="4"/>
<line y1="-2" x2="23.8021" y2="-2" transform="matrix(0.704529 -0.709675 0.704529 0.709675 43.8682 166.529)" stroke="#DBD8CE" stroke-width="4"/>
<line y1="-2" x2="23.8021" y2="-2" transform="matrix(0.704529 -0.709675 0.704529 0.709675 43.8682 98.167)" stroke="#DBD8CE" stroke-width="4"/>
<line y1="-2" x2="23.8021" y2="-2" transform="matrix(0.704529 -0.709675 0.704529 0.709675 43.8682 29.8047)" stroke="#DBD8CE" stroke-width="4"/>
<line y1="-2" x2="23.8021" y2="-2" transform="matrix(0.704529 -0.709675 0.704529 0.709675 110.944 199.638)" stroke="#DBD8CE" stroke-width="4"/>
<line y1="-2" x2="23.8021" y2="-2" transform="matrix(0.704529 -0.709675 0.704529 0.709675 110.944 131.275)" stroke="#DBD8CE" stroke-width="4"/>
<line y1="-2" x2="23.8021" y2="-2" transform="matrix(0.704529 -0.709675 0.704529 0.709675 110.944 62.9131)" stroke="#DBD8CE" stroke-width="4"/>
<line y1="-2" x2="23.8021" y2="-2" transform="matrix(0.704529 -0.709675 0.704529 0.709675 110.944 166.529)" stroke="#DBD8CE" stroke-width="4"/>
<line y1="-2" x2="23.8021" y2="-2" transform="matrix(0.704529 -0.709675 0.704529 0.709675 110.944 98.167)" stroke="#DBD8CE" stroke-width="4"/>
<line y1="-2" x2="23.8021" y2="-2" transform="matrix(0.704529 -0.709675 0.704529 0.709675 110.944 29.8047)" stroke="#DBD8CE" stroke-width="4"/>
<line y1="-2" x2="23.8021" y2="-2" transform="matrix(0.704529 -0.709675 0.704529 0.709675 178.021 199.638)" stroke="#DBD8CE" stroke-width="4"/>
<line y1="-2" x2="23.8021" y2="-2" transform="matrix(0.704529 -0.709675 0.704529 0.709675 178.021 131.275)" stroke="#DBD8CE" stroke-width="4"/>
<line y1="-2" x2="23.8021" y2="-2" transform="matrix(0.704529 -0.709675 0.704529 0.709675 178.021 62.9131)" stroke="#DBD8CE" stroke-width="4"/>
<line y1="-2" x2="23.8021" y2="-2" transform="matrix(0.704529 -0.709675 0.704529 0.709675 212.23 199.638)" stroke="#DBD8CE" stroke-width="4"/>
<line y1="-2" x2="23.8021" y2="-2" transform="matrix(0.704529 -0.709675 0.704529 0.709675 212.23 131.275)" stroke="#DBD8CE" stroke-width="4"/>
<line y1="-2" x2="23.8021" y2="-2" transform="matrix(0.704529 -0.709675 0.704529 0.709675 212.23 62.9131)" stroke="#DBD8CE" stroke-width="4"/>
<line y1="-2" x2="23.8021" y2="-2" transform="matrix(0.704529 -0.709675 0.704529 0.709675 245.099 199.638)" stroke="#DBD8CE" stroke-width="4"/>
<line y1="-2" x2="23.8021" y2="-2" transform="matrix(0.704529 -0.709675 0.704529 0.709675 245.099 131.275)" stroke="#DBD8CE" stroke-width="4"/>
<line y1="-2" x2="23.8021" y2="-2" transform="matrix(0.704529 -0.709675 0.704529 0.709675 245.099 62.9131)" stroke="#DBD8CE" stroke-width="4"/>
<line y1="-2" x2="23.8021" y2="-2" transform="matrix(0.704529 -0.709675 0.704529 0.709675 178.021 166.529)" stroke="#DBD8CE" stroke-width="4"/>
<line y1="-2" x2="23.8021" y2="-2" transform="matrix(0.704529 -0.709675 0.704529 0.709675 178.021 98.167)" stroke="#DBD8CE" stroke-width="4"/>
<line y1="-2" x2="23.8021" y2="-2" transform="matrix(0.704529 -0.709675 0.704529 0.709675 178.021 29.8047)" stroke="#DBD8CE" stroke-width="4"/>
<line y1="-2" x2="23.8021" y2="-2" transform="matrix(0.704529 -0.709675 0.704529 0.709675 212.23 166.529)" stroke="#DBD8CE" stroke-width="4"/>
<line y1="-2" x2="23.8021" y2="-2" transform="matrix(0.704529 -0.709675 0.704529 0.709675 212.23 98.167)" stroke="#DBD8CE" stroke-width="4"/>
<line y1="-2" x2="23.8021" y2="-2" transform="matrix(0.704529 -0.709675 0.704529 0.709675 212.23 29.8047)" stroke="#DBD8CE" stroke-width="4"/>
<line y1="-2" x2="23.8021" y2="-2" transform="matrix(0.704529 -0.709675 0.704529 0.709675 245.099 166.529)" stroke="#DBD8CE" stroke-width="4"/>
<line y1="-2" x2="23.8021" y2="-2" transform="matrix(0.704529 -0.709675 0.704529 0.709675 245.099 98.167)" stroke="#DBD8CE" stroke-width="4"/>
<line y1="-2" x2="23.8021" y2="-2" transform="matrix(0.704529 -0.709675 0.704529 0.709675 245.099 29.8047)" stroke="#DBD8CE" stroke-width="4"/>
<line y1="-2" x2="23.8021" y2="-2" transform="matrix(0.704529 -0.709675 0.704529 0.709675 312.846 199.638)" stroke="#DBD8CE" stroke-width="4"/>
<line y1="-2" x2="23.8021" y2="-2" transform="matrix(0.704529 -0.709675 0.704529 0.709675 312.846 131.275)" stroke="#DBD8CE" stroke-width="4"/>
<line y1="-2" x2="23.8021" y2="-2" transform="matrix(0.704529 -0.709675 0.704529 0.709675 312.846 62.9131)" stroke="#DBD8CE" stroke-width="4"/>
<line y1="-2" x2="23.8021" y2="-2" transform="matrix(0.704529 -0.709675 0.704529 0.709675 345.714 199.638)" stroke="#DBD8CE" stroke-width="4"/>
<line y1="-2" x2="23.8021" y2="-2" transform="matrix(0.704529 -0.709675 0.704529 0.709675 345.714 131.275)" stroke="#DBD8CE" stroke-width="4"/>
<line y1="-2" x2="23.8021" y2="-2" transform="matrix(0.704529 -0.709675 0.704529 0.709675 345.714 62.9131)" stroke="#DBD8CE" stroke-width="4"/>
<line y1="-2" x2="23.8021" y2="-2" transform="matrix(0.704529 -0.709675 0.704529 0.709675 78.0771 199.638)" stroke="#DBD8CE" stroke-width="4"/>
<line y1="-2" x2="23.8021" y2="-2" transform="matrix(0.704529 -0.709675 0.704529 0.709675 78.0771 131.275)" stroke="#DBD8CE" stroke-width="4"/>
<line y1="-2" x2="23.8021" y2="-2" transform="matrix(0.704529 -0.709675 0.704529 0.709675 78.0771 62.9131)" stroke="#DBD8CE" stroke-width="4"/>
<line y1="-2" x2="23.8021" y2="-2" transform="matrix(0.704529 -0.709675 0.704529 0.709675 312.846 166.529)" stroke="#DBD8CE" stroke-width="4"/>
<line y1="-2" x2="23.8021" y2="-2" transform="matrix(0.704529 -0.709675 0.704529 0.709675 312.846 98.167)" stroke="#DBD8CE" stroke-width="4"/>
<line y1="-2" x2="23.8021" y2="-2" transform="matrix(0.704529 -0.709675 0.704529 0.709675 312.846 29.8047)" stroke="#DBD8CE" stroke-width="4"/>
<line y1="-2" x2="23.8021" y2="-2" transform="matrix(0.704529 -0.709675 0.704529 0.709675 345.714 166.529)" stroke="#DBD8CE" stroke-width="4"/>
<line y1="-2" x2="23.8021" y2="-2" transform="matrix(0.704529 -0.709675 0.704529 0.709675 345.714 98.167)" stroke="#DBD8CE" stroke-width="4"/>
<line y1="-2" x2="23.8021" y2="-2" transform="matrix(0.704529 -0.709675 0.704529 0.709675 345.714 29.8047)" stroke="#DBD8CE" stroke-width="4"/>
<line y1="-2" x2="23.8021" y2="-2" transform="matrix(0.704529 -0.709675 0.704529 0.709675 145.154 199.638)" stroke="#DBD8CE" stroke-width="4"/>
<line y1="-2" x2="23.8021" y2="-2" transform="matrix(0.704529 -0.709675 0.704529 0.709675 145.154 131.275)" stroke="#DBD8CE" stroke-width="4"/>
<line y1="-2" x2="23.8021" y2="-2" transform="matrix(0.704529 -0.709675 0.704529 0.709675 145.154 62.9131)" stroke="#DBD8CE" stroke-width="4"/>
<line y1="-2" x2="23.8021" y2="-2" transform="matrix(0.704529 -0.709675 0.704529 0.709675 278.637 199.638)" stroke="#DBD8CE" stroke-width="4"/>
<line y1="-2" x2="23.8021" y2="-2" transform="matrix(0.704529 -0.709675 0.704529 0.709675 278.637 131.275)" stroke="#DBD8CE" stroke-width="4"/>
<line y1="-2" x2="23.8021" y2="-2" transform="matrix(0.704529 -0.709675 0.704529 0.709675 278.637 62.9131)" stroke="#DBD8CE" stroke-width="4"/>
<line y1="-2" x2="23.8021" y2="-2" transform="matrix(0.704529 -0.709675 0.704529 0.709675 379.252 199.638)" stroke="#DBD8CE" stroke-width="4"/>
<line y1="-2" x2="23.8021" y2="-2" transform="matrix(0.704529 -0.709675 0.704529 0.709675 379.252 131.275)" stroke="#DBD8CE" stroke-width="4"/>
<line y1="-2" x2="23.8021" y2="-2" transform="matrix(0.704529 -0.709675 0.704529 0.709675 379.252 62.9131)" stroke="#DBD8CE" stroke-width="4"/>
<line y1="-2" x2="23.8021" y2="-2" transform="matrix(0.704529 -0.709675 0.704529 0.709675 78.0771 166.529)" stroke="#DBD8CE" stroke-width="4"/>
<line y1="-2" x2="23.8021" y2="-2" transform="matrix(0.704529 -0.709675 0.704529 0.709675 78.0771 98.167)" stroke="#DBD8CE" stroke-width="4"/>
<line y1="-2" x2="23.8021" y2="-2" transform="matrix(0.704529 -0.709675 0.704529 0.709675 78.0771 29.8047)" stroke="#DBD8CE" stroke-width="4"/>
<line y1="-2" x2="23.8021" y2="-2" transform="matrix(0.704529 -0.709675 0.704529 0.709675 145.154 166.529)" stroke="#DBD8CE" stroke-width="4"/>
<line y1="-2" x2="23.8021" y2="-2" transform="matrix(0.704529 -0.709675 0.704529 0.709675 145.154 98.167)" stroke="#DBD8CE" stroke-width="4"/>
<line y1="-2" x2="23.8021" y2="-2" transform="matrix(0.704529 -0.709675 0.704529 0.709675 145.154 29.8047)" stroke="#DBD8CE" stroke-width="4"/>
<line y1="-2" x2="23.8021" y2="-2" transform="matrix(0.704529 -0.709675 0.704529 0.709675 278.637 166.529)" stroke="#DBD8CE" stroke-width="4"/>
<line y1="-2" x2="23.8021" y2="-2" transform="matrix(0.704529 -0.709675 0.704529 0.709675 278.637 98.167)" stroke="#DBD8CE" stroke-width="4"/>
<line y1="-2" x2="23.8021" y2="-2" transform="matrix(0.704529 -0.709675 0.704529 0.709675 278.637 29.8047)" stroke="#DBD8CE" stroke-width="4"/>
<line y1="-2" x2="23.8021" y2="-2" transform="matrix(0.704529 -0.709675 0.704529 0.709675 379.252 166.529)" stroke="#DBD8CE" stroke-width="4"/>
<line y1="-2" x2="23.8021" y2="-2" transform="matrix(0.704529 -0.709675 0.704529 0.709675 379.252 98.167)" stroke="#DBD8CE" stroke-width="4"/>
<line y1="-2" x2="23.8021" y2="-2" transform="matrix(0.704529 -0.709675 0.704529 0.709675 379.252 29.8047)" stroke="#DBD8CE" stroke-width="4"/>
<line x1="227.586" y1="198.052" x2="210.817" y2="181.283" stroke="#DBD8CE" stroke-width="4"/>
<line x1="227.586" y1="129.69" x2="210.817" y2="112.92" stroke="#DBD8CE" stroke-width="4"/>
<line x1="227.586" y1="61.3273" x2="210.817" y2="44.5581" stroke="#DBD8CE" stroke-width="4"/>
<line x1="227.586" y1="165.184" x2="210.817" y2="148.415" stroke="#DBD8CE" stroke-width="4"/>
<line x1="227.586" y1="96.8214" x2="210.817" y2="80.0522" stroke="#DBD8CE" stroke-width="4"/>
<line x1="227.586" y1="28.4591" x2="210.817" y2="11.6899" stroke="#DBD8CE" stroke-width="4"/>
<line x1="193.377" y1="198.052" x2="176.608" y2="181.283" stroke="#DBD8CE" stroke-width="4"/>
<line x1="193.377" y1="129.69" x2="176.608" y2="112.92" stroke="#DBD8CE" stroke-width="4"/>
<line x1="193.377" y1="61.3273" x2="176.608" y2="44.5581" stroke="#DBD8CE" stroke-width="4"/>
<line x1="193.377" y1="165.184" x2="176.608" y2="148.415" stroke="#DBD8CE" stroke-width="4"/>
<line x1="193.377" y1="96.8214" x2="176.608" y2="80.0522" stroke="#DBD8CE" stroke-width="4"/>
<line x1="193.377" y1="28.4591" x2="176.608" y2="11.6899" stroke="#DBD8CE" stroke-width="4"/>
<line x1="160.509" y1="198.052" x2="143.739" y2="181.283" stroke="#DBD8CE" stroke-width="4"/>
<line x1="160.509" y1="129.69" x2="143.739" y2="112.92" stroke="#DBD8CE" stroke-width="4"/>
<line x1="160.509" y1="61.3273" x2="143.739" y2="44.5581" stroke="#DBD8CE" stroke-width="4"/>
<line x1="160.509" y1="165.184" x2="143.739" y2="148.415" stroke="#DBD8CE" stroke-width="4"/>
<line x1="160.509" y1="96.8214" x2="143.739" y2="80.0522" stroke="#DBD8CE" stroke-width="4"/>
<line x1="160.509" y1="28.4591" x2="143.739" y2="11.6899" stroke="#DBD8CE" stroke-width="4"/>
<line x1="126.3" y1="198.052" x2="109.53" y2="181.283" stroke="#DBD8CE" stroke-width="4"/>
<line x1="126.3" y1="129.69" x2="109.53" y2="112.92" stroke="#DBD8CE" stroke-width="4"/>
<line x1="126.3" y1="61.3273" x2="109.53" y2="44.5581" stroke="#DBD8CE" stroke-width="4"/>
<line x1="126.3" y1="165.184" x2="109.53" y2="148.415" stroke="#DBD8CE" stroke-width="4"/>
<line x1="126.3" y1="96.8214" x2="109.53" y2="80.0522" stroke="#DBD8CE" stroke-width="4"/>
<line x1="126.3" y1="28.4591" x2="109.53" y2="11.6899" stroke="#DBD8CE" stroke-width="4"/>
<line x1="93.4315" y1="198.052" x2="76.6623" y2="181.283" stroke="#DBD8CE" stroke-width="4"/>
<line x1="93.4315" y1="129.69" x2="76.6623" y2="112.92" stroke="#DBD8CE" stroke-width="4"/>
<line x1="93.4315" y1="61.3273" x2="76.6623" y2="44.5581" stroke="#DBD8CE" stroke-width="4"/>
<line x1="93.4315" y1="165.184" x2="76.6623" y2="148.415" stroke="#DBD8CE" stroke-width="4"/>
<line x1="93.4315" y1="96.8214" x2="76.6623" y2="80.0522" stroke="#DBD8CE" stroke-width="4"/>
<line x1="93.4315" y1="28.4591" x2="76.6623" y2="11.6899" stroke="#DBD8CE" stroke-width="4"/>
<line x1="59.2225" y1="198.052" x2="42.4533" y2="181.283" stroke="#DBD8CE" stroke-width="4"/>
<line x1="59.2225" y1="129.69" x2="42.4533" y2="112.92" stroke="#DBD8CE" stroke-width="4"/>
<line x1="59.2225" y1="61.3273" x2="42.4533" y2="44.5581" stroke="#DBD8CE" stroke-width="4"/>
<line x1="59.2225" y1="165.184" x2="42.4533" y2="148.415" stroke="#DBD8CE" stroke-width="4"/>
<line x1="59.2225" y1="96.8214" x2="42.4533" y2="80.0522" stroke="#DBD8CE" stroke-width="4"/>
<line x1="59.2225" y1="28.4591" x2="42.4533" y2="11.6899" stroke="#DBD8CE" stroke-width="4"/>
<line x1="26.3553" y1="198.052" x2="9.58609" y2="181.283" stroke="#DBD8CE" stroke-width="4"/>
<line x1="26.3553" y1="129.69" x2="9.58609" y2="112.92" stroke="#DBD8CE" stroke-width="4"/>
<line x1="26.3553" y1="61.3273" x2="9.58609" y2="44.5581" stroke="#DBD8CE" stroke-width="4"/>
<line x1="26.3553" y1="165.184" x2="9.58609" y2="148.415" stroke="#DBD8CE" stroke-width="4"/>
<line x1="26.3553" y1="96.8214" x2="9.58609" y2="80.0522" stroke="#DBD8CE" stroke-width="4"/>
<line x1="26.3553" y1="28.4591" x2="9.58609" y2="11.6899" stroke="#DBD8CE" stroke-width="4"/>
<line x1="394.607" y1="198.052" x2="377.838" y2="181.283" stroke="#DBD8CE" stroke-width="4"/>
<line x1="394.607" y1="129.69" x2="377.838" y2="112.92" stroke="#DBD8CE" stroke-width="4"/>
<line x1="394.607" y1="61.3273" x2="377.838" y2="44.5581" stroke="#DBD8CE" stroke-width="4"/>
<line x1="394.607" y1="165.184" x2="377.838" y2="148.415" stroke="#DBD8CE" stroke-width="4"/>
<line x1="394.607" y1="96.8214" x2="377.838" y2="80.0522" stroke="#DBD8CE" stroke-width="4"/>
<line x1="394.607" y1="28.4591" x2="377.838" y2="11.6899" stroke="#DBD8CE" stroke-width="4"/>
<line x1="361.069" y1="198.052" x2="344.3" y2="181.283" stroke="#DBD8CE" stroke-width="4"/>
<line x1="361.069" y1="129.69" x2="344.3" y2="112.92" stroke="#DBD8CE" stroke-width="4"/>
<line x1="361.069" y1="61.3273" x2="344.3" y2="44.5581" stroke="#DBD8CE" stroke-width="4"/>
<line x1="361.069" y1="165.184" x2="344.3" y2="148.415" stroke="#DBD8CE" stroke-width="4"/>
<line x1="361.069" y1="96.8214" x2="344.3" y2="80.0522" stroke="#DBD8CE" stroke-width="4"/>
<line x1="361.069" y1="28.4591" x2="344.3" y2="11.6899" stroke="#DBD8CE" stroke-width="4"/>
<line x1="328.201" y1="198.052" x2="311.432" y2="181.283" stroke="#DBD8CE" stroke-width="4"/>
<line x1="328.201" y1="129.69" x2="311.432" y2="112.92" stroke="#DBD8CE" stroke-width="4"/>
<line x1="328.201" y1="61.3273" x2="311.432" y2="44.5581" stroke="#DBD8CE" stroke-width="4"/>
<line x1="328.201" y1="165.184" x2="311.432" y2="148.415" stroke="#DBD8CE" stroke-width="4"/>
<line x1="328.201" y1="96.8214" x2="311.432" y2="80.0522" stroke="#DBD8CE" stroke-width="4"/>
<line x1="328.201" y1="28.4591" x2="311.432" y2="11.6899" stroke="#DBD8CE" stroke-width="4"/>
<line x1="293.992" y1="198.052" x2="277.223" y2="181.283" stroke="#DBD8CE" stroke-width="4"/>
<line x1="293.992" y1="129.69" x2="277.223" y2="112.92" stroke="#DBD8CE" stroke-width="4"/>
<line x1="293.992" y1="61.3273" x2="277.223" y2="44.5581" stroke="#DBD8CE" stroke-width="4"/>
<line x1="293.992" y1="165.184" x2="277.223" y2="148.415" stroke="#DBD8CE" stroke-width="4"/>
<line x1="293.992" y1="96.8214" x2="277.223" y2="80.0522" stroke="#DBD8CE" stroke-width="4"/>
<line x1="293.992" y1="28.4591" x2="277.223" y2="11.6899" stroke="#DBD8CE" stroke-width="4"/>
<line x1="261.124" y1="198.052" x2="244.355" y2="181.283" stroke="#DBD8CE" stroke-width="4"/>
<line x1="261.124" y1="129.69" x2="244.355" y2="112.92" stroke="#DBD8CE" stroke-width="4"/>
<line x1="261.124" y1="61.3273" x2="244.355" y2="44.5581" stroke="#DBD8CE" stroke-width="4"/>
<line x1="261.124" y1="165.184" x2="244.355" y2="148.415" stroke="#DBD8CE" stroke-width="4"/>
<line x1="261.124" y1="96.8214" x2="244.355" y2="80.0522" stroke="#DBD8CE" stroke-width="4"/>
<line x1="261.124" y1="28.4591" x2="244.355" y2="11.6899" stroke="#DBD8CE" stroke-width="4"/>
</svg>
