<svg width="344" height="603" viewBox="0 0 344 603" fill="none" xmlns="http://www.w3.org/2000/svg">
<rect width="344" height="603" fill="white"/>
<line x1="11.4142" y1="13.5858" x2="36.4142" y2="38.5858" stroke="#DBD8CE" stroke-width="4"/>
<line x1="62.4142" y1="13.5858" x2="87.4142" y2="38.5858" stroke="#DBD8CE" stroke-width="4"/>
<line x1="111.414" y1="13.5858" x2="136.414" y2="38.5858" stroke="#DBD8CE" stroke-width="4"/>
<line x1="162.414" y1="13.5858" x2="187.414" y2="38.5858" stroke="#DBD8CE" stroke-width="4"/>
<line x1="211.414" y1="13.5858" x2="236.414" y2="38.5858" stroke="#DBD8CE" stroke-width="4"/>
<line x1="262.414" y1="13.5858" x2="287.414" y2="38.5858" stroke="#DBD8CE" stroke-width="4"/>
<line x1="311.414" y1="13.5858" x2="336.414" y2="38.5858" stroke="#DBD8CE" stroke-width="4"/>
<line x1="11.4142" y1="62.5858" x2="36.4142" y2="87.5858" stroke="#DBD8CE" stroke-width="4"/>
<line x1="62.4142" y1="62.5858" x2="87.4142" y2="87.5858" stroke="#DBD8CE" stroke-width="4"/>
<line x1="111.414" y1="62.5858" x2="136.414" y2="87.5858" stroke="#DBD8CE" stroke-width="4"/>
<line x1="162.414" y1="62.5858" x2="187.414" y2="87.5858" stroke="#DBD8CE" stroke-width="4"/>
<line x1="211.414" y1="62.5858" x2="236.414" y2="87.5858" stroke="#DBD8CE" stroke-width="4"/>
<line x1="262.414" y1="62.5858" x2="287.414" y2="87.5858" stroke="#DBD8CE" stroke-width="4"/>
<line x1="311.414" y1="62.5858" x2="336.414" y2="87.5858" stroke="#DBD8CE" stroke-width="4"/>
<line x1="11.4142" y1="113.586" x2="36.4142" y2="138.586" stroke="#DBD8CE" stroke-width="4"/>
<line x1="11.4142" y1="162.586" x2="36.4142" y2="187.586" stroke="#DBD8CE" stroke-width="4"/>
<line x1="11.4142" y1="213.586" x2="36.4142" y2="238.586" stroke="#DBD8CE" stroke-width="4"/>
<line x1="11.4142" y1="262.586" x2="36.4142" y2="287.586" stroke="#DBD8CE" stroke-width="4"/>
<line x1="11.4142" y1="313.586" x2="36.4142" y2="338.586" stroke="#DBD8CE" stroke-width="4"/>
<line x1="11.4142" y1="362.586" x2="36.4142" y2="387.586" stroke="#DBD8CE" stroke-width="4"/>
<line x1="11.4142" y1="412.586" x2="36.4142" y2="437.586" stroke="#DBD8CE" stroke-width="4"/>
<line x1="11.4142" y1="463.586" x2="36.4142" y2="488.586" stroke="#DBD8CE" stroke-width="4"/>
<line x1="11.4142" y1="512.586" x2="36.4142" y2="537.586" stroke="#DBD8CE" stroke-width="4"/>
<line x1="11.4142" y1="562.586" x2="36.4142" y2="587.586" stroke="#DBD8CE" stroke-width="4"/>
<line x1="62.4142" y1="162.586" x2="87.4142" y2="187.586" stroke="#DBD8CE" stroke-width="4"/>
<line x1="62.4142" y1="113.586" x2="87.4142" y2="138.586" stroke="#DBD8CE" stroke-width="4"/>
<line x1="111.414" y1="162.586" x2="136.414" y2="187.586" stroke="#DBD8CE" stroke-width="4"/>
<line x1="62.4142" y1="262.586" x2="87.4142" y2="287.586" stroke="#DBD8CE" stroke-width="4"/>
<line x1="62.4142" y1="313.586" x2="87.4142" y2="338.586" stroke="#DBD8CE" stroke-width="4"/>
<line x1="61.4142" y1="363.586" x2="86.4142" y2="388.586" stroke="#DBD8CE" stroke-width="4"/>
<line x1="62.4142" y1="213.586" x2="87.4142" y2="238.586" stroke="#DBD8CE" stroke-width="4"/>
<line x1="62.4142" y1="463.586" x2="87.4142" y2="488.586" stroke="#DBD8CE" stroke-width="4"/>
<line x1="62.4142" y1="512.586" x2="87.4142" y2="537.586" stroke="#DBD8CE" stroke-width="4"/>
<line x1="62.4142" y1="412.586" x2="87.4142" y2="437.586" stroke="#DBD8CE" stroke-width="4"/>
<line x1="62.4142" y1="562.586" x2="87.4142" y2="587.586" stroke="#DBD8CE" stroke-width="4"/>
<line x1="162.414" y1="162.586" x2="187.414" y2="187.586" stroke="#DBD8CE" stroke-width="4"/>
<line x1="111.414" y1="113.586" x2="136.414" y2="138.586" stroke="#DBD8CE" stroke-width="4"/>
<line x1="111.414" y1="262.586" x2="136.414" y2="287.586" stroke="#DBD8CE" stroke-width="4"/>
<line x1="111.414" y1="313.586" x2="136.414" y2="338.586" stroke="#DBD8CE" stroke-width="4"/>
<line x1="111.414" y1="362.586" x2="136.414" y2="387.586" stroke="#DBD8CE" stroke-width="4"/>
<line x1="211.414" y1="162.586" x2="236.414" y2="187.586" stroke="#DBD8CE" stroke-width="4"/>
<line x1="111.414" y1="463.586" x2="136.414" y2="488.586" stroke="#DBD8CE" stroke-width="4"/>
<line x1="111.414" y1="512.586" x2="136.414" y2="537.586" stroke="#DBD8CE" stroke-width="4"/>
<line x1="111.414" y1="213.586" x2="136.414" y2="238.586" stroke="#DBD8CE" stroke-width="4"/>
<line x1="111.414" y1="412.586" x2="136.414" y2="437.586" stroke="#DBD8CE" stroke-width="4"/>
<line x1="111.414" y1="562.586" x2="136.414" y2="587.586" stroke="#DBD8CE" stroke-width="4"/>
<line x1="262.414" y1="162.586" x2="287.414" y2="187.586" stroke="#DBD8CE" stroke-width="4"/>
<line x1="162.414" y1="262.586" x2="187.414" y2="287.586" stroke="#DBD8CE" stroke-width="4"/>
<line x1="162.414" y1="113.586" x2="187.414" y2="138.586" stroke="#DBD8CE" stroke-width="4"/>
<line x1="162.414" y1="313.586" x2="187.414" y2="338.586" stroke="#DBD8CE" stroke-width="4"/>
<line x1="161.414" y1="363.586" x2="186.414" y2="388.586" stroke="#DBD8CE" stroke-width="4"/>
<line x1="311.414" y1="162.586" x2="336.414" y2="187.586" stroke="#DBD8CE" stroke-width="4"/>
<line x1="162.414" y1="463.586" x2="187.414" y2="488.586" stroke="#DBD8CE" stroke-width="4"/>
<line x1="162.414" y1="512.586" x2="187.414" y2="537.586" stroke="#DBD8CE" stroke-width="4"/>
<line x1="211.414" y1="262.586" x2="236.414" y2="287.586" stroke="#DBD8CE" stroke-width="4"/>
<line x1="162.414" y1="213.586" x2="187.414" y2="238.586" stroke="#DBD8CE" stroke-width="4"/>
<line x1="162.414" y1="412.586" x2="187.414" y2="437.586" stroke="#DBD8CE" stroke-width="4"/>
<line x1="162.414" y1="562.586" x2="187.414" y2="587.586" stroke="#DBD8CE" stroke-width="4"/>
<line x1="211.414" y1="313.586" x2="236.414" y2="338.586" stroke="#DBD8CE" stroke-width="4"/>
<line x1="262.414" y1="262.586" x2="287.414" y2="287.586" stroke="#DBD8CE" stroke-width="4"/>
<line x1="211.414" y1="113.586" x2="236.414" y2="138.586" stroke="#DBD8CE" stroke-width="4"/>
<line x1="211.414" y1="362.586" x2="236.414" y2="387.586" stroke="#DBD8CE" stroke-width="4"/>
<line x1="262.414" y1="313.586" x2="287.414" y2="338.586" stroke="#DBD8CE" stroke-width="4"/>
<line x1="211.414" y1="213.586" x2="236.414" y2="238.586" stroke="#DBD8CE" stroke-width="4"/>
<line x1="262.414" y1="362.586" x2="287.414" y2="387.586" stroke="#DBD8CE" stroke-width="4"/>
<line x1="211.414" y1="463.586" x2="236.414" y2="488.586" stroke="#DBD8CE" stroke-width="4"/>
<line x1="311.414" y1="262.586" x2="336.414" y2="287.586" stroke="#DBD8CE" stroke-width="4"/>
<line x1="211.414" y1="512.586" x2="236.414" y2="537.586" stroke="#DBD8CE" stroke-width="4"/>
<line x1="311.414" y1="313.586" x2="336.414" y2="338.586" stroke="#DBD8CE" stroke-width="4"/>
<line x1="311.414" y1="362.586" x2="336.414" y2="387.586" stroke="#DBD8CE" stroke-width="4"/>
<line x1="262.414" y1="463.586" x2="287.414" y2="488.586" stroke="#DBD8CE" stroke-width="4"/>
<line x1="211.414" y1="412.586" x2="236.414" y2="437.586" stroke="#DBD8CE" stroke-width="4"/>
<line x1="262.414" y1="512.586" x2="287.414" y2="537.586" stroke="#DBD8CE" stroke-width="4"/>
<line x1="211.414" y1="562.586" x2="236.414" y2="587.586" stroke="#DBD8CE" stroke-width="4"/>
<line x1="262.414" y1="113.586" x2="287.414" y2="138.586" stroke="#DBD8CE" stroke-width="4"/>
<line x1="311.414" y1="463.586" x2="336.414" y2="488.586" stroke="#DBD8CE" stroke-width="4"/>
<line x1="311.414" y1="512.586" x2="336.414" y2="537.586" stroke="#DBD8CE" stroke-width="4"/>
<line x1="262.414" y1="213.586" x2="287.414" y2="238.586" stroke="#DBD8CE" stroke-width="4"/>
<line x1="262.414" y1="412.586" x2="287.414" y2="437.586" stroke="#DBD8CE" stroke-width="4"/>
<line x1="262.414" y1="562.586" x2="287.414" y2="587.586" stroke="#DBD8CE" stroke-width="4"/>
<line x1="311.414" y1="113.586" x2="336.414" y2="138.586" stroke="#DBD8CE" stroke-width="4"/>
<line x1="311.414" y1="213.586" x2="336.414" y2="238.586" stroke="#DBD8CE" stroke-width="4"/>
<line x1="311.414" y1="412.586" x2="336.414" y2="437.586" stroke="#DBD8CE" stroke-width="4"/>
<line x1="311.414" y1="562.586" x2="336.414" y2="587.586" stroke="#DBD8CE" stroke-width="4"/>
<line x1="8.58579" y1="338.586" x2="33.5858" y2="313.586" stroke="#DBD8CE" stroke-width="4"/>
<line x1="8.58579" y1="287.586" x2="33.5858" y2="262.586" stroke="#DBD8CE" stroke-width="4"/>
<line x1="8.58579" y1="238.586" x2="33.5858" y2="213.586" stroke="#DBD8CE" stroke-width="4"/>
<line x1="8.58579" y1="187.586" x2="33.5858" y2="162.586" stroke="#DBD8CE" stroke-width="4"/>
<line x1="8.58579" y1="138.586" x2="33.5858" y2="113.586" stroke="#DBD8CE" stroke-width="4"/>
<line x1="8.58579" y1="87.5858" x2="33.5858" y2="62.5858" stroke="#DBD8CE" stroke-width="4"/>
<line x1="8.58579" y1="38.5858" x2="33.5858" y2="13.5858" stroke="#DBD8CE" stroke-width="4"/>
<line x1="59.5858" y1="338.586" x2="84.5858" y2="313.586" stroke="#DBD8CE" stroke-width="4"/>
<line x1="59.5858" y1="287.586" x2="84.5858" y2="262.586" stroke="#DBD8CE" stroke-width="4"/>
<line x1="59.5858" y1="238.586" x2="84.5858" y2="213.586" stroke="#DBD8CE" stroke-width="4"/>
<line x1="59.5858" y1="187.586" x2="84.5858" y2="162.586" stroke="#DBD8CE" stroke-width="4"/>
<line x1="59.5858" y1="138.586" x2="84.5858" y2="113.586" stroke="#DBD8CE" stroke-width="4"/>
<line x1="59.5858" y1="87.5858" x2="84.5858" y2="62.5858" stroke="#DBD8CE" stroke-width="4"/>
<line x1="57.5858" y1="38.5858" x2="82.5858" y2="13.5858" stroke="#DBD8CE" stroke-width="4"/>
<line x1="108.586" y1="338.586" x2="133.586" y2="313.586" stroke="#DBD8CE" stroke-width="4"/>
<line x1="159.586" y1="338.586" x2="184.586" y2="313.586" stroke="#DBD8CE" stroke-width="4"/>
<line x1="208.586" y1="338.586" x2="233.586" y2="313.586" stroke="#DBD8CE" stroke-width="4"/>
<line x1="259.586" y1="338.586" x2="284.586" y2="313.586" stroke="#DBD8CE" stroke-width="4"/>
<line x1="308.586" y1="338.586" x2="333.586" y2="313.586" stroke="#DBD8CE" stroke-width="4"/>
<line x1="159.586" y1="287.586" x2="184.586" y2="262.586" stroke="#DBD8CE" stroke-width="4"/>
<line x1="108.586" y1="287.586" x2="133.586" y2="262.586" stroke="#DBD8CE" stroke-width="4"/>
<line x1="159.586" y1="238.586" x2="184.586" y2="213.586" stroke="#DBD8CE" stroke-width="4"/>
<line x1="259.586" y1="287.586" x2="284.586" y2="262.586" stroke="#DBD8CE" stroke-width="4"/>
<line x1="308.586" y1="287.586" x2="333.586" y2="262.586" stroke="#DBD8CE" stroke-width="4"/>
<line x1="208.586" y1="287.586" x2="233.586" y2="262.586" stroke="#DBD8CE" stroke-width="4"/>
<line x1="159.586" y1="187.586" x2="184.586" y2="162.586" stroke="#DBD8CE" stroke-width="4"/>
<line x1="108.586" y1="238.586" x2="133.586" y2="213.586" stroke="#DBD8CE" stroke-width="4"/>
<line x1="259.586" y1="238.586" x2="284.586" y2="213.586" stroke="#DBD8CE" stroke-width="4"/>
<line x1="308.586" y1="238.586" x2="333.586" y2="213.586" stroke="#DBD8CE" stroke-width="4"/>
<line x1="159.586" y1="138.586" x2="184.586" y2="113.586" stroke="#DBD8CE" stroke-width="4"/>
<line x1="208.586" y1="238.586" x2="233.586" y2="213.586" stroke="#DBD8CE" stroke-width="4"/>
<line x1="159.586" y1="87.5858" x2="184.586" y2="62.5858" stroke="#DBD8CE" stroke-width="4"/>
<line x1="259.586" y1="187.586" x2="284.586" y2="162.586" stroke="#DBD8CE" stroke-width="4"/>
<line x1="108.586" y1="187.586" x2="133.586" y2="162.586" stroke="#DBD8CE" stroke-width="4"/>
<line x1="308.586" y1="187.586" x2="333.586" y2="162.586" stroke="#DBD8CE" stroke-width="4"/>
<line x1="157.586" y1="38.5858" x2="182.586" y2="13.5858" stroke="#DBD8CE" stroke-width="4"/>
<line x1="259.586" y1="138.586" x2="284.586" y2="113.586" stroke="#DBD8CE" stroke-width="4"/>
<line x1="208.586" y1="187.586" x2="233.586" y2="162.586" stroke="#DBD8CE" stroke-width="4"/>
<line x1="308.586" y1="138.586" x2="333.586" y2="113.586" stroke="#DBD8CE" stroke-width="4"/>
<line x1="259.586" y1="87.5858" x2="284.586" y2="62.5858" stroke="#DBD8CE" stroke-width="4"/>
<line x1="108.586" y1="138.586" x2="133.586" y2="113.586" stroke="#DBD8CE" stroke-width="4"/>
<line x1="308.586" y1="87.5858" x2="333.586" y2="62.5858" stroke="#DBD8CE" stroke-width="4"/>
<line x1="208.586" y1="138.586" x2="233.586" y2="113.586" stroke="#DBD8CE" stroke-width="4"/>
<line x1="259.586" y1="38.5858" x2="284.586" y2="13.5858" stroke="#DBD8CE" stroke-width="4"/>
<line x1="308.586" y1="38.5858" x2="333.586" y2="13.5858" stroke="#DBD8CE" stroke-width="4"/>
<line x1="108.586" y1="87.5858" x2="133.586" y2="62.5858" stroke="#DBD8CE" stroke-width="4"/>
<line x1="208.586" y1="87.5858" x2="233.586" y2="62.5858" stroke="#DBD8CE" stroke-width="4"/>
<line x1="108.586" y1="38.5858" x2="133.586" y2="13.5858" stroke="#DBD8CE" stroke-width="4"/>
<line x1="208.586" y1="38.5858" x2="233.586" y2="13.5858" stroke="#DBD8CE" stroke-width="4"/>
<line x1="8.58579" y1="587.586" x2="33.5858" y2="562.586" stroke="#DBD8CE" stroke-width="4"/>
<line x1="8.58579" y1="537.586" x2="33.5858" y2="512.586" stroke="#DBD8CE" stroke-width="4"/>
<line x1="8.58579" y1="488.586" x2="33.5858" y2="463.586" stroke="#DBD8CE" stroke-width="4"/>
<line x1="8.58579" y1="437.586" x2="33.5858" y2="412.586" stroke="#DBD8CE" stroke-width="4"/>
<line x1="8.58579" y1="388.586" x2="33.5858" y2="363.586" stroke="#DBD8CE" stroke-width="4"/>
<line x1="59.5858" y1="587.586" x2="84.5858" y2="562.586" stroke="#DBD8CE" stroke-width="4"/>
<line x1="59.5858" y1="537.586" x2="84.5858" y2="512.586" stroke="#DBD8CE" stroke-width="4"/>
<line x1="59.5858" y1="488.586" x2="84.5858" y2="463.586" stroke="#DBD8CE" stroke-width="4"/>
<line x1="59.5858" y1="437.586" x2="84.5858" y2="412.586" stroke="#DBD8CE" stroke-width="4"/>
<line x1="57.5858" y1="388.586" x2="82.5858" y2="363.586" stroke="#DBD8CE" stroke-width="4"/>
<line x1="159.586" y1="587.586" x2="184.586" y2="562.586" stroke="#DBD8CE" stroke-width="4"/>
<line x1="159.586" y1="537.586" x2="184.586" y2="512.586" stroke="#DBD8CE" stroke-width="4"/>
<line x1="108.586" y1="587.586" x2="133.586" y2="562.586" stroke="#DBD8CE" stroke-width="4"/>
<line x1="259.586" y1="587.586" x2="284.586" y2="562.586" stroke="#DBD8CE" stroke-width="4"/>
<line x1="308.586" y1="587.586" x2="333.586" y2="562.586" stroke="#DBD8CE" stroke-width="4"/>
<line x1="159.586" y1="488.586" x2="184.586" y2="463.586" stroke="#DBD8CE" stroke-width="4"/>
<line x1="208.586" y1="587.586" x2="233.586" y2="562.586" stroke="#DBD8CE" stroke-width="4"/>
<line x1="159.586" y1="437.586" x2="184.586" y2="412.586" stroke="#DBD8CE" stroke-width="4"/>
<line x1="259.586" y1="537.586" x2="284.586" y2="512.586" stroke="#DBD8CE" stroke-width="4"/>
<line x1="108.586" y1="537.586" x2="133.586" y2="512.586" stroke="#DBD8CE" stroke-width="4"/>
<line x1="308.586" y1="537.586" x2="333.586" y2="512.586" stroke="#DBD8CE" stroke-width="4"/>
<line x1="157.586" y1="388.586" x2="182.586" y2="363.586" stroke="#DBD8CE" stroke-width="4"/>
<line x1="259.586" y1="488.586" x2="284.586" y2="463.586" stroke="#DBD8CE" stroke-width="4"/>
<line x1="208.586" y1="537.586" x2="233.586" y2="512.586" stroke="#DBD8CE" stroke-width="4"/>
<line x1="308.586" y1="488.586" x2="333.586" y2="463.586" stroke="#DBD8CE" stroke-width="4"/>
<line x1="259.586" y1="437.586" x2="284.586" y2="412.586" stroke="#DBD8CE" stroke-width="4"/>
<line x1="108.586" y1="488.586" x2="133.586" y2="463.586" stroke="#DBD8CE" stroke-width="4"/>
<line x1="308.586" y1="437.586" x2="333.586" y2="412.586" stroke="#DBD8CE" stroke-width="4"/>
<line x1="208.586" y1="488.586" x2="233.586" y2="463.586" stroke="#DBD8CE" stroke-width="4"/>
<line x1="259.586" y1="388.586" x2="284.586" y2="363.586" stroke="#DBD8CE" stroke-width="4"/>
<line x1="308.586" y1="388.586" x2="333.586" y2="363.586" stroke="#DBD8CE" stroke-width="4"/>
<line x1="108.586" y1="437.586" x2="133.586" y2="412.586" stroke="#DBD8CE" stroke-width="4"/>
<line x1="208.586" y1="437.586" x2="233.586" y2="412.586" stroke="#DBD8CE" stroke-width="4"/>
<line x1="108.586" y1="388.586" x2="133.586" y2="363.586" stroke="#DBD8CE" stroke-width="4"/>
<line x1="208.586" y1="388.586" x2="233.586" y2="363.586" stroke="#DBD8CE" stroke-width="4"/>
</svg>
