<svg width="42" height="40" viewBox="0 0 42 40" fill="none" xmlns="http://www.w3.org/2000/svg">
<path d="M32.5 21C32.5 23.9418 31.396 26.6247 29.579 28.6586C28.8846 29.4358 28.1143 30.1473 27.3233 30.878C27.2949 30.9042 27.2665 30.9305 27.238 30.9567C26.4236 31.7092 25.5905 32.4841 24.8442 33.3461C24.2493 34.0332 23.6583 34.7345 23.1006 35.4674C22.4817 36.2807 21.6237 37.4512 21 38.4794C20.2029 37.1655 19.0201 35.6139 18.4345 34.8645C18.1818 34.5412 17.923 34.2266 17.6644 33.9162C16.8292 32.914 15.8778 32.0231 14.9477 31.1584C14.9169 31.1298 14.8861 31.1012 14.8554 31.0726C13.9501 30.2313 13.0686 29.412 12.2882 28.5073C10.5504 26.4925 9.5 23.8695 9.5 21C9.5 14.6487 14.6487 9.5 21 9.5C27.3513 9.5 32.5 14.6487 32.5 21Z" fill="#201E1E" stroke="#201E1E"/>
<circle cx="21" cy="21" r="7.5" fill="#F5F3EC" stroke="#201E1E"/>
<circle cx="31.5" cy="10.5" r="10" fill="#F5F3EC" stroke="#201E1E"/>
<path d="M38.1111 7.75862V8.2591C38.1111 9.13895 37.7883 9.98821 37.2037 10.6458L35.4811 12.5837C34.2965 13.9164 33.1202 15.2648 32.1534 16.763C31.8968 17.1606 31.662 17.5547 31.5 17.8888C31.2294 17.3306 30.7556 16.6049 30.3165 15.9756C29.658 15.0319 28.9137 14.1529 28.1492 13.2928L25.7963 10.6458C25.2118 9.98821 24.8889 9.13895 24.8889 8.2591V7.61418C24.8889 5.98629 26.2086 4.66663 27.8365 4.66663C28.7564 4.66663 29.6235 5.09611 30.1811 5.82784L31.5 7.55899L32.3952 6.12293C32.9599 5.21714 33.9518 4.66663 35.0191 4.66663C36.7268 4.66663 38.1111 6.05096 38.1111 7.75862Z" fill="#201E1E"/>
</svg>
