<svg width="24" height="31" viewBox="0 0 24 31" fill="none" xmlns="http://www.w3.org/2000/svg">
<path d="M23.5 12C23.5 14.9418 22.396 17.6247 20.579 19.6586C19.8846 20.4358 19.1143 21.1473 18.3233 21.878C18.2949 21.9042 18.2665 21.9305 18.238 21.9567C17.4236 22.7092 16.5905 23.4841 15.8442 24.3461C15.2493 25.0332 14.6583 25.7345 14.1006 26.4674C13.4817 27.2807 12.6237 28.4512 12 29.4794C11.2029 28.1655 10.0201 26.6139 9.43446 25.8645C9.18185 25.5412 8.92303 25.2266 8.66437 24.9162C7.82916 23.914 6.87784 23.0231 5.9477 22.1584C5.9169 22.1298 5.88613 22.1012 5.85539 22.0726C4.95008 21.2313 4.0686 20.412 3.28823 19.5073C1.55036 17.4925 0.5 14.8695 0.5 12C0.5 5.64873 5.64873 0.5 12 0.5C18.3513 0.5 23.5 5.64873 23.5 12Z" fill="#201E1E" stroke="#201E1E"/>
<path d="M20 11.7416V12.3472C20 13.4119 19.6093 14.4396 18.9019 15.2353L16.4441 18.0004C15.2595 19.3331 14.0968 20.6896 13.1004 22.1683C12.6747 22.8001 12.2599 23.4639 12 24C11.6725 23.3245 11.0992 22.4463 10.5679 21.6848C9.77104 20.5429 8.87038 19.4792 7.94525 18.4384L5.09806 15.2353C4.39072 14.4396 4 13.4119 4 12.3472V11.5668C4 9.59691 5.59691 8 7.56679 8C8.67996 8 9.7293 8.51971 10.4039 9.40516L12 11.5L13.0833 9.76225C13.7665 8.66617 14.9668 8 16.2584 8C18.3248 8 20 9.67516 20 11.7416Z" fill="#F5F3EC"/>
</svg>
