<svg width="42" height="40" viewBox="0 0 42 40" fill="none" xmlns="http://www.w3.org/2000/svg">
<path d="M32.5 21C32.5 23.9418 31.396 26.6247 29.579 28.6586C28.8846 29.4358 28.1143 30.1473 27.3233 30.878C27.2949 30.9042 27.2665 30.9305 27.238 30.9567C26.4236 31.7092 25.5905 32.4841 24.8442 33.3461C24.2493 34.0332 23.6583 34.7345 23.1006 35.4674C22.4817 36.2807 21.6237 37.4512 21 38.4794C20.2029 37.1655 19.0201 35.6139 18.4345 34.8645C18.1818 34.5412 17.923 34.2266 17.6644 33.9162C16.8292 32.914 15.8778 32.0231 14.9477 31.1584C14.9169 31.1298 14.8861 31.1012 14.8554 31.0726C13.9501 30.2313 13.0686 29.412 12.2882 28.5073C10.5504 26.4925 9.5 23.8695 9.5 21C9.5 14.6487 14.6487 9.5 21 9.5C27.3513 9.5 32.5 14.6487 32.5 21Z" fill="#201E1E" stroke="#201E1E"/>
<circle cx="21" cy="21" r="7.5" fill="#F5F3EC" stroke="#201E1E"/>
</svg>
