<?xml version="1.0" encoding="UTF-8"?>
<svg id="Calque_2" data-name="Calque 2" xmlns="http://www.w3.org/2000/svg" viewBox="0 0 126.16 126.32">
  <defs>
    <style>
      .cls-1 {
        fill: #201e1e;
      }
    </style>
  </defs>
  <g id="Calque_1-2" data-name="Calque 1">
    <path class="cls-1" d="m72.78,47.38c-.48-1.59-1.67-2.87-3.2-3.48,0-.11.09-.23.26-.32,1.01-.51,1.7-1.33,2.1-2.35.42-1.06.44-2.13.04-3.26-.65-1.83-2.03-2.77-3.73-3.13-1.89-.4-4.65,1.01-5.08,3.27-.03.13-.12.26-.19.38-.12-.12-.25-.23-.35-.36-.06-.08-.11-.18-.13-.28-.23-1.34-1.08-2.15-2.23-2.76-1.19-.64-2.34-.77-3.66-.31-2.11.74-2.98,2.32-3.21,4.17-.21,1.72,1.27,4.41,3.4,4.64.04,0,.09.03.13.05-2.46.53-4.31,2.72-4.31,5.34,0,1.7.78,3.22,1.99,4.22.08.13.15.26.2.4.03.08.29.1.45.1.03,0,.05,0,.08,0,.81.47,1.74.75,2.75.75s1.94-.27,2.75-.75c.05,0,.1,0,.15,0,.15,0,.37-.03.44-.13.17-.23.33-.46.49-.69.35-.34.64-.73.89-1.15.26.45.58.85.95,1.2.13.21.27.4.44.56.2.18.43.24.67.27.79.44,1.7.7,2.67.7s1.97-.28,2.78-.77c.38-.1.68-.33.94-.7.67-.62,1.18-1.4,1.47-2.29.15-.22.2-.42.22-.94.04-.25.06-.51.06-.77s-.02-.52-.06-.77c-.01-.33-.06-.55-.18-.83Zm-12.43-4.14c1.09-.5,1.76-1.36,2.15-2.47.06-.18.13-.37.19-.55.16.21.43.41.47.64.19,1.3,1.07,2.06,2.08,2.72.12.08.23.16.39.28,0,0,0,0,0,0-1.17.44-2.15,1.27-2.78,2.34-.02,0-.03,0-.05,0-.73-1.24-1.94-2.16-3.37-2.52.31-.15.62-.3.93-.44Z"/>
    <path class="cls-1" d="m69.83,82.41c.18-.1.36-.21.55-.29.93-.4,1.52-1.02,1.77-1.84.54-.85.86-1.85.86-2.94,0-3.02-2.45-5.47-5.47-5.47-2.02,0-3.78,1.1-4.73,2.73-.95-1.63-2.71-2.73-4.73-2.73-3.02,0-5.47,2.45-5.47,5.47,0,1.1.33,2.12.88,2.98.12.36.32.68.62.96.43.4.91.76,1.41,1.07.61.38.63.34.09.74-2.59,1.92-3.06,5.23-.66,7.5,1.14,1.08,2.56,1.58,4,1.21,1.66-.44,3.18-1.31,3.55-3.29.02-.13.16-.24.25-.35.14.12.38.21.41.35.27,1.32,1.08,2.19,2.27,2.74,1.12.53,2.17.71,3.5.35,1.97-.53,3.37-2.74,3.34-4.41-.03-1.78-.81-3.19-2.39-4.11-.4-.23-.4-.47-.05-.67Zm-4.45.64c-1.23.62-2.06,1.52-2.25,2.93,0,.06-.19.15-.27.13-.13-.04-.34-.14-.35-.23-.15-1.39-1.04-2.18-2.18-2.81-.34-.19-.29-.47.14-.66.91-.4,1.71-.89,2.06-1.89.02-.07.18-.1.27-.14.07.02.18.04.24.06.02.04.05.07.08.1.4,1.01,1.21,1.52,2.19,1.87.34.12.35.49.07.63Z"/>
    <path class="cls-1" d="m58.27,33.83c1.93-.08,4.13-1.84,3.89-4.18.19-2.12-1.92-4.02-4.05-4.02-2.11,0-4.15,1.88-4.1,4.19.04,2.08,1.92,4.11,4.27,4.02Z"/>
    <path class="cls-1" d="m67.73,33.83c1.93-.08,4.13-1.85,3.88-4.18.19-2.12-1.92-4.02-4.05-4.02-2.11,0-4.15,1.88-4.1,4.19.04,2.08,1.92,4.11,4.27,4.02Z"/>
    <path class="cls-1" d="m67.56,92.49c-2.13,0-4.06,1.91-4.1,4.02-.04,2.3,2,4.37,4.1,4.13,2.13.23,4.06-1.86,4.1-3.97.04-2.3-2-4.19-4.1-4.19Z"/>
    <path class="cls-1" d="m58.21,92.5c-2.31-.06-4.21,1.97-4.21,4.08,0,2.14,1.86,4.07,3.99,4.12,2.31.06,4.38-1.97,4.16-4.08.23-2.14-1.81-4.07-3.94-4.12Z"/>
    <path class="cls-1" d="m29.37,63.82c-2.05,0-4.16,2.07-4.03,4.22.13,2.1,2.06,3.98,4.17,3.9,2.09-.08,4.02-2.02,3.94-4.13,0-2-1.95-4-4.08-3.99Z"/>
    <path class="cls-1" d="m96.4,63.83c-2.09-.12-4.2,1.95-4.19,4.06,0,2.08,2.02,4.1,4.02,4.05,2.12.07,4.06-1.95,4.1-3.97.05-2.1-1.83-4.03-3.93-4.14Z"/>
    <path class="cls-1" d="m96.24,62.5c2.13,0,4.09-2,4.08-3.99.08-2.11-1.85-4.04-3.94-4.13-2.11-.08-4.04,1.8-4.17,3.9-.13,2.15,1.98,4.22,4.03,4.22Z"/>
    <path class="cls-1" d="m29.47,54.38c-2.11-.08-4.04,1.86-4.13,3.94-.08,2.11,1.8,4.04,3.9,4.17,2.15.13,4.22-1.97,4.22-4.03,0-2.13-2-4.09-4-4.08Z"/>
    <path class="cls-1" d="m25.68,49.45c-.2.98.41,1.69.96,2.27.55.58,1.28,1.16,2.27.98.33-.06.68-.06,1,0,.99.19,1.72-.41,2.25-1,.53-.58,1.17-1.27.97-2.28-.1-.48,0-1-.02-1.51,0-.2-.04-.44-.15-.6-.94-1.41-1.95-2.32-3.48-2.05-.11,0-.23.02-.34,0-1.02-.23-1.81.33-2.46.92-.71.65-1.19,1.53-1,2.6.04.22.04.45,0,.67Z"/>
    <path class="cls-1" d="m96.17,73.92c-2.08.04-3.65,1.72-3.66,3.73-.01,2.21,1.71,3.8,3.77,3.79,1.98,0,3.92-1.54,3.7-3.81.19-2.04-1.59-3.75-3.81-3.71Z"/>
    <path class="cls-1" d="m29.32,73.97c-2.06-.17-3.73,1.63-3.68,3.84.05,2.11,1.78,3.64,3.75,3.64,2.03,0,3.78-1.56,3.77-3.8-.01-2.01-1.6-3.91-3.84-3.68Z"/>
    <path class="cls-1" d="m96.18,52.73c2.23.04,3.99-1.69,3.8-3.71.21-2.28-1.74-3.81-3.71-3.81-2.01,0-3.7,1.54-3.76,3.63-.06,2.2,1.6,3.85,3.67,3.89Z"/>
    <path class="cls-1" d="m96.2,42.9c2.16,0,3.45-1.24,3.45-3.35,0-2.15-1.25-3.41-3.39-3.41-2.12,0-3.37,1.28-3.37,3.43,0,2.02,1.29,3.32,3.3,3.32Z"/>
    <path class="cls-1" d="m29.4,42.58c2.13-.05,3.38-1.29,3.38-3.43,0-2.1-1.3-3.34-3.46-3.34-2.08,0-3.27,1.31-3.31,3.5-.02.94.28,1.66.92,2.32.69.71,1.48.98,2.47.95Z"/>
    <path class="cls-1" d="m96.3,83.76c-2.15,0-3.41,1.25-3.41,3.38,0,2.12,1.28,3.38,3.43,3.37,2.09,0,3.34-1.3,3.33-3.47,0-2.01-1.3-3.28-3.34-3.29Z"/>
    <path class="cls-1" d="m29.46,83.76c-2.16,0-3.44,1.25-3.44,3.35,0,2.07,1.25,3.36,3.23,3.42,1.03.03,1.9-.18,2.64-.96.63-.67.92-1.39.91-2.32-.04-2.18-1.24-3.48-3.33-3.49Z"/>
    <path class="cls-1" d="m58.04,23.64c2,.05,3.42-1.56,3.44-3.35,0-1.9-1.5-3.44-3.4-3.39-1.92.06-3.22,1.26-3.34,3.26-.11,1.94,1.4,3.43,3.3,3.48Z"/>
    <path class="cls-1" d="m67.56,23.65c1.76,0,3.42-1.39,3.36-3.42-.06-1.92-1.33-3.23-3.28-3.32-1.96-.09-3.43,1.48-3.46,3.32-.02,2.01,1.6,3.42,3.37,3.42Z"/>
    <path class="cls-1" d="m67.54,102.69c-1.92.06-3.22,1.25-3.34,3.26-.11,1.94,1.4,3.43,3.3,3.48,1.99.05,3.42-1.55,3.44-3.35,0-1.91-1.51-3.44-3.4-3.39Z"/>
    <path class="cls-1" d="m58.21,102.69c-1.94-.11-3.43,1.41-3.47,3.3-.04,2,1.56,3.42,3.35,3.44,1.89,0,3.44-1.49,3.38-3.4-.06-1.92-1.26-3.22-3.26-3.34Z"/>
    <path class="cls-1" d="m105.87,64.51c-1.6-.1-3.46,1.65-3.52,3.32-.06,1.54,1.63,3.34,3.23,3.44,1.6.1,3.46-1.65,3.52-3.32.06-1.54-1.63-3.34-3.23-3.44Z"/>
    <path class="cls-1" d="m20.03,64.51c-1.62-.07-3.46,1.73-3.46,3.38,0,1.57,1.69,3.31,3.29,3.38,1.62.07,3.46-1.73,3.46-3.38,0-1.57-1.69-3.31-3.29-3.38Z"/>
    <path class="cls-1" d="m20.06,55.06c-1.6-.09-3.46,1.68-3.5,3.34-.04,1.55,1.66,3.33,3.26,3.41,1.6.09,3.46-1.68,3.5-3.34.04-1.55-1.66-3.33-3.26-3.41Z"/>
    <path class="cls-1" d="m105.82,61.81c1.6-.07,3.29-1.81,3.29-3.38,0-1.65-1.86-3.44-3.47-3.37-1.6.07-3.29,1.81-3.29,3.38,0,1.65,1.86,3.44,3.47,3.37Z"/>
    <path class="cls-1" d="m48.76,17.23c-2.17,0-3.15.91-3.15,2.97,0,2.14.93,3.11,3.01,3.11,2.08,0,3.07-.98,3.07-3.05,0-2.01-.98-3.02-2.93-3.02Z"/>
    <path class="cls-1" d="m77.31,17.23c-2.02,0-2.99.96-3,2.96,0,2.15.93,3.12,3,3.12,2.09,0,3.08-.97,3.08-3.04,0-2.07-.99-3.04-3.08-3.04Z"/>
    <path class="cls-1" d="m48.65,103.01c-2.07,0-3.04.99-3.04,3.08,0,2.02.96,2.99,2.96,3,2.15,0,3.12-.93,3.12-3,0-2.1-.97-3.08-3.04-3.08Z"/>
    <path class="cls-1" d="m77.45,103.35c-2.16,0-3.13.92-3.14,2.98,0,2.12.95,3.09,3.03,3.1,2.08,0,3.06-.98,3.05-3.07,0-2.01-.97-3-2.94-3.01Z"/>
    <path class="cls-1" d="m17.73,51.22c.5.49,1.23.9,2.17.86.89-.03,1.69-.29,2.19-.8.5-.51.91-1.21.95-2.13.04-.98-.28-1.8-.83-2.36-.49-.5-1.2-.94-2.15-.92-.95.02-1.82.28-2.33.86-.46.52-1.26,1.18-.77,2.15-.44,1.01.21,1.79.76,2.34Z"/>
    <path class="cls-1" d="m105.71,74.7c-1.01-.42-1.74.31-2.3.84-.52.49-.74,1.32-.79,2.2-.05.96.39,1.68.88,2.16.49.49,1.2.94,2.16.89.94-.05,1.79-.31,2.32-.89.48-.53.87-1.25.85-2.18-.02-.9-.3-1.7-.81-2.19-.55-.54-1.3-1.22-2.31-.82Z"/>
    <path class="cls-1" d="m106.1,52.02c1.63-.01,3.02-1.46,3-3.12-.02-1.63-1.47-2.99-3.16-2.96-1.59.03-2.95,1.52-2.92,3.21.03,1.51,1.5,2.89,3.08,2.87Z"/>
    <path class="cls-1" d="m19.94,74.64c-1.56,0-3.01,1.4-3.04,2.92-.03,1.69,1.33,3.14,2.96,3.16,1.67.02,3.11-1.36,3.12-3,.01-1.65-1.4-3.08-3.04-3.08Z"/>
    <path class="cls-1" d="m96.31,93.56c-1.33-.04-3.08,1.69-3.08,3.04,0,1.24,1.64,2.95,2.91,3.04,1.29.09,3.1-1.6,3.16-2.96.06-1.31-1.64-3.09-3-3.12Z"/>
    <path class="cls-1" d="m96.21,32.77c1.32.05,3.08-1.68,3.1-3.02.01-1.36-1.71-3.08-3.07-3.05-1.26.02-2.94,1.66-3.01,2.94-.07,1.31,1.61,3.09,2.98,3.14Z"/>
    <path class="cls-1" d="m29.44,32.77c1.36-.04,3.06-1.81,3-3.12-.07-1.35-1.87-3.04-3.16-2.96-1.36.09-3.03,1.92-2.91,3.21.12,1.31,1.83,2.91,3.08,2.87Z"/>
    <path class="cls-1" d="m29.31,93.56c-1.36.07-3.04,1.88-2.95,3.17.09,1.3,1.78,2.91,3.05,2.9,1.35,0,3.07-1.77,3.03-3.09-.04-1.36-1.83-3.06-3.13-2.99Z"/>
    <path class="cls-1" d="m105.91,42.24c1.67-.03,2.83-1.04,2.86-2.61.03-1.67-1.03-2.79-2.63-2.81-1.64-.02-2.68,1.07-2.8,2.67-.1,1.32,1.25,2.77,2.57,2.75Z"/>
    <path class="cls-1" d="m20.03,84.44c-1.66-.02-2.77,1.04-2.79,2.66-.01,1.62,1.09,2.74,2.7,2.74,1.61,0,2.72-1.12,2.7-2.74-.01-1.55-1.09-2.64-2.62-2.66Z"/>
    <path class="cls-1" d="m38.83,103.35c-1.61.01-2.69,1.13-2.67,2.77.02,1.6,1.15,2.66,2.81,2.63,1.51-.02,2.58-1.14,2.59-2.69,0-1.62-1.11-2.73-2.73-2.72Z"/>
    <path class="cls-1" d="m19.87,41.88c1.64.02,2.76-1.06,2.77-2.67,0-1.62-1.1-2.73-2.72-2.73-1.55,0-2.66,1.08-2.69,2.59-.03,1.67,1.03,2.79,2.63,2.81Z"/>
    <path class="cls-1" d="m39.23,17.57c-1.62-.01-2.74,1.09-2.74,2.7s1.07,2.68,2.58,2.7c1.67.03,2.81-1.03,2.83-2.62.02-1.66-1.04-2.77-2.66-2.79Z"/>
    <path class="cls-1" d="m105.71,84.44c-1.61,0-2.71,1.13-2.69,2.76.02,1.61,1.14,2.67,2.8,2.65,1.52-.02,2.59-1.12,2.6-2.67.01-1.62-1.1-2.74-2.72-2.73Z"/>
    <path class="cls-1" d="m86.98,17.57c-1.53-.27-2.93,1.33-2.89,2.58.06,1.67,1.05,2.81,2.64,2.83,1.57.02,2.66-1.03,2.81-2.49.15-1.61-1.25-2.98-2.55-2.91Z"/>
    <path class="cls-1" d="m86.94,103.69c-1.67-.03-2.81,1.02-2.83,2.62-.02,1.66,1.04,2.77,2.66,2.79,1.62.01,2.74-1.09,2.74-2.7,0-1.55-1.07-2.68-2.57-2.7Z"/>
    <path class="cls-1" d="m58.03,13.22c1.31.03,2.6-1.01,2.44-2.33.21-1.31-.97-2.45-2.29-2.48-1.31-.03-2.45,1.01-2.48,2.33-.03,1.31,1.01,2.45,2.33,2.48Z"/>
    <path class="cls-1" d="m67.54,13.18c1.58,0,2.38-.77,2.39-2.34,0-1.58-.77-2.38-2.34-2.39-1.58,0-2.38.77-2.39,2.34,0,1.58.77,2.38,2.34,2.39Z"/>
    <path class="cls-1" d="m59.64,114.16c-.42-.49-.88-.69-1.57-.72-.75-.03-1.12.36-1.55.79-.42.43-.86.78-.8,1.54.09,1.26,1.13,2.38,2.35,2.47.71.05,1.16-.21,1.58-.7.42-.49,1.11-.84.79-1.68.32-.84-.37-1.19-.79-1.68Z"/>
    <path class="cls-1" d="m67.67,113.45c-.64.06-1.17.1-1.6.66-.39.51-.95.85-.91,1.67.03.67.18,1.16.69,1.59.5.41.85,1.09,1.76.79.68.37,1.04-.21,1.48-.63.48-.46.88-.88.87-1.69,0-.73-.33-1.13-.77-1.55-.43-.41-.76-.9-1.53-.83Z"/>
    <path class="cls-1" d="m114,60.12c.51.26,1.04.48,1.54.71.5-.48,1.35-.24,1.69-.91.25-.51.73-1.16.58-1.56-.2-.55-.15-1.35-.84-1.67-.52-.24-1.06-.42-1.6-.62-.42.54-1.35.16-1.64.93-.18.49-.66,1.07-.52,1.42.22.56.1,1.35.78,1.69Z"/>
    <path class="cls-1" d="m117,66.52c-.51-.25-1.16-.73-1.56-.58-.55.2-1.35.15-1.67.84-.24.52-.42,1.06-.62,1.6.54.42.16,1.35.93,1.64.49.18,1.07.66,1.42.52.56-.22,1.35-.1,1.69-.78.26-.51.48-1.04.71-1.54-.48-.5-.24-1.35-.91-1.69Z"/>
    <path class="cls-1" d="m12.19,56.86c-.51-.54-1.24-.34-1.71-.79-.41.48-1.08.28-1.59.69-.56.45-.21,1.21-.77,1.56.21.53.39,1.08.64,1.59.33.67,1.12.65,1.67.82.42.13,1.05-.35,1.56-.6.68-.34.42-1.18.97-1.78-.74-.23-.3-.99-.77-1.48Z"/>
    <path class="cls-1" d="m10.58,65.53c-.53.22-1.07.4-1.58.65-.67.33-.66,1.12-.81,1.67-.12.43.36,1.04.61,1.55.34.68,1.2.4,1.71.88.41-.55,1.2-.24,1.68-.83.4-.5.25-1.15.67-1.59-.46-.42-.29-1.08-.7-1.58-.45-.56-1.21-.19-1.57-.76Z"/>
    <path class="cls-1" d="m48.76,12.84c1.36-.02,1.93-.65,1.92-2.09-.02-1.38-.62-1.97-2.05-1.96-1.13-.2-2.1.8-2.03,2.01.1,1.49.61,2.07,2.16,2.04Z"/>
    <path class="cls-1" d="m77.4,12.84c1.4-.01,1.98-.61,1.98-2.03,0-1.42-.59-2.01-1.99-2.02-1.43-.01-2.05.57-2.07,1.94-.02,1.58.51,2.12,2.07,2.11Z"/>
    <path class="cls-1" d="m27.83,21.6c.44.31.71.83,1.4.71.53-.09,1.09.09,1.5-.48.31-.44.83-.71.71-1.4-.09-.53.09-1.09-.48-1.49-.44-.31-.72-.88-1.35-.7-.59.02-1.14-.1-1.55.46-.31.44-.83.71-.71,1.4.09.53-.09,1.09.48,1.5Z"/>
    <path class="cls-1" d="m19.94,94.57c-1.23,0-2.02.8-2.02,2.03,0,1.23.8,2.02,2.03,2.02,1.23,0,2.02-.8,2.02-2.03,0-1.23-.8-2.02-2.03-2.02Z"/>
    <path class="cls-1" d="m105.68,94.57c-1.2,0-1.99.83-1.98,2.07,0,1.2.83,1.99,2.07,1.98,1.2,0,1.99-.83,1.98-2.07,0-1.2-.83-1.99-2.07-1.98Z"/>
    <path class="cls-1" d="m20.02,31.75c1.19-.01,1.96-.85,1.95-2.1-.01-1.19-.85-1.96-2.1-1.95-1.19.01-1.96.85-1.95,2.1.01,1.19.85,1.96,2.1,1.95Z"/>
    <path class="cls-1" d="m29.32,104.03c-1.19.01-1.96.85-1.95,2.1.01,1.19.85,1.96,2.1,1.95,1.19-.01,1.96-.85,1.95-2.1-.01-1.19-.85-1.96-2.1-1.95Z"/>
    <path class="cls-1" d="m96.27,104.36c-1.23,0-2.02.8-2.02,2.03,0,1.23.8,2.02,2.03,2.02,1.23,0,2.02-.8,2.02-2.03,0-1.23-.8-2.02-2.03-2.02Z"/>
    <path class="cls-1" d="m96.27,22.3c1.23,0,2.02-.8,2.02-2.03,0-1.23-.8-2.02-2.03-2.02-1.23,0-2.02.8-2.02,2.03,0,1.23.8,2.02,2.03,2.02Z"/>
    <path class="cls-1" d="m48.7,113.82c-1.24,0-2.07.78-2.07,1.98,0,1.24.78,2.07,1.98,2.07,1.24,0,2.07-.78,2.07-1.98,0-1.24-.78-2.07-1.98-2.07Z"/>
    <path class="cls-1" d="m76.94,113.82c-1.19.01-1.96.85-1.95,2.1.01,1.19.85,1.96,2.1,1.95,1.19-.01,1.96-.85,1.95-2.1-.01-1.19-.85-1.96-2.1-1.95Z"/>
    <path class="cls-1" d="m10.51,75.32c-1.07-.02-2.03.92-2.05,2-.02,1.07.92,2.03,2,2.05,1.07.02,2.03-.92,2.05-2,.02-1.07-.92-2.03-2-2.05Z"/>
    <path class="cls-1" d="m10.41,50.98c1.19.06,2.02-.8,2.08-1.93.06-1.19-.8-1.94-1.93-2.1-1.19.03-2.02.82-2.08,1.95-.06,1.19.8,2.02,1.93,2.08Z"/>
    <path class="cls-1" d="m115.5,75.66c-1.08.02-2.02.98-2,2.05.02,1.08.98,2.02,2.05,2,1.08-.02,2.02-.98,2-2.05-.02-1.08-.98-2.02-2.05-2Z"/>
    <path class="cls-1" d="m106.06,31.75c1,0,2.01-.89,2.02-2.03,0-1-.89-2.01-2.03-2.02-1,0-2.01.89-2.02,2.03,0,1,.89,2,2.03,2.02Z"/>
    <path class="cls-1" d="m115.5,51c1.07.02,2.03-.92,2.05-2,.02-1.07-.92-2.03-2-2.05-1.07-.02-2.03.92-2.05,2-.02,1.07.92,2.03,2,2.05Z"/>
    <path class="cls-1" d="m86.85,12.5c.93-.02,1.65-.76,1.65-1.69,0-1-.82-1.8-1.81-1.68-1.01.12-1.59.74-1.56,1.76.02.89.84,1.63,1.72,1.61Z"/>
    <path class="cls-1" d="m39.23,12.5c.93-.02,1.65-.76,1.65-1.68,0-1-.81-1.8-1.81-1.68-.98.11-1.59.72-1.57,1.76.02.89.83,1.63,1.72,1.61Z"/>
    <path class="cls-1" d="m38.86,114.16c-.73,0-1.69.96-1.69,1.69,0,.73.96,1.69,1.69,1.69.73,0,1.69-.96,1.69-1.69,0-.73-.96-1.69-1.69-1.69Z"/>
    <path class="cls-1" d="m86.86,114.16c-.74-.02-1.72.9-1.74,1.64-.02.74.9,1.72,1.64,1.74.74.02,1.72-.9,1.74-1.64.02-.74-.9-1.72-1.64-1.74Z"/>
    <path class="cls-1" d="m115.47,41.21c.54.04,1.69-1.05,1.74-1.64.04-.54-1.05-1.69-1.64-1.74-.54-.04-1.69,1.05-1.74,1.64-.04.54,1.05,1.69,1.64,1.74Z"/>
    <path class="cls-1" d="m10.49,40.87c.53,0,1.69-1.16,1.69-1.69,0-.53-1.16-1.69-1.69-1.69-.53,0-1.69,1.16-1.69,1.69,0,.53,1.16,1.69,1.69,1.69Z"/>
    <path class="cls-1" d="m10.51,85.45c-.52-.03-1.68,1.1-1.71,1.66-.03.52,1.1,1.68,1.66,1.71.52.03,1.68-1.1,1.71-1.66.03-.52-1.1-1.68-1.66-1.71Z"/>
    <path class="cls-1" d="m115.49,85.45c-.56.03-1.69,1.19-1.66,1.71.03.56,1.19,1.69,1.71,1.66.56-.03,1.69-1.19,1.66-1.71-.03-.56-1.19-1.69-1.71-1.66Z"/>
    <path class="cls-1" d="m58.15,2.03c.69-.02.97-.31.97-1.01,0-.77-.33-1.07-1.14-1.01-.65.04-.92.38-.89,1.1.03.67.34.95,1.06.93Z"/>
    <path class="cls-1" d="m67.9,2.03c.77,0,1.07-.33,1.01-1.14-.04-.65-.38-.92-1.1-.89-.67.03-.95.34-.93,1.06.02.69.31.97,1.01.97Z"/>
    <path class="cls-1" d="m20.07,21.28c.65-.04.92-.38.89-1.1-.03-.67-.34-.95-1.06-.93-.69.02-.97.31-.97,1.01,0,.77.33,1.07,1.14,1.01Z"/>
    <path class="cls-1" d="m105.99,21.28c.82.03,1.11-.25,1.08-1.07-.02-.69-.31-.96-1.03-.96-.7,0-.99.29-1,.98-.01.71.27,1.02.94,1.04Z"/>
    <path class="cls-1" d="m19.91,105.04c-.74.01-1.05.37-.98,1.17.05.63.41.9,1.13.86.65-.04.93-.37.9-1.08-.03-.68-.33-.95-1.04-.94Z"/>
    <path class="cls-1" d="m105.75,105.38c-.71-.01-1.02.27-1.04.94-.03.82.25,1.11,1.07,1.08.69-.02.96-.31.96-1.03,0-.7-.29-.99-.98-1Z"/>
    <path class="cls-1" d="m58.15,124.29c-.71-.02-1.02.26-1.06.93-.04.82.25,1.12,1.06,1.1.69-.02.97-.31.97-1.01,0-.71-.28-1-.97-1.01Z"/>
    <path class="cls-1" d="m67.65,124.29c-.82-.04-1.12.25-1.1,1.06.02.69.31.97,1.01.97s1-.28,1.01-.97c.02-.71-.26-1.02-.93-1.06Z"/>
    <path class="cls-1" d="m30.39,10.88c.15-.22-.81-1.21-1.03-1.06-.38.26-.9.65-.91,1-.01.35.52.72.91,1.18.41-.44.77-.75,1.03-1.13Z"/>
    <path class="cls-1" d="m96.39,11.76c.35-.02.66-.6,1.07-1.02-.48-.37-.82-.73-1.24-.91-.26-.11-1.12.97-.95,1.14.34.33.76.82,1.12.8Z"/>
    <path class="cls-1" d="m126.16,68.15c-.48-.37-.82-.73-1.24-.91-.26-.11-1.12.97-.95,1.14.34.33.76.82,1.12.8.35-.02.66-.6,1.07-1.02Z"/>
    <path class="cls-1" d="m115.5,30.67c.35.02.73-.51,1.21-.88-.42-.42-.72-.79-1.09-1.07-.2-.15-1.23.78-1.09,1,.24.39.62.92.97.94Z"/>
    <path class="cls-1" d="m10.52,95.65c-.36,0-.75.52-1.03.88-.16.2.8,1.2,1.03,1.06.39-.24.71-.6,1.17-1-.46-.4-.82-.95-1.17-.94Z"/>
    <path class="cls-1" d="m114.53,96.63c.26.38.65.9,1,.91.35.01.72-.52,1.18-.91-.44-.41-.75-.77-1.13-1.03-.22-.15-1.21.81-1.06,1.03Z"/>
    <path class="cls-1" d="m28.41,115.86c-.14.23.9,1.15,1.1.99.36-.29.67-.65,1.08-1.07-.48-.37-.87-.9-1.22-.87-.35.03-.72.56-.96.95Z"/>
    <path class="cls-1" d="m95.28,115.82c-.15.22.85,1.17,1.07,1.02.38-.27.69-.63,1.12-1.05-.47-.38-.85-.91-1.19-.9-.35.02-.73.54-.99.92Z"/>
    <path class="cls-1" d="m10.57,30.67c.25.06.67-.56,1.11-.97-.46-.39-.83-.93-1.17-.92-.35.01-.69.57-1.03.89.36.36.67.89,1.1,1Z"/>
    <path class="cls-1" d="m124.96,59.63c.4-.45,1.02-.87.96-1.12-.11-.42-.65-.73-1.01-1.09-.32.35-.87.69-.88,1.04,0,.35.54.71.93,1.17Z"/>
    <path class="cls-1" d="m.72,59.11c.44.07.69-.03.66-.59-.04-.75,0-.73-.69-.76-.46-.02-.72.04-.69.6.04.75,0,.76.72.76Z"/>
    <path class="cls-1" d="m.69,68.57c.7-.03.7,0,.68-.79.11-.55-.21-.6-.67-.58-.7.03-.66.01-.69.76-.03.56.22.63.68.61Z"/>
    <path class="cls-1" d="m77.38,1.69c.44.07.69-.03.66-.59-.04-.75,0-.73-.69-.76-.46-.02-.72.04-.69.6.04.75,0,.76.72.76Z"/>
    <path class="cls-1" d="m48.48,1.71c.81-.02.84.02.84-.61,0-.34.19-.86-.5-.76-.81-.04-.84-.03-.84.59,0,.34-.19.79.5.78Z"/>
    <path class="cls-1" d="m124.98,49.66c.45.02.78-.03.67-.58.02-.78.02-.76-.68-.79-.46-.02-.72.04-.69.6.04.75,0,.73.69.76Z"/>
    <path class="cls-1" d="m48.73,124.61c-.75.04-.73,0-.76.69-.02.46.05.71.61.68.75-.04.75,0,.75-.72.08-.44-.04-.69-.6-.66Z"/>
    <path class="cls-1" d="m77.19,124.61c-.81.02-.84-.02-.84.61,0,.34-.19.86.5.76.81.04.84.03.84-.59,0-.34.19-.79-.5-.78Z"/>
    <path class="cls-1" d="m1.32,49.06c-.1-.3-.44-.51-.69-.76-.21.23-.56.45-.58.69-.01.23.33.49.61.86.3-.34.71-.64.66-.79Z"/>
    <path class="cls-1" d="m.04,77.31c-.12.25.48.82.73.69.26-.13.46-.4.79-.7-.37-.27-.63-.61-.86-.59-.24.02-.53.34-.66.6Z"/>
    <path class="cls-1" d="m124.32,77.68c-.11.26.52.8.76.66.26-.15.44-.43.74-.73-.37-.26-.63-.59-.87-.56-.23.02-.52.36-.63.63Z"/>
    <path class="cls-1" d="m125.06,86.82c-.16.06-.31.19-.41.33-.02.03.16.3.24.3.16,0,.32-.12.6-.25-.24-.22-.37-.41-.43-.39Z"/>
    <path class="cls-1" d="m124.99,39.84c.06.04.23-.12.5-.27-.24-.18-.37-.33-.52-.37-.09-.02-.22.15-.33.24.11.14.21.31.35.4Z"/>
    <path class="cls-1" d="m1.01,39.27c-.06-.16-.19-.31-.33-.41-.03-.02-.3.16-.3.24,0,.16.12.32.25.6.22-.24.41-.37.39-.43Z"/>
    <path class="cls-1" d="m106.38,10.9c-.06-.16-.19-.31-.33-.41-.03-.02-.3.16-.3.24,0,.16.12.32.25.6.22-.24.41-.37.39-.43Z"/>
    <path class="cls-1" d="m115.84,20.26c.04-.06-.12-.23-.27-.5-.18.24-.33.37-.37.52-.02.09.15.22.24.33.14-.11.31-.21.4-.35Z"/>
    <path class="cls-1" d="m10.81,20.28c-.09-.15-.26-.24-.4-.35-.09.11-.26.24-.24.33.04.16.19.28.37.52.15-.27.3-.44.27-.5Z"/>
    <path class="cls-1" d="m20.46,10.76c-.27-.15-.44-.3-.5-.27-.15.09-.24.26-.35.4.11.09.24.26.33.24.16-.04.28-.19.52-.37Z"/>
    <path class="cls-1" d="m87.33.97c-.27-.15-.44-.3-.5-.27-.15.09-.24.26-.35.4.11.09.24.26.33.24.16-.04.28-.19.52-.37Z"/>
    <path class="cls-1" d="m19.87,115.33c-.12.28-.24.44-.25.6,0,.09.27.27.3.24.14-.1.28-.25.33-.41.02-.06-.17-.2-.39-.43Z"/>
    <path class="cls-1" d="m105.81,115.53c-.16.06-.31.19-.41.33-.02.03.16.3.24.3.16,0,.32-.12.6-.25-.24-.22-.37-.41-.43-.39Z"/>
    <path class="cls-1" d="m39.11,1.34c.16,0,.32-.12.6-.25-.24-.22-.37-.41-.43-.39-.16.06-.31.19-.41.33-.02.03.16.3.24.3Z"/>
    <path class="cls-1" d="m.37,87.12c.1.14.25.28.41.33.06.02.2-.17.43-.39-.28-.12-.44-.24-.6-.25-.09,0-.27.27-.24.3Z"/>
    <path class="cls-1" d="m10.41,105.54c-.12.28-.24.44-.25.6,0,.09.27.27.3.24.14-.1.28-.25.33-.41.02-.06-.17-.2-.39-.43Z"/>
    <path class="cls-1" d="m115.45,105.87c-.12.28-.24.44-.25.6,0,.09.27.27.3.24.14-.1.28-.25.33-.41.02-.06-.17-.2-.39-.43Z"/>
    <path class="cls-1" d="m38.84,124.98s-.3.16-.3.24c0,.16.12.32.25.6.22-.24.41-.37.39-.43-.06-.16-.19-.31-.33-.41Z"/>
    <path class="cls-1" d="m86.49,125.29c.1.14.25.28.41.33.06.02.2-.17.43-.39-.28-.12-.44-.24-.6-.25-.09,0-.27.27-.24.3Z"/>
  </g>
</svg>