<svg width="18" height="19" viewBox="0 0 18 19" fill="none" xmlns="http://www.w3.org/2000/svg">
<path d="M17.5 4.88111V5.31971C17.5 6.40046 17.0949 7.44195 16.3646 8.23864L13.8172 11.0176C12.6061 12.3388 11.4168 13.6845 10.3934 15.1559C9.95135 15.7914 9.5198 16.4604 9.25 17C8.90968 16.3194 8.31198 15.4328 7.76055 14.6674C6.94601 13.5367 6.02879 12.4859 5.08716 11.4587L2.13542 8.23864C1.40512 7.44195 1 6.40046 1 5.31971V4.70112C1 2.65705 2.65705 1 4.70112 1C5.83685 1 6.90971 1.52144 7.61138 2.41449L9.25 4.5L10.3542 2.78237C11.0683 1.67151 12.2983 1 13.6189 1C15.7624 1 17.5 2.73763 17.5 4.88111Z" stroke="#201E1E"/>
</svg>
