<?xml version="1.0" encoding="utf-8"?>
<!-- Generator: Adobe Illustrator 27.1.1, SVG Export Plug-In . SVG Version: 6.00 Build 0)  -->
<svg version="1.1" id="Calque_1" xmlns="http://www.w3.org/2000/svg" xmlns:xlink="http://www.w3.org/1999/xlink" x="0px" y="0px"
	 viewBox="0 0 84 104" style="enable-background:new 0 0 84 104;" xml:space="preserve">
<g>
	<path d="M42,0C18.8,0,0,18.8,0,42c0,40.8,40.7,61.6,41.1,61.8c0.6,0.3,1.2,0.3,1.8,0C43.3,103.6,84,82.8,84,42C84,18.8,65.2,0,42,0
		z M42,99.7C36.2,96.5,4,77,4,42C4,21,21,4,42,4s38,17,38,38C80,77,47.8,96.5,42,99.7z"/>
	<path d="M42,20c-12.2,0-22,9.8-22,22s9.8,22,22,22s22-9.8,22-22S54.2,20,42,20z M42,60c-9.9,0-18-8.1-18-18s8.1-18,18-18
		s18,8.1,18,18S51.9,60,42,60z"/>
</g>
</svg>
