<?xml version="1.0" encoding="utf-8"?>
<!-- Generator: Adobe Illustrator 27.1.1, SVG Export Plug-In . SVG Version: 6.00 Build 0)  -->
<svg version="1.1" id="Calque_1" xmlns="http://www.w3.org/2000/svg" xmlns:xlink="http://www.w3.org/1999/xlink" x="0px" y="0px"
	 viewBox="0 0 77.8 75.9" style="enable-background:new 0 0 77.8 75.9;" xml:space="preserve">
<path d="M12.5,6.3c0.6,0,1-0.4,1-1V4.1h1.2c0.6,0,1-0.4,1-1s-0.4-1-1-1h-1.2V1c0-0.6-0.4-1-1-1s-1,0.4-1,1v1.2h-1.2
	c-0.6,0-1,0.4-1,1s0.4,1,1,1h1.2v1.2C11.5,5.8,11.9,6.3,12.5,6.3z"/>
<path d="M72.3,75.3c0.6,0,1-0.4,1-1v-1.2h1.2c0.6,0,1-0.4,1-1s-0.4-1-1-1h-1.2v-1.2c0-0.6-0.4-1-1-1s-1,0.4-1,1v1.2h-1.2
	c-0.6,0-1,0.4-1,1s0.4,1,1,1h1.2v1.2C71.3,74.8,71.7,75.3,72.3,75.3z"/>
<path d="M72.3,25.2c-0.6,0-1,0.4-1,1v2.2h-2.2c-0.6,0-1,0.4-1,1s0.4,1,1,1h2.2v2.2c0,0.6,0.4,1,1,1s1-0.4,1-1v-2.2h2.2
	c0.6,0,1-0.4,1-1s-0.4-1-1-1h-2.2v-2.2C73.3,25.6,72.8,25.2,72.3,25.2z"/>
<path d="M63,13.2c0.6,0,1-0.4,1-1V10h2.2c0.6,0,1-0.4,1-1s-0.4-1-1-1H64V5.8c0-0.6-0.4-1-1-1s-1,0.4-1,1V8h-2.2c-0.6,0-1,0.4-1,1
	s0.4,1,1,1H62v2.2C62,12.8,62.4,13.2,63,13.2z"/>
<path d="M3.9,25.8c0.6,0,1-0.4,1-1v-1.7h1.7c0.6,0,1-0.4,1-1s-0.4-1-1-1H4.9v-1.7c0-0.6-0.4-1-1-1s-1,0.4-1,1v1.7H1.2
	c-0.6,0-1,0.4-1,1s0.4,1,1,1h1.7v1.7C2.9,25.4,3.3,25.8,3.9,25.8z"/>
<path d="M7.2,75.8c0.6,0,1-0.4,1-1v-1.7h1.7c0.6,0,1-0.4,1-1s-0.4-1-1-1H8.2v-1.7c0-0.6-0.4-1-1-1s-1,0.4-1,1v1.7H4.5
	c-0.6,0-1,0.4-1,1s0.4,1,1,1h1.7v1.7C6.2,75.4,6.6,75.8,7.2,75.8z"/>
<circle cx="75.5" cy="58.1" r="1.2"/>
<circle cx="1.2" cy="56.3" r="1.2"/>
<circle cx="76.6" cy="9" r="1.2"/>
<circle cx="24.9" cy="13.6" r="1.2"/>
<path d="M66,47.6c0-8.9-4.1-16.9-10.5-22.1c0,0-0.1,0-0.1-0.1c-4.5-3.6-10.2-5.9-16.3-6.1V2.8c0-0.6-0.4-1-1-1s-1,0.4-1,1v16.5
	c-15,0.6-27,13-27,28.3c0,15.6,12.5,28.3,27.9,28.3C53.4,75.9,66,63.2,66,47.6z M33.7,73.6v-9.1h9v9c-1.5,0.3-3.1,0.4-4.7,0.4
	C36.6,73.9,35.1,73.8,33.7,73.6z M22.6,64.5h9v8.7c-3.3-0.9-6.4-2.4-9-4.4v-0.1V64.5z M12.8,53.5h7.9v9h-4
	C14.8,59.8,13.5,56.7,12.8,53.5z M17.7,31.3c0.1,0,0.2,0.1,0.3,0.1h2.6v9h-7.5C14.1,37.1,15.6,34,17.7,31.3z M38,21.3
	c1.6,0,3.2,0.2,4.7,0.4c-0.1,0.1-0.1,0.3-0.1,0.4v7.3h-9v-7.3c0-0.2,0-0.3-0.1-0.4C35,21.4,36.5,21.3,38,21.3z M58.4,31.4
	c2,2.7,3.6,5.7,4.5,9h-7.2v-9H58.4L58.4,31.4z M59.4,62.5h-3.7v-9h7.6C62.6,56.7,61.2,59.8,59.4,62.5z M44.7,62.5v-9h9v9H44.7z
	 M53.7,64.5v4.1c-2.7,2.1-5.7,3.6-9,4.5v-8.6H53.7z M33.7,42.4h9v9h-9V42.4z M31.7,51.5h-9v-9h9V51.5z M33.7,40.4v-9h9v9H33.7z
	 M44.7,42.4h9v9h-9V42.4z M42.7,53.5v9h-9v-9H42.7z M55.7,51.5v-9h7.7c0.3,1.7,0.5,3.4,0.5,5.2c0,1.3-0.1,2.6-0.3,3.8H55.7z
	 M53.7,40.4h-9v-9h9V40.4z M44.7,29.4v-7.2c3.3,0.9,6.4,2.4,9,4.5v2.7H44.7z M31.7,22.1v7.3h-9v-2.8v-0.1
	C25.3,24.5,28.4,22.9,31.7,22.1L31.7,22.1z M31.7,31.4v9h-9v-9H31.7z M20.6,42.4v9h-8.2c-0.2-1.3-0.3-2.5-0.3-3.8
	c0-1.8,0.2-3.5,0.5-5.2H20.6z M22.6,53.5h9v9h-9V53.5z M55.7,66.8v-2.3h2.2C57.2,65.3,56.5,66.1,55.7,66.8z M56.7,29.4h-1v-1
	C56.1,28.7,56.4,29.1,56.7,29.4z M20.6,28.1v1.3h-1.3C19.8,29,20.2,28.5,20.6,28.1z M18.2,64.5h2.5v2.6
	C19.8,66.3,18.9,65.4,18.2,64.5z"/>
</svg>
