<svg width="176" height="78" viewBox="0 0 176 78" fill="none" xmlns="http://www.w3.org/2000/svg">
<path fill-rule="evenodd" clip-rule="evenodd" d="M140.697 62.7744C109.211 80.2616 72.0855 80.0139 39.0744 65.6648C25.0963 59.5895 2 39.6732 2 39.6732C2 39.6732 15.0078 26.101 35.3034 14.83C66.7892 -2.65713 104.402 -3.49391 136.926 11.9397C148.98 17.6563 161.95 25.9388 174 37.9313C174 37.9313 160.992 51.5034 140.697 62.7744Z" stroke="#292929" stroke-width="2"/>
<path d="M135.272 11.2516C135.272 37.6726 114.105 59.0927 87.9979 59.0927C61.8904 59.0927 40.7285 37.6726 40.7285 11.2516" stroke="#292929" stroke-width="2"/>
<path fill-rule="evenodd" clip-rule="evenodd" d="M106.795 19.2252C106.795 29.2906 98.381 37.4503 88.0022 37.4503C77.619 37.4503 69.2053 29.2906 69.2053 19.2252C69.2053 9.1597 77.619 1 88.0022 1C98.381 1 106.795 9.1597 106.795 19.2252Z" stroke="#292929" stroke-width="2"/>
</svg>
