<?xml version="1.0" encoding="utf-8"?>
<!-- Generator: Adobe Illustrator 27.1.1, SVG Export Plug-In . SVG Version: 6.00 Build 0)  -->
<svg version="1.1" id="Calque_1" xmlns="http://www.w3.org/2000/svg" xmlns:xlink="http://www.w3.org/1999/xlink" x="0px" y="0px"
	 viewBox="0 0 78.7 75.4" style="enable-background:new 0 0 78.7 75.4;" xml:space="preserve">
<g>
	<path d="M51.8,75.4H63c2.4,0,4.4-2,4.4-4.4V42.8c0-1.4,1.1-2.4,2.4-2.4h6.5c2.3,0,3.3-3,1.5-4.4L40.9,0.5c-0.9-0.7-2.1-0.7-3,0
		L1,36c-1.9,1.4-0.8,4.4,1.5,4.4H9c1.4,0,2.4,1.1,2.4,2.4V71c0,2.4,2,4.4,4.4,4.4H27c2.4,0,4.4-2,4.4-4.4V52.8
		c0-1.4,1.1-2.4,2.4-2.4h11.1c1.4,0,2.4,1.1,2.4,2.4V71C47.4,73.4,49.4,75.4,51.8,75.4z"/>
</g>
</svg>
