<?xml version="1.0" encoding="utf-8"?>
<!-- Generator: Adobe Illustrator 27.1.1, SVG Export Plug-In . SVG Version: 6.00 Build 0)  -->
<svg version="1.1" id="Calque_1" xmlns="http://www.w3.org/2000/svg" xmlns:xlink="http://www.w3.org/1999/xlink" x="0px" y="0px"
	 viewBox="0 0 73.3 73.4" style="enable-background:new 0 0 73.3 73.4;" xml:space="preserve">
<g>
	<path d="M73.1,36.7c0.4-1,0.2-2.2-0.6-2.9l-34-33c-1-1-2.7-1-3.7,0l-34,33c-0.8,0.8-1,1.9-0.6,2.9s1.4,1.7,2.5,1.7H7
		c0.4,0,0.7,0.3,0.7,0.7v31.7c0,1.5,1.2,2.7,2.7,2.7h16.7c1.5,0,2.7-1.2,2.7-2.7V49.2c0-0.4,0.3-0.7,0.7-0.7h12.7
		c0.4,0,0.7,0.3,0.7,0.7v21.6c0,1.5,1.2,2.7,2.7,2.7h16.7c1.5,0,2.7-1.2,2.7-2.7V39.1c0-0.4,0.3-0.7,0.7-0.7h3.9
		C71.7,38.4,72.7,37.7,73.1,36.7z M63.6,39.1v31.7c0,0.4-0.3,0.7-0.7,0.7H46.3c-0.4,0-0.7-0.3-0.7-0.7V49.2c0-1.5-1.2-2.7-2.7-2.7
		H30.3c-1.5,0-2.7,1.2-2.7,2.7v21.6c0,0.4-0.3,0.7-0.7,0.7H10.3c-0.4,0-0.7-0.3-0.7-0.7V39.1c0-1.5-1.2-2.7-2.7-2.7H2.6
		C2.2,36.4,2,36.1,2,36s-0.1-0.4,0.2-0.7l34-33c0.3-0.3,0.7-0.3,0.9,0l34,33c0.3,0.3,0.2,0.6,0.2,0.7s-0.3,0.4-0.7,0.4h-4.3
		C64.8,36.4,63.6,37.6,63.6,39.1z"/>
</g>
</svg>
