<?xml version="1.0" encoding="utf-8"?>
<!-- Generator: Adobe Illustrator 27.1.1, SVG Export Plug-In . SVG Version: 6.00 Build 0)  -->
<svg version="1.1" id="Calque_1" xmlns="http://www.w3.org/2000/svg" xmlns:xlink="http://www.w3.org/1999/xlink" x="0px" y="0px"
	 viewBox="0 0 80.1 80" style="enable-background:new 0 0 80.1 80;" xml:space="preserve">
<path d="M39.6,79.9c0.1,0.1,0.3,0.1,0.4,0.1s0.3,0,0.4-0.1c0.3-0.2,33.1-15.9,38.8-45C82.7,17.5,74.2,4.7,63.9,1
	c-7.1-2.5-17-1-23.9,10.6C33.1,0.1,23.3-1.5,16.1,1C5.9,4.7-2.7,17.5,0.8,34.9C6.5,64,39.3,79.7,39.6,79.9z M16.8,2.9
	C18.6,2.3,20.4,2,22.2,2c6.6,0,12.8,4.3,17,12.2c0.3,0.7,1.4,0.7,1.8,0c5.3-10,13.8-14.3,22.3-11.3c9.4,3.4,17.3,15.3,14.1,31.6
	c-2.9,14.7-13,25.7-20.9,32.4C48.9,73.2,41.8,77,40,77.9c-1.8-0.9-8.9-4.6-16.4-11c-7.9-6.7-18-17.7-20.9-32.4
	C-0.5,18.2,7.4,6.3,16.8,2.9z"/>
</svg>
