<?xml version="1.0" encoding="utf-8"?>
<!-- Generator: Adobe Illustrator 27.1.1, SVG Export Plug-In . SVG Version: 6.00 Build 0)  -->
<svg version="1.1" id="Calque_1" xmlns="http://www.w3.org/2000/svg" xmlns:xlink="http://www.w3.org/1999/xlink" x="0px" y="0px"
	 viewBox="0 0 54.6 80" style="enable-background:new 0 0 54.6 80;" xml:space="preserve">
<path d="M27.3,80C27.3,80,27.3,80,27.3,80c0.3,0,0.6-0.1,0.8-0.4c1.1-1.4,26.5-34.4,26.5-52.3C54.6,12.2,42.3,0,27.3,0
	S0,12.2,0,27.3c0,19.4,25.4,51,26.5,52.3C26.7,79.9,27,80,27.3,80z M27.3,2c13.9,0,25.3,11.3,25.3,25.3c0,15.5-21,44.3-25.3,50.1
	C22.9,71.8,2,44.1,2,27.3C2,13.3,13.3,2,27.3,2z"/>
<path d="M37.8,26.5c0-5.8-4.7-10.5-10.5-10.5s-10.5,4.7-10.5,10.5s4.7,10.5,10.5,10.5S37.8,32.2,37.8,26.5z M18.8,26.5
	c0-4.7,3.8-8.5,8.5-8.5s8.5,3.8,8.5,8.5s-3.8,8.5-8.5,8.5S18.8,31.1,18.8,26.5z"/>
</svg>
