<svg width="24" height="31" viewBox="0 0 24 31" fill="none" xmlns="http://www.w3.org/2000/svg">
<path d="M23.5 12C23.5 14.9418 22.396 17.6247 20.579 19.6586C19.8846 20.4358 19.1143 21.1473 18.3233 21.878C18.2949 21.9042 18.2665 21.9305 18.238 21.9567C17.4236 22.7092 16.5905 23.4841 15.8442 24.3461C15.2493 25.0332 14.6583 25.7345 14.1006 26.4674C13.4817 27.2807 12.6237 28.4512 12 29.4794C11.2029 28.1655 10.0201 26.6139 9.43446 25.8645C9.18185 25.5412 8.92303 25.2266 8.66437 24.9162C7.82916 23.914 6.87784 23.0231 5.9477 22.1584C5.9169 22.1298 5.88613 22.1012 5.85539 22.0726C4.95008 21.2313 4.0686 20.412 3.28823 19.5073C1.55036 17.4925 0.5 14.8695 0.5 12C0.5 5.64873 5.64873 0.5 12 0.5C18.3513 0.5 23.5 5.64873 23.5 12Z" stroke="#201E1E"/>
<circle cx="12" cy="12" r="7.5" fill="#F5F3EC" stroke="#201E1E"/>
</svg>
