<?xml version="1.0" encoding="utf-8"?>
<!-- Generator: Adobe Illustrator 27.1.1, SVG Export Plug-In . SVG Version: 6.00 Build 0)  -->
<svg version="1.1" id="Calque_1" xmlns="http://www.w3.org/2000/svg" xmlns:xlink="http://www.w3.org/1999/xlink" x="0px" y="0px"
	 viewBox="0 0 80 80" style="enable-background:new 0 0 80 80;" xml:space="preserve">
<path d="M20.9,70.9c6.8,0,12.1-7.6,12.3-7.9c0.2-0.3,0.2-0.8,0-1.1c-0.2-0.3-5.5-7.9-12.3-7.9S8.8,61.5,8.6,61.9
	c-0.2,0.3-0.2,0.8,0,1.1C8.8,63.3,14.1,70.9,20.9,70.9z M20.9,55.9c4.7,0,8.9,4.8,10.2,6.5c-1.3,1.7-5.5,6.5-10.2,6.5
	c-4.8,0-8.9-4.8-10.2-6.5C12,60.7,16.1,55.9,20.9,55.9z"/>
<path d="M59.1,70.9c6.8,0,12.1-7.6,12.3-7.9c0.2-0.3,0.2-0.8,0-1.1c-0.2-0.3-5.5-7.9-12.3-7.9s-12.1,7.6-12.3,7.9
	c-0.2,0.3-0.2,0.8,0,1.1C47.1,63.3,52.4,70.9,59.1,70.9z M59.1,55.9c4.8,0,8.9,4.8,10.2,6.5c-1.3,1.7-5.5,6.5-10.2,6.5
	c-4.7,0-8.9-4.8-10.2-6.5C50.2,60.7,54.4,55.9,59.1,55.9z"/>
<path d="M0.6,23.8l6.2,2.5l2.4,6.2c0.1,0.3,0.4,0.6,0.8,0.6c0.1,0,0.1,0,0.2,0c0.3,0,0.6-0.1,0.8-0.4l3.8-4.5
	c1.4,1.4,5.8,6.5,6,16.7H1c-0.6,0-1,0.4-1,1v16.5C0,72.1,7.9,80,17.6,80h8.8c5.3,0,10.3-2.4,13.7-6.5c3.3,4.1,8.3,6.5,13.7,6.5h8.8
	C72.1,80,80,72.1,80,62.4V45.9c0-0.6-0.4-1-1-1H59.3c0.2-10.2,4.6-15.3,6-16.7l3.8,4.5c0.2,0.2,0.5,0.4,0.8,0.4c0.1,0,0.1,0,0.2,0
	c0.3-0.1,0.6-0.3,0.8-0.6l2.4-6.2l6.2-2.5c0.3-0.1,0.6-0.4,0.6-0.8c0.1-0.3-0.1-0.7-0.4-0.9l-5.1-4.2l-0.4-6.6
	c0-0.4-0.2-0.7-0.5-0.8c-0.3-0.2-0.7-0.1-1,0L66.9,14l-6.4-1.6c-0.3-0.1-0.7,0-1,0.3c-0.2,0.3-0.3,0.6-0.3,1l1.7,6.4l-3.5,5.6
	c-0.2,0.3-0.2,0.7,0,1s0.5,0.5,0.8,0.5l5,0.3c-2,2.3-5.7,7.7-5.9,17.4h-3.6c-4.8,0-9.4,2-12.7,5.4V26.6l7.7,3.3
	C48.9,30,49,30,49.1,30c0.2,0,0.4-0.1,0.6-0.2c0.3-0.2,0.4-0.6,0.4-0.9l-0.9-9.5l6.3-7.1c0.2-0.3,0.3-0.6,0.2-1
	c-0.1-0.3-0.4-0.6-0.7-0.7l-9.3-2.1l-4.9-8.2c-0.4-0.6-1.4-0.6-1.7,0l-4.9,8.2L25,10.7c-0.3,0.1-0.6,0.3-0.7,0.7
	c-0.1,0.3,0,0.7,0.2,1l6.3,7.1L29.9,29c0,0.4,0.1,0.7,0.4,0.9c0.3,0.2,0.7,0.2,1,0.1l7.7-3.3v23.7c-3.3-3.4-7.8-5.4-12.7-5.4h-3.6
	c-0.2-9.6-3.9-15.1-5.9-17.4l5-0.3c0.4,0,0.7-0.2,0.8-0.5s0.1-0.7,0-1L19.1,20l1.7-6.4c0.1-0.3,0-0.7-0.3-1c-0.2-0.2-0.6-0.3-1-0.3
	L13.1,14l-5.6-3.6c-0.3-0.2-0.7-0.2-1,0c-0.3,0.2-0.5,0.5-0.5,0.8l-0.4,6.6l-5.1,4.2C0.1,22.3,0,22.7,0,23
	C0.1,23.4,0.3,23.7,0.6,23.8z M60,25.3l2.9-4.6C63,20.5,63,20.2,63,20l-1.3-5.2l5.2,1.3c0.3,0.1,0.5,0,0.8-0.1l4.6-2.9l0.4,5.4
	c0,0.3,0.1,0.5,0.4,0.7l4.2,3.4l-5,2c-0.3,0.1-0.5,0.3-0.6,0.6l-2,5L66.1,26c-0.2-0.2-0.4-0.3-0.7-0.4L60,25.3z M32,27.5l0.8-8.2
	c0-0.3-0.1-0.5-0.2-0.8l-5.5-6.2l8.1-1.8c0.3-0.1,0.5-0.2,0.6-0.5L40,2.9l4.2,7.1c0.1,0.2,0.4,0.4,0.6,0.5l8.1,1.8l-5.5,6.2
	c-0.2,0.2-0.3,0.5-0.2,0.8l0.8,8.2l-7.6-3.3c-0.1-0.1-0.3-0.1-0.4-0.1s-0.3,0-0.4,0.1L32,27.5z M26.4,46.9c5.1,0,9.9,2.5,12.8,6.8
	c0.4,0.5,1.3,0.5,1.7,0c2.9-4.2,7.7-6.8,12.8-6.8H78v15.5C78,71,71,78,62.4,78h-8.8c-5.1,0-9.9-2.5-12.8-6.8
	c-0.2-0.3-0.5-0.4-0.8-0.4s-0.6,0.2-0.8,0.4c-2.9,4.2-7.7,6.8-12.8,6.8h-8.8C9,78,2,71,2,62.4V46.9H26.4z M7.1,19.1
	c0.2-0.2,0.3-0.4,0.4-0.7L7.8,13l4.6,2.9c0.2,0.1,0.5,0.2,0.8,0.1l5.2-1.3L17,20c-0.1,0.3,0,0.6,0.1,0.8l2.9,4.6l-5.4,0.3
	c-0.3,0-0.5,0.1-0.7,0.4l-3.5,4.1l-2-5c-0.1-0.3-0.3-0.5-0.6-0.6l-5-2L7.1,19.1z"/>
</svg>
