<?xml version="1.0" encoding="utf-8"?>
<!-- Generator: Adobe Illustrator 27.1.1, SVG Export Plug-In . SVG Version: 6.00 Build 0)  -->
<svg version="1.1" id="Calque_1" xmlns="http://www.w3.org/2000/svg" xmlns:xlink="http://www.w3.org/1999/xlink" x="0px" y="0px"
	 viewBox="0 0 80 80.1" style="enable-background:new 0 0 80 80.1;" xml:space="preserve">
<path d="M26,2.5c-0.3-0.3-0.6-0.4-1-0.3l-5.1,1.4l-4.1-3.4c-0.3-0.2-0.7-0.3-1-0.1c-0.3,0.2-0.6,0.5-0.6,0.9L14,6.3L9.5,9.1
	C9.2,9.3,9,9.7,9.1,10c0,0.4,0.3,0.7,0.6,0.8l5,1.8l1.3,5.1c0.1,0.4,0.4,0.7,0.8,0.7c0.1,0,0.1,0,0.2,0c0.3,0,0.6-0.1,0.8-0.4L21,14
	l5.3,0.3c0.4,0,0.7-0.2,0.9-0.5c0.2-0.3,0.2-0.7,0-1.1l-3-4.4l2-4.9C26.4,3.1,26.3,2.7,26,2.5z M24.4,12.3L20.6,12
	c-0.3,0-0.6,0.1-0.9,0.4l-2.3,3l-0.9-3.7c-0.1-0.3-0.3-0.6-0.6-0.7l-3.6-1.3l3.2-2C15.8,7.5,16,7.2,16,6.9l0.1-3.8L19,5.5
	c0.3,0.2,0.6,0.3,0.9,0.2l3.7-1l-1.4,3.5c-0.1,0.3-0.1,0.7,0.1,0.9L24.4,12.3z"/>
<path d="M58.7,13.2c0,0-0.1,0-0.1,0c-0.1,0-0.3,0-0.5,0L18,24.5c-0.5,0.1-0.8,0.6-0.7,1.1c0,0,0,0.1,0,0.1v40.1
	c-1.6-2-4.1-3.2-6.8-3.2c-4.8,0-8.8,3.9-8.8,8.8c0,4.8,3.9,8.8,8.8,8.8s8.8-3.9,8.8-8.8c0-0.1,0-0.3,0-0.4c0,0,0-0.1,0-0.1V38.1
	l38.5-10.8v7.8l-3.8-3.5c-0.3-0.3-0.7-0.3-1-0.2c-0.4,0.1-0.6,0.5-0.6,0.8l-0.6,6.6l-5.8,3.2c-0.3,0.2-0.5,0.5-0.5,0.9
	c0,0.4,0.3,0.7,0.6,0.9l6.1,2.6l1.3,6.5c0.1,0.4,0.4,0.7,0.7,0.8c0.1,0,0.2,0,0.3,0c0.3,0,0.6-0.1,0.8-0.3l2.7-3v8.6
	c-1.6-1.9-4-3.2-6.7-3.2c-4.8,0-8.8,3.9-8.8,8.8c0,4.8,3.9,8.8,8.8,8.8c4.8,0,8.8-3.9,8.8-8.8c0-0.3,0-0.6-0.1-0.9V48.6l6.3,0.8
	c0.4,0,0.7-0.1,1-0.4c0.2-0.3,0.2-0.7,0-1.1l-3.4-5.7l2.8-6c0.2-0.3,0.1-0.8-0.1-1c-0.2-0.3-0.6-0.4-1-0.3L59.7,36V14.2
	C59.7,13.7,59.3,13.2,58.7,13.2z M10.5,78.1c-3.7,0-6.8-3-6.8-6.8s3-6.8,6.8-6.8s6.8,3,6.8,6.8S14.2,78.1,10.5,78.1z M51,71.5
	c-3.7,0-6.8-3-6.8-6.8c0-3.7,3-6.8,6.8-6.8c3.7,0,6.8,3,6.8,6.8C57.8,68.4,54.7,71.5,51,71.5z M19.2,36.1v-9.9l38.5-10.8v9.9
	L19.2,36.1z M61.5,41.8c-0.1,0.3-0.1,0.6,0,0.9l2.6,4.4l-5.1-0.6c-0.3,0-0.7,0.1-0.9,0.3l-3.4,3.8l-1-5c-0.1-0.3-0.3-0.6-0.6-0.7
	l-4.7-2l4.5-2.5c0.3-0.2,0.5-0.5,0.5-0.8l0.5-5.1l3.7,3.5c0.2,0.2,0.6,0.3,0.9,0.2l5-1.1L61.5,41.8z"/>
<path d="M8.1,18.5l-4,3.4c-0.4,0.4-0.5,1-0.1,1.4c0.2,0.2,0.5,0.3,0.8,0.3c0.2,0,0.5-0.1,0.7-0.2l4-3.4c0.4-0.4,0.5-1,0.1-1.4
	C9.2,18.2,8.5,18.1,8.1,18.5z"/>
<path d="M1,15.7c0.1,0,0.1,0,0.2,0l5.2-1c0.5-0.1,0.9-0.6,0.8-1.2C7,13,6.5,12.6,6,12.7l-5.2,1c-0.5,0.1-0.9,0.6-0.8,1.2
	C0.1,15.4,0.5,15.7,1,15.7z"/>
<path d="M14.2,21.4c-0.5-0.2-1.1,0.2-1.2,0.7l-1.5,5c-0.2,0.5,0.2,1.1,0.7,1.2c0.1,0,0.2,0,0.3,0c0.4,0,0.8-0.3,1-0.7l1.5-5
	C15,22.1,14.7,21.6,14.2,21.4z"/>
<path d="M80,42.1c0-0.6-0.5-1-1.1-0.9l-6.4,0.4c-0.6,0-1,0.5-0.9,1.1c0,0.5,0.5,0.9,1,0.9c0,0,0,0,0.1,0l6.4-0.4
	C79.6,43.2,80,42.7,80,42.1z"/>
<path d="M70.6,36.4l5.3-3.6c0.5-0.3,0.6-0.9,0.3-1.4c-0.3-0.5-0.9-0.6-1.4-0.3l-5.3,3.6c-0.5,0.3-0.6,0.9-0.3,1.4
	c0.2,0.3,0.5,0.4,0.8,0.4C70.3,36.6,70.5,36.5,70.6,36.4z"/>
<path d="M76.5,53.9c0.4,0,0.7-0.2,0.9-0.5c0.3-0.5,0.1-1.1-0.4-1.4l-5.6-3.1c-0.5-0.3-1.1-0.1-1.4,0.4s-0.1,1.1,0.4,1.4l5.6,3.1
	C76.1,53.9,76.3,53.9,76.5,53.9z"/>
</svg>
