<?xml version="1.0" encoding="utf-8"?>
<!-- Generator: Adobe Illustrator 27.1.1, SVG Export Plug-In . SVG Version: 6.00 Build 0)  -->
<svg version="1.1" id="Calque_1" xmlns="http://www.w3.org/2000/svg" xmlns:xlink="http://www.w3.org/1999/xlink" x="0px" y="0px"
	 viewBox="0 0 71.1 80" style="enable-background:new 0 0 71.1 80;" xml:space="preserve">
<path d="M35.6,34.9c9.6,0,17.4-7.8,17.4-17.4C53,7.8,45.2,0,35.6,0S18.1,7.8,18.1,17.4C18.1,27.1,26,34.9,35.6,34.9z M35.6,2
	C44.1,2,51,8.9,51,17.4s-6.9,15.4-15.4,15.4S20.1,26,20.1,17.4S27.1,2,35.6,2z"/>
<path d="M1,80h69.1c0.3,0,0.5-0.1,0.7-0.3s0.3-0.5,0.3-0.7c-0.7-19.2-16.3-34.3-35.6-34.3S0.7,59.7,0,79c0,0.3,0.1,0.5,0.3,0.7
	S0.7,80,1,80z M35.6,46.7c17.8,0,32.3,13.7,33.5,31.3h-67C3.2,60.3,17.8,46.7,35.6,46.7z"/>
</svg>
